<?xml version="1.0" standalone="no"?>
<!DOCTYPE svg PUBLIC "-//W3C//DTD SVG 1.1//EN" "http://www.w3.org/Graphics/SVG/1.1/DTD/svg11.dtd" >
<svg xmlns="http://www.w3.org/2000/svg" xmlns:xlink="http://www.w3.org/1999/xlink" version="1.1">
<metadata>
Created by FontForge 20170812 at Sun Jul 12 03:10:19 2015
 By www-data
2009 - 2011, The League of Moveable Type, Design Modifications and New Weights 2015, Cannot Into Space Fonts
</metadata>
<defs>
<font id="WarsawGothicExt" horiz-adv-x="373" >
  <font-face 
    font-family="Warsaw Gothic"
    font-weight="400"
    font-stretch="normal"
    units-per-em="1000"
    panose-1="0 0 5 0 0 0 0 0 0 0"
    ascent="735"
    descent="-265"
    x-height="547"
    cap-height="735"
    bbox="19 -250 958.75 952"
    underline-thickness="50"
    underline-position="-100"
    stemh="98"
    stemv="101"
    unicode-range="U+0020-FB02"
  />
<missing-glyph horiz-adv-x="60" 
 />
    <glyph glyph-name=".notdef" horiz-adv-x="60" 
 />
    <glyph glyph-name="space" unicode=" " horiz-adv-x="60" 
 />
    <glyph glyph-name="exclam" unicode="!" horiz-adv-x="188" 
d="M21 735h146.25l-33.75 -537h-78.75zM28.5 111h131.25v-111h-131.25v111z" />
    <glyph glyph-name="quotedbl" unicode="&#x22;" horiz-adv-x="332" 
d="M41.75 466l-18.75 269h131.25l-18.75 -269h-93.75zM196.75 466l-18.75 269h131.25l-18.75 -269h-93.75z" />
    <glyph glyph-name="numbersign" unicode="#" horiz-adv-x="730" 
d="M35.25 309h121.25l22.5 126h-120l16.25 95h120l35 205h120l-35 -205h158.75l35 205h120l-35 -205h117.5l-16.25 -95h-117.5l-22.5 -126h116.25l-16.25 -95h-116.25l-36.25 -214h-120l36.25 214h-158.75l-36.25 -214h-120l36.25 214h-121.25zM276.5 309h158.75l22.5 126
h-158.75z" />
    <glyph glyph-name="dollar" unicode="$" horiz-adv-x="416" 
d="M390.25 596l-117.5 -12.001c-5 33 -17.5 62 -56.25 61c-39.7803 0 -51.25 -45.5303 -51.25 -79c0 -28 15 -57 35 -84c20 -28 46.25 -56 70 -81c42.2793 -46.1221 90.9805 -100.351 115 -157.999c7.5 -20 11.25 -41 11.25 -62c0 -93.2871 -42.9668 -170.486 -150 -180
v-106h-75v108c-100.976 14.6875 -149.797 83.3623 -152.5 172l117.5 6c2.34766 -45.0635 21.8047 -91 78.75 -91c45.668 0 56.25 49.6436 56.25 90c0 45.3008 -41.0205 93.957 -68.75 126c-49.7275 51.7168 -123.049 125.131 -150 197c-8.75 20 -12.5 40 -12.5 61
c0 83.3174 40.5869 150.681 131.25 167v64h75v-61c94.3184 -7.5459 132.941 -66.666 143.75 -138z" />
    <glyph glyph-name="percent" unicode="%" horiz-adv-x="589" 
d="M215.75 445c-1.25 -33 -16.25 -56 -41.25 -73c-12.5 -9 -31.25 -13 -55 -13c-50 0 -72.5 20 -86.25 43c-7.5 12 -11.25 26 -11.25 43v213c0 32 15 54 41.25 72c12.5 9 31.25 13 56.25 13c48.75 0 70 -22 83.75 -43c7.5 -12 11.25 -26 12.5 -42v-213zM84.5 0l337.5 735h80
l-333.75 -735h-83.75zM119.5 685c-16.6221 0 -25.8516 -13.5908 -22.5 -27v-213c-1.25 -11 1.25 -27 22.5 -27c18.75 0 21.25 16 21.25 27v213c0 12.0342 -5.0918 27 -21.25 27zM567 77c-1.25 -33 -16.25 -55 -41.25 -72c-12.5 -9 -31.25 -13 -55 -13
c-50 0 -72.5 21 -86.25 42c-7.5 12 -11.25 26 -11.25 43v213c0 32 15 55 41.25 73c12.5 9 31.25 13 56.25 13c48.75 0 70 -22 83.75 -43c7.5 -13 11.25 -27 12.5 -43v-213zM470.75 317c-16.6221 0 -25.8516 -13.5908 -22.5 -27v-213c-1.5332 -13.4941 5.63477 -28 22.5 -28
c15.4941 0 21.25 14.9287 21.25 28v213c0 12.0342 -5.0918 27 -21.25 27z" />
    <glyph glyph-name="ampersand" unicode="&#x26;" horiz-adv-x="506" 
d="M19 154c0 83 52.499 150 103.749 213c-43.75 72 -65 139 -65 216c1.25 60 22.5 102 67.5 135c22.5 17 55 25 97.5 25c85 0 125 -40 143.75 -80c21.25 -47 30 -110 -17.5 -181c-23.75 -36 -53.75 -73 -90 -111c40 -73 66.25 -111 90 -139c16.25 37 25 86 28.75 103
l107.5 -16c-5.2998 -55.1152 -26.54 -127.464 -56.249 -175c13.75 -12 25 -21 35 -26c10 -6 17.5 -10 21.25 -11v-115c-3.75 0 -8.75 1 -17.5 4c-28.7451 8.84473 -83.0068 40.4424 -110 64c-45 -41 -97.5 -68 -153.75 -68c-107 0 -185 76.0518 -185 162zM222.749 657
c-26.25 0 -38.751 -18.001 -43.751 -37.001c-13.125 -48.3018 8.89941 -115.735 30.001 -156.999c30 37 61.25 84 61.25 123c1.61719 32.3457 -6.69043 71 -47.5 71zM286.498 127.999c-33.75 43 -67.5 87 -106.25 144c-13.75 -17 -21.25 -37 -27.5 -65
c-8.78516 -40.7578 -3.61914 -121 57.5 -121c33.75 0 52.5 18 76.25 42z" />
    <glyph glyph-name="quotesingle" unicode="'" horiz-adv-x="177" 
d="M41.75 466l-18.75 269h131.25l-18.75 -269h-93.75z" />
    <glyph glyph-name="parenleft" unicode="(" horiz-adv-x="317" 
d="M297.5 735c-60 -69 -100 -147 -132.5 -249c-16.25 -51 -25 -108 -25 -171c0 -125 38.75 -228 78.75 -303c22.5 -43 48.75 -82 78.75 -116l-98.75 -41c-66.25 83 -115 171 -151.25 283c-18.75 55 -27.5 114 -27.5 177c0 125 43.75 240 88.75 324c26.25 49 56.25 95 90 137
z" />
    <glyph glyph-name="parenright" unicode=")" horiz-adv-x="317" 
d="M117.75 776c65 -84 113.75 -172 151.25 -283c18.75 -56 27.5 -115 27.5 -178c0 -125 -45 -240 -90 -324c-26.25 -49 -56.25 -95 -88.75 -136l-98.75 41c58.75 68 98.75 147 132.5 249c16.25 51 25 107 25 170c0 125 -40 228 -78.75 303c-23.75 43 -50 82 -78.75 117z" />
    <glyph glyph-name="asterisk" unicode="*" horiz-adv-x="366" 
d="M136 735h93.75l-11.25 -86l100 34l26.25 -72l-105 -17l70 -67l-80 -39l-47.5 74l-46.25 -74l-80 39l70 67l-105 17l26.25 72l100 -34z" />
    <glyph glyph-name="plus" unicode="+" horiz-adv-x="604" 
d="M23 401h226.25v169h105v-169h226.25v-84h-226.25v-169h-105v169h-226.25v84z" />
    <glyph glyph-name="comma" unicode="," horiz-adv-x="181" 
d="M156.25 0l-68.75 -130h-62.5l43.75 130h-43.75v111h131.25v-111z" />
    <glyph glyph-name="hyphen" unicode="-" horiz-adv-x="408" 
d="M27 317h355v-95h-355v95z" />
    <glyph glyph-name="period" unicode="." horiz-adv-x="182" 
d="M26 111h131.25v-111h-131.25v111z" />
    <glyph glyph-name="slash" unicode="/" horiz-adv-x="468" 
d="M350.25 735h98.75l-327.5 -807h-102.5z" />
    <glyph glyph-name="zero" unicode="0" horiz-adv-x="406" 
d="M383 151c-1.25 -30 -8.75 -57 -22.5 -80c-24.7891 -44.0703 -74.2627 -79 -157.5 -79c-45 0 -80 9 -105 25c-47.1953 28.3164 -72.5117 74.2812 -75 134v433c1.25 29 8.75 56 22.5 79c25.2852 44.9531 72.2773 80 157.5 80c45 0 78.75 -10 103.75 -25
c47.2861 -28.3711 73.6924 -74.668 76.25 -134v-433zM203 638c-34.7549 0 -45 -27.6455 -45 -54v-433c0 -27.3291 11.3066 -54 45 -54c34.7549 0 45 25.9609 45 54v433c0 26.9004 -9.83496 54 -45 54z" />
    <glyph glyph-name="one" unicode="1" horiz-adv-x="269" 
d="M19 645c56.25 7 161.25 77 168.75 90h56.25v-735h-135v576h-90v69z" />
    <glyph glyph-name="two" unicode="2" horiz-adv-x="408" 
d="M159.75 553c0 37.2363 3.11035 90 44.999 90c42.0801 0 44.8232 -54.4844 45.001 -90c0.518555 -103.705 -163.75 -355 -228.75 -446v-107h366.25v107h-213.75c69.3555 93.1348 211.25 302.958 211.25 453c0 106.327 -44.4385 183 -180 183
c-139.664 0 -180 -82.8994 -180 -190h135z" />
    <glyph glyph-name="three" unicode="3" horiz-adv-x="398" 
d="M235 494v59.002c0 37.3477 2.23145 95 -42.5 95c-16.25 0 -26.25 -6 -31.25 -25c-6.25 -20 -8.75 -51 -8.75 -100h-132.5c0 109.177 21.085 220 172.5 220c85 0 128.75 -35 151.25 -72s23.75 -77 23.75 -86c0 -110.247 -24.0967 -161.277 -66.25 -195
c65 -41 77.5 -117 77.5 -202c0 -35.9072 -6.02344 -63.7441 -23.75 -105.001c-22.4102 -47.8076 -66.2617 -91 -151.25 -91c-150.812 0 -178.75 110.365 -178.75 220h132.5c0 -49 3.75 -80 11.25 -99c7.5 -20 18.75 -26 35 -26c44.7598 0 42.5 55.4199 42.5 93
c0 23 0 44 1.25 63c0 60.1318 -28.3545 86.377 -103.75 88.999h-11.25v90c77.6523 4.1416 102.5 18.1748 102.5 72z" />
    <glyph glyph-name="four" unicode="4" horiz-adv-x="434" 
d="M228.75 160h-208.75v95l197.5 480h135v-480h62.5v-95h-62.5v-160h-123.75v160zM228.75 516l-93.75 -261h93.75v261z" />
    <glyph glyph-name="five" unicode="5" horiz-adv-x="394" 
d="M143.5 348h-113.75v387h326.25v-107h-210v-153c15 9 31.25 17 50 22c8.75 3 18.75 4 27.5 3c70 0 107.5 -32 127.5 -67s22.5 -73 22.5 -85v-164c0 -100.124 -36.2012 -192 -176.25 -192c-153.205 0 -176.25 106.825 -176.25 222h135v-29c0 -37 2.5 -63 8.75 -77
c6.25 -15 16.25 -22 32.5 -22c13.75 0 25 7 31.25 21s10 40 10 77v164c0 31 -13.75 54 -42.5 54c-27.4912 0 -52.5 -33.9941 -52.5 -54z" />
    <glyph glyph-name="six" unicode="6" horiz-adv-x="397" 
d="M199.25 743c85 0 127.5 -31 151.25 -67c23.75 -37 25 -82 25 -107v-46h-135c0 49 -1.25 81 -6.25 100s-15 26 -35 26c-40.9131 0 -41.25 -39.7979 -41.25 -80v-131c23.75 11 43.75 18 67.5 18c113.31 0 150 -78.5879 150 -155v-150c0 -17 -2.5 -57 -26.25 -92
c-23.75 -36 -68.75 -67 -150 -67c-83.75 0 -126.25 31 -150 67c-23.75 35 -26.25 75 -26.25 92v418c0 91.96 39.0869 174 176.25 174zM158 119c0 -9 10 -33 41.25 -33c28.75 0 41.25 24 41.25 33v220c0 9 -12.5 33 -41.25 33s-40 -19 -41.25 -30v-223z" />
    <glyph glyph-name="seven" unicode="7" horiz-adv-x="382" 
d="M223.5 628h-202.5v107h340v-108l-135 -627h-140z" />
    <glyph glyph-name="eight" unicode="8" horiz-adv-x="401" 
d="M201 -8c-123.378 0 -180 75.6914 -180 165v86c0 55 23.75 110 70 145c-41.25 33 -62.5 84 -62.5 135v62c0 9 1.25 49 23.75 86s63.75 72 148.75 72s127.5 -35 150 -72s22.5 -77 22.5 -86v-62c0 -51 -21.25 -102 -62.5 -135c46.25 -35 70 -90 70 -145v-86
c0 -89.4316 -56.5967 -165 -180 -165zM241 547c0 34 -2.5 59 -6.25 76c-5 17 -16.25 25 -33.75 25c-15 0 -25 -7 -30 -22c-11.25 -29 -12.5 -128 -2.5 -163c3.75 -18 15 -27 32.5 -27s28.75 9 33.75 27c3.75 17 6.25 45 6.25 84zM249.75 200c0 44 -2.5 77 -6.25 98
c-5 21 -18.75 32 -42.5 32s-37.5 -11 -41.25 -32c-10 -43 -8.75 -150 3.75 -182c6.25 -17 18.75 -25 37.5 -25c23.75 0 37.5 10 42.5 29c3.75 19 6.25 46 6.25 80z" />
    <glyph glyph-name="nine" unicode="9" horiz-adv-x="397" 
d="M198.25 743c81.25 0 126.25 -31 150 -66c23.75 -36 26.25 -76 26.25 -93v-418c0 -92.8076 -40.0723 -174 -176.25 -174c-136.125 0 -176.25 81.4287 -176.25 174v46h135c0 -49 1.25 -81 6.25 -100s15 -26 35 -26c41.584 0 41.25 38.4697 41.25 80v138
c-23.75 -11 -43.75 -18 -67.5 -18c-113.31 0 -150 78.5879 -150 155v143c0 81.1416 49.2207 159 176.25 159zM239.5 616c0 9 -10 33 -41.25 33c-28.75 0 -41.25 -24 -41.25 -33v-213c0 -9 12.5 -33 41.25 -33s40 19 41.25 30v216z" />
    <glyph glyph-name="colon" unicode=":" horiz-adv-x="181" 
d="M25 547h131.25v-111h-131.25v111zM25 111h131.25v-111h-131.25v111z" />
    <glyph glyph-name="semicolon" unicode=";" horiz-adv-x="181" 
d="M25 547h131.25v-111h-131.25v111zM156.25 0l-68.75 -130h-62.5l43.75 130h-43.75v111h131.25v-111z" />
    <glyph glyph-name="less" unicode="&#x3c;" horiz-adv-x="602" 
d="M23 395l556.25 232v-97l-426.25 -174l426.25 -174v-97l-556.25 232v78z" />
    <glyph glyph-name="equal" unicode="=" horiz-adv-x="606" 
d="M25 506h556.25v-84h-556.25v84zM25 317h556.25v-84h-556.25v84z" />
    <glyph glyph-name="greater" unicode="&#x3e;" horiz-adv-x="602" 
d="M580.25 317l-556.25 -232v97l426.25 174l-426.25 174v97l556.25 -232v-78z" />
    <glyph glyph-name="question" unicode="?" horiz-adv-x="392" 
d="M127.75 574l-108.75 41c6.25 16 27.5 47 58.75 75c30 27 73.75 50 132.5 49c109.852 -1.56934 162.5 -65.7227 162.5 -140c0 -41 -22.5 -71 -48.75 -107c-34.4805 -45.9727 -75 -94.6904 -75 -169v-125h-116.25v125c0 98.0947 40.8145 163.752 83.75 221
c17.5 23 28.75 42 32.5 55c4.08789 22.8955 -11.167 46 -41.25 46c-43.8301 0 -70.0996 -47.2393 -80 -71zM125.25 111h131.25v-111h-131.25v111z" />
    <glyph glyph-name="at" unicode="@" horiz-adv-x="504" 
d="M299.25 189c-66.25 0 -88.75 37 -88.75 84v237c0 45 22.5 83 88.75 83c33.29 0 58.2363 -16.1777 68.75 -33v22c0 43.5039 -47.9336 77 -116.25 77c-67.2852 0 -116.25 -34.6934 -116.25 -77v-434c0 -43.3086 49.1592 -75 116.25 -75c53.75 0 82.5 11 102.5 31l92.5 -42
c-33.75 -36 -90 -70 -195 -70c-91.25 0 -148.75 28 -182.5 61c-35 33 -46.25 72 -46.25 95v434c0 24 11.25 65 46.25 99c33.75 34 91.25 62 182.5 62s148.75 -28 183.75 -62c33.75 -34 45 -75 45 -99v-387h-100l-12.5 27c-11.874 -17.6406 -34.2793 -33 -68.75 -33zM368 502
c0 16 -11.25 26 -30 26s-28.75 -9 -28.75 -26v-222c0 -17 10 -26 28.75 -26s30 7 30 26v222z" />
    <glyph glyph-name="A" unicode="A" horiz-adv-x="481" 
d="M19 0l138.75 735h165l138.75 -735h-131.25l-25 150h-130l-25 -150h-131.25zM244 515h-7.5l-3.75 -19l-38.75 -232h92.5c-14.3301 83.5361 -27.3301 168.136 -42.5 251z" />
    <glyph glyph-name="B" unicode="B" horiz-adv-x="420" 
d="M389 540c0 -79.6826 -27.792 -110.813 -83.75 -151.999c56.4473 -25.0879 93.75 -95.1006 93.75 -180c0 -120.037 -58.7578 -202.376 -208.75 -208.001h-166.25v735h118.75c169.09 0 246.25 -55.582 246.25 -195zM159 628.001v-196c65.9473 0 100 24.8779 100 98
c0 73.085 -34.3223 98 -100 98zM159 107.001c11.25 0 37.5 -2 60 11s40 42 40 102s-17.5 89 -40 102s-48.75 11 -60 11v-226z" />
    <glyph glyph-name="C" unicode="C" horiz-adv-x="407" 
d="M205.5 638c-36.0264 0 -44.2588 -28.0703 -47.5 -54v-433c1.58984 -26.7051 13.8467 -54 47.5 -54c39.9863 0 51.25 23.666 51.25 54v101h126.25v-101c-1.25 -30 -8.75 -57 -22.5 -80c-24.7891 -44.0703 -74.2627 -79 -157.5 -79c-45 0 -80 9 -105 25
c-47.1953 28.3164 -72.5117 74.2812 -75 134v433c1.25 29 8.75 56 22.5 79c25.2852 44.9531 72.2773 80 157.5 80c45 0 78.75 -10 103.75 -25c47.2861 -28.3711 73.6924 -74.668 76.25 -134v-101h-126.25v101c0 28.2783 -12.666 54 -51.25 54z" />
    <glyph glyph-name="D" unicode="D" horiz-adv-x="423" 
d="M24 0v735h106.25c125 0 192.5 -20 228.75 -76c35 -56 40 -148 40 -292s-5 -235 -40 -291c-36.25 -56 -103.75 -76 -228.75 -76h-106.25zM159 108c46.25 0 72.5 4 86.25 40c6.25 17 11.25 43 12.5 78s1.25 82 1.25 142s0 107 -1.25 142c-1.25 34 -6.25 60 -12.5 78
c-13.75 35 -40 39 -86.25 39v-519z" />
    <glyph glyph-name="E" unicode="E" horiz-adv-x="355" 
d="M24 735h308.75v-111h-173.75v-193h125v-118h-125v-202h173.75v-111h-308.75v735z" />
    <glyph glyph-name="F" unicode="F" horiz-adv-x="366" 
d="M345.25 624h-186.25v-193h125v-111h-125v-320h-135v735h321.25v-111z" />
    <glyph glyph-name="G" unicode="G" horiz-adv-x="408" 
d="M203.198 638c-34.7539 0 -45.001 -27.6455 -45.001 -54v-442c0 -27.3291 11.3066 -54 45 -54c34.7549 0 45 25.9609 45 54v133h-53.75v91h188.75v-366h-80l-16.25 35c-25 -25 -61.25 -43 -105 -43s-73.75 9 -96.25 25c-43.292 28.8623 -65.0283 73.3066 -62.499 134v433
c1.25 29 8.75 56 22.5 79c25.2861 44.9531 72.2783 80 157.5 80c45 0 78.75 -10 103.75 -25c47.2871 -28.3711 73.6934 -74.668 76.25 -134v-113h-135v113c0 26.9004 -9.83496 54 -45 54z" />
    <glyph glyph-name="H" unicode="H" horiz-adv-x="425" 
d="M264 320h-105v-320h-135v735h135v-304h105v304h135v-735h-135v320z" />
    <glyph glyph-name="I" unicode="I" horiz-adv-x="185" 
d="M24 735h135v-735h-135v735z" />
    <glyph glyph-name="J" unicode="J" horiz-adv-x="253" 
d="M91.5 153v582h135v-599c0 -97.5781 -69.79 -149.886 -207.5 -143v106c43.5723 -4.97949 72.5 14.041 72.5 54z" />
    <glyph glyph-name="K" unicode="K" horiz-adv-x="450" 
d="M159 735v-257h5l6.25 12l112.5 245h131.25l-123.75 -242l140 -493h-131.25c-32.3105 111.819 -66.0625 222.484 -97.5 335h-3.75c-12.5586 -25.2861 -25.8477 -49.9883 -38.75 -75v-260h-135v735h135z" />
    <glyph glyph-name="L" unicode="L" horiz-adv-x="359" 
d="M24 735h135v-635h178.75v-100h-313.75v735z" />
    <glyph glyph-name="M" unicode="M" horiz-adv-x="555" 
d="M247.75 0c-30.1816 164.521 -62.2061 327.568 -91.25 493h-7.5v-493h-125v735h165l80 -336l6.25 -39h2.5l6.25 39l80 336h165v-735h-125v493h-7.5l-5 -31l-86.25 -462h-57.5z" />
    <glyph glyph-name="N" unicode="N" horiz-adv-x="444" 
d="M155.25 417h-7.5v-417h-123.75v735h120c47.4023 -139.079 95.6191 -277.506 142.5 -417.001h7.5v417h123.75v-735h-120c-47.4023 139.079 -95.6191 277.506 -142.5 417.001z" />
    <glyph glyph-name="O" unicode="O" horiz-adv-x="408" 
d="M383 151c-1.25 -30 -8.75 -57 -22.5 -80c-24.7891 -44.0703 -74.2627 -79 -157.5 -79c-45 0 -80 9 -105 25c-47.1953 28.3164 -72.5117 74.2812 -75 134v433c1.25 29 8.75 56 22.5 79c25.2852 44.9531 72.2773 80 157.5 80c45 0 78.75 -10 103.75 -25
c47.2861 -28.3711 73.6924 -74.668 76.25 -134v-433zM203 638c-34.7549 0 -45 -27.6455 -45 -54v-433c0 -27.3291 11.3066 -54 45 -54c34.7549 0 45 25.9609 45 54v433c0 26.9004 -9.83496 54 -45 54z" />
    <glyph glyph-name="P" unicode="P" horiz-adv-x="417" 
d="M396.5 515c0 -138.297 -85.8867 -221 -237.5 -221v-294h-135v735h135c153.773 0 237.5 -80.4238 237.5 -220zM159 625v-221c89.6699 0 101.25 30.6416 101.25 107c0 76.1416 -11.2812 114 -101.25 114z" />
    <glyph glyph-name="Q" unicode="Q" horiz-adv-x="429" 
d="M355.5 62c11.25 -12 27.5 -22 53.75 -26v-92c-76.25 0 -115 26 -138.75 57c-18.75 -5 -41.25 -9 -67.5 -9c-45 0 -80 9 -105 25c-47.1953 28.3164 -72.5117 74.2812 -75 134v433c1.25 29 8.75 56 22.5 79c25.2852 44.9531 72.2773 80 157.5 80c45 0 78.75 -10 103.75 -25
c47.2861 -28.3711 73.6924 -74.668 76.25 -134v-433c0 -29.7998 -13.876 -65.0215 -27.5 -89zM203 638c-34.7549 0 -45 -27.6455 -45 -54v-433c0 -27.3291 11.3066 -54 45 -54c34.7549 0 45 25.9609 45 54v433c0 26.9004 -9.83496 54 -45 54z" />
    <glyph glyph-name="R" unicode="R" horiz-adv-x="420" 
d="M159 310v-309.999h-135v735h135c161.25 0 230 -73 230 -212c0 -73 -23.75 -139 -75 -167c51.5801 -95.6562 63.3057 -237.622 86.25 -356h-135c-37.3164 101.328 -24.9922 255.042 -106.25 309.999zM159 410.001c70.5371 0 100 34.2656 100 109
c0 75.498 -28.0674 109 -100 109v-218z" />
    <glyph glyph-name="S" unicode="S" horiz-adv-x="424" 
d="M216.5 644c-35 -1 -46.25 -30 -46.25 -73c0 -25 13.75 -51 33.75 -79s46.25 -57 72.5 -88c31.25 -37 62.5 -75 86.25 -112s40 -75 40 -115c0 -106.384 -48.9502 -185 -187.5 -185c-161.269 0 -196.25 91.4385 -196.25 214l132.5 10c0 -52.0625 3.47656 -125 63.75 -125
c40 0 55 34 55 81c0 40.7559 -43.3418 93.0117 -70 125c-51.0312 58.3213 -124.041 137.824 -151.25 215c-7.5 19 -11.25 39 -11.25 59c0 91.2168 57.9824 170.145 176.25 172c81.25 1 128.75 -26 155 -65c26.25 -40 33.75 -89 33.75 -130l-132.5 -10
c0 41.0938 -5.58105 106 -53.75 106z" />
    <glyph glyph-name="T" unicode="T" horiz-adv-x="429" 
d="M19 624v111h390v-111h-127.5v-624h-135v624h-127.5z" />
    <glyph glyph-name="U" unicode="U" horiz-adv-x="410" 
d="M204 97c34.7549 0 45 25.9609 45 54v584h135v-584c-1.25 -30 -8.75 -57 -22.5 -80c-24.7891 -44.0703 -74.2627 -79 -157.5 -79c-45 0 -80 9 -105 25c-47.1953 28.3164 -72.5117 74.2812 -75 134v584h135v-584c0 -27.3291 11.3066 -54 45 -54z" />
    <glyph glyph-name="V" unicode="V" horiz-adv-x="454" 
d="M302.75 735l131.25 0.000976562l-140 -735h-135l-140 735h131.25c24.1152 -145.041 48.6475 -289.749 72.5 -435h7.5c23.8594 145.245 48.3789 289.963 72.5 434.999z" />
    <glyph glyph-name="W" unicode="W" horiz-adv-x="641" 
d="M247.75 0h-105l-123.75 735h125c18.4756 -135.553 39.0859 -269.397 56.25 -405.999h10c20.6582 135.141 40.7959 270.697 61.25 406h97.5c20.459 -135.3 40.5869 -270.864 61.25 -406.001h10l2.5 24l53.75 382h125l-123.75 -735h-105
c-23.2852 130.372 -47.0312 260.375 -70 391h-5c-22.9766 -130.619 -46.708 -260.634 -70 -391z" />
    <glyph glyph-name="X" unicode="X" horiz-adv-x="469" 
d="M151.5 0h-132.5l148.75 386l-146.25 349h132.5c25.8828 -64.96 51.3867 -130.224 77.5 -195h5c26.1074 64.7812 51.623 130.036 77.5 195h132.5l-146.25 -349l148.75 -386h-132.5c-26.4688 76.1572 -54.4199 151.129 -80 228h-5l-2.5 -9z" />
    <glyph glyph-name="Y" unicode="Y" horiz-adv-x="449" 
d="M219 500l3.75 -7h2.5l3.75 7l67.5 235h132.5l-137.5 -422v-313h-135v313l-137.5 422h132.5z" />
    <glyph glyph-name="Z" unicode="Z" horiz-adv-x="400" 
d="M20 116l211.25 512h-181.25v107h327.5v-107l-215 -521h215v-107h-357.5v116z" />
    <glyph glyph-name="bracketleft" unicode="[" horiz-adv-x="290" 
d="M268.75 639h-123.75v-647h123.75v-96h-243.75v839h243.75v-96z" />
    <glyph glyph-name="backslash" unicode="\" horiz-adv-x="512" 
d="M492.75 -88h-102.5l-371.25 914h98.75z" />
    <glyph glyph-name="bracketright" unicode="]" horiz-adv-x="290" 
d="M21 735h243.75v-839h-243.75v96h123.75v647h-123.75v96z" />
    <glyph glyph-name="asciicircum" unicode="^" horiz-adv-x="650" 
d="M396 735l232.5 -340h-121.25l-182.5 265l-182.5 -265h-121.25l232.5 340h142.5z" />
    <glyph glyph-name="underscore" unicode="_" horiz-adv-x="707" 
d="M29 -75h648.75v-84h-648.75v84z" />
    <glyph glyph-name="grave" unicode="`" horiz-adv-x="242" 
d="M154.25 727l65 -90h-97.5l-98.75 90h131.25z" />
    <glyph glyph-name="a" unicode="a" horiz-adv-x="391" 
d="M19 127c0 159.809 145 230 211.25 230v60c0 24.8906 -2.57617 50 -35 50c-31.4346 0 -36.25 -37.6289 -36.25 -87l-126.25 29c0 78.7441 71.7305 146 170 146c85.0293 0 153.75 -54.6201 153.75 -124v-336c0 -17 0 -71 15 -95h-130c-11.25 11 -11.25 37 -11.25 44
c-45 -81 -211.25 -64.5156 -211.25 83zM139 142c0 -78 91.25 -38 91.25 -9v131c-61.25 0 -91.25 -70 -91.25 -122z" />
    <glyph glyph-name="b" unicode="b" 
d="M347.75 448v-349c0 -50.8525 -32.7949 -107 -97.5 -107c-40.8457 0 -75.3633 26.4805 -100 44v-36h-126.25v735h126.25v-224c21.25 16 40 28 65 37c11.25 5 23.75 7 35 7c65.7383 0 97.5 -56.3916 97.5 -107zM150.25 120c0 -19 18.75 -33 37.5 -33s33.75 14 33.75 33v307
c0 19 -15 33 -33.75 33s-37.5 -17 -37.5 -33v-307z" />
    <glyph glyph-name="c" unicode="c" horiz-adv-x="371" 
d="M184.25 -8c-113.394 0 -161.25 59.5488 -161.25 162v239c0 102.391 47.9453 162 161.25 162c122.768 0 162.5 -49.874 162.5 -157v-43h-126.25v66c0 33 -7.5 44 -36.25 44c-33.75 0 -35 -24 -35 -44v-295c0 -20 1.25 -44 35 -44c28.75 0 36.25 11 36.25 44v76h126.25v-53
c0 -107.083 -39.7734 -157 -162.5 -157z" />
    <glyph glyph-name="d" unicode="d" 
d="M23 99v349c0 49.3633 31.9727 107 97.5 107c40.8457 0 75.3633 -26.4805 100 -44v224h126.25v-735h-126.25v36c-21.25 -16 -40 -28 -63.75 -37c-12.5 -5 -25 -7 -36.25 -7c-64.4434 0 -97.5 57.4307 -97.5 107zM220.5 427c0 16 -18.75 33 -37.5 33s-33.75 -14 -33.75 -33
v-307c0 -19 15 -33 33.75 -33s37.5 14 37.5 33v307z" />
    <glyph glyph-name="e" unicode="e" horiz-adv-x="374" 
d="M186.75 81c35.2822 0 45 26.873 45 55v60h117.5v-63c-3.75 -53 -23.75 -90 -68.75 -119c-22.5 -15 -53.75 -22 -95 -22c-81.25 0 -122.5 36 -142.5 72c-11.25 21 -18.75 45 -20 72v275c3.75 53 25 92 70 122c21.25 15 52.5 22 93.75 22c81.25 0 122.5 -36 142.5 -71
c11.25 -21 18.75 -44 20 -70v-159h-208.75v-119c1.62598 -27.3135 12.5293 -55 46.25 -55zM186.75 467c-35.5752 0 -43.1748 -28.9434 -46.25 -56v-77h91.25v77c0 28.165 -9.07324 56 -45 56z" />
    <glyph glyph-name="f" unicode="f" horiz-adv-x="307" 
d="M227.75 739c20 0 33.75 -1 43.75 -4l15 -3v-87c-10.3203 2.75195 -25.209 4 -37.5 4c-31.6113 0 -40 -35.6162 -40 -64v-38h63.75v-91h-63.75v-456h-126.25v456h-63.75v91h63.75v15c0 86.9961 19.5176 177 145 177z" />
    <glyph glyph-name="g" unicode="g" horiz-adv-x="458" 
d="M207.75 462c-29.2344 0 -39.5469 -26.2578 -36.25 -50v-150c-1.58691 -24.1162 6.73438 -49 36.25 -49c31.1699 0 38.75 24.5244 38.75 49v150c0 24.374 -8.14551 50 -38.75 50zM364 453c5 -11 6.25 -27 6.25 -34v-155c-3.75 -51 -23.4434 -90.1934 -70 -114
c-38.6221 -19.749 -133.75 -10 -133.75 -45c0 -25.8115 64.0479 -29.9326 96.25 -34c91.6494 -9.16504 175 -38.833 175 -127c0 -99.2461 -99.4922 -140 -216.25 -140c-109.662 0 -202.5 21.0664 -202.5 106l122.5 17c0 -21 23.75 -38 82.5 -38
c36.5049 0 96.25 9.49805 96.25 37c0 76.1582 -278.75 32 -278.75 140c0 34.8154 47.9746 68.8691 78.75 82c-36.25 19 -53.75 49 -62.5 74c-5 15 -8.75 30 -10 45v149c5 51 25 88 68.75 117c21.25 15 52.5 22 91.25 22c63.75 0 102.5 -23 126.25 -50
c18.2207 14.5762 65.791 50 103.75 50v-90c-33.75 0 -58.75 -5 -73.75 -12z" />
    <glyph glyph-name="h" unicode="h" horiz-adv-x="374" 
d="M347.75 448v-448h-126.25v433c0 21 -15 24 -30 24c-20.2354 0 -32.6172 -14.4893 -41.25 -26v-431h-126.25v735h126.25v-234c2.5 1 7.5 5 15 11c17.5078 14.0059 49.2363 43 87.5 43c64.3838 0 95 -57.6201 95 -107z" />
    <glyph glyph-name="i" unicode="i" horiz-adv-x="176" 
d="M24 735h126.25v-101h-126.25v101zM24 0v547h126.25v-547h-126.25z" />
    <glyph glyph-name="j" unicode="j" horiz-adv-x="245" 
d="M92.75 735h126.25v-101h-126.25v101zM19 -182v93c9.48438 -2.5293 24.6055 -4 35 -4c31.1582 0 38.75 29.332 38.75 57v583h126.25v-561c0 -28 0 -72 -17.5 -108c-17.5 -37 -56.25 -66 -127.5 -66c-28.3965 0 -38.8672 1.69824 -55 6z" />
    <glyph glyph-name="k" unicode="k" horiz-adv-x="383" 
d="M150.25 735v-349.001h6.25c22.6309 53.8955 45.8652 107.308 68.75 161h113.75l-91.25 -178l115 -369h-121.25c-21.7383 76.2764 -42.9385 152.983 -65 229.001h-6.25l-3.75 -8l-16.25 -32v-189h-126.25v735h126.25z" />
    <glyph glyph-name="l" unicode="l" horiz-adv-x="252" 
d="M159 153c0 -39.959 28.9277 -58.9795 72.5 -54v-106c-137.71 -6.88574 -207.5 45.4219 -207.5 143v599h135v-582z" />
    <glyph glyph-name="m" unicode="m" horiz-adv-x="576" 
d="M150.25 431v-431h-126.25v547h126.25v-46c2.5 1 7.5 5 15 11c13.75 11 35 26 57.5 36c11.25 5 21.25 7 32.5 7c45 0 71.25 -29 85 -61c5 3 11.25 8 20 15c16.25 14 37.5 27 61.25 38c11.25 5 22.5 8 33.75 8c64.3838 0 95 -57.6201 95 -107v-448h-118.75v433
c0 21 -20 24 -33.75 24c-20.8555 0 -38.7803 -14.374 -47.5 -26v-431h-118.75v433c0 21 -20 24 -33.75 24c-20.8555 0 -38.7803 -14.374 -47.5 -26z" />
    <glyph glyph-name="n" unicode="n" horiz-adv-x="374" 
d="M347.75 448v-448h-126.25v433c0 21 -15 24 -30 24c-20.2354 0 -32.6172 -14.4893 -41.25 -26v-431h-126.25v547h126.25v-46c2.5 1 7.5 5 15 11c17.5078 14.0059 49.2363 43 87.5 43c64.3838 0 95 -57.6201 95 -107z" />
    <glyph glyph-name="o" unicode="o" horiz-adv-x="372" 
d="M346.75 133c-3.75 -53 -23.75 -90 -67.5 -119c-22.5 -15 -53.75 -22 -95 -22c-81.25 0 -121.25 36 -141.25 72c-11.25 21 -18.75 45 -20 72v275c3.75 53 23.75 92 67.5 122c21.25 15 52.5 22 93.75 22c81.25 0 122.5 -36 142.5 -71c11.25 -21 18.75 -44 20 -70v-281z
M184.25 467c-33.4102 0 -45.6133 -28.6182 -42.501 -56v-275c-1.66113 -27.916 8.79395 -55 42.501 -55c34.207 0 46.9385 26.9365 43.75 55v275c1.67578 28.1523 -7.88574 56 -43.75 56z" />
    <glyph glyph-name="p" unicode="p" horiz-adv-x="374" 
d="M347.75 448v-349c0 -50.8525 -32.7949 -107 -97.5 -107c-40.8457 0 -75.3633 26.4805 -100 44v-224h-126.25v735h126.25v-36c21.25 16 40 28 65 37c11.25 5 23.75 7 35 7c65.7383 0 97.5 -56.3916 97.5 -107zM150.25 120c0 -16 18.75 -33 37.5 -33s33.75 14 33.75 33v307
c0 19 -15 33 -33.75 33s-37.5 -14 -37.5 -33v-307z" />
    <glyph glyph-name="q" unicode="q" 
d="M23 99v349c0 49.3633 31.9727 107 97.5 107c40.8457 0 75.3633 -26.4805 100 -44v36h126.25v-735h-126.25v224c-21.25 -16 -40 -28 -63.75 -37c-12.5 -5 -25 -7 -36.25 -7c-64.4434 0 -97.5 57.4307 -97.5 107zM220.5 427c0 19 -18.75 33 -37.5 33s-33.75 -14 -33.75 -33
v-307c0 -19 15 -33 33.75 -33s37.5 17 37.5 33v307z" />
    <glyph glyph-name="r" unicode="r" horiz-adv-x="298" 
d="M276.5 443c-57.5 0 -124.178 -10.2734 -126.25 -63v-380h-126.25v547h126.25v-61c1.05371 58.0879 78.75 68 126.25 69v-112z" />
    <glyph glyph-name="s" unicode="s" horiz-adv-x="379" 
d="M196.5 471c-32.8438 0 -38.75 -38.0225 -38.75 -63.999c0 -17 11.25 -35 27.5 -51c57.623 -61.4648 171.25 -108.129 171.25 -214c0 -81.6709 -53.8809 -150 -161.25 -150c-127.162 0 -176.25 78.1807 -176.25 167h117.5c0 -36.3174 11.3848 -83 58.75 -83
c36.25 0 43.75 34 43.75 66c0 33 -40 66 -78.75 97c-54.3945 41.7031 -120 86.2725 -120 168c0 80.0391 46.6035 146.214 153.75 148c125.626 1.70312 161.25 -60.3057 161.25 -148.001h-117.5c0 29.8066 -2.75586 64 -41.25 64z" />
    <glyph glyph-name="t" unicode="t" horiz-adv-x="317" 
d="M249 94c16.2363 0 32.7393 1.29785 46.25 4v-99c-21.293 -3.40723 -36.6406 -7 -67.5 -7c-128.023 0 -145 93.5029 -145 184v280h-63.75v91h63.75v135h126.25v-135h86.25v-91h-86.25v-272c0 -32.6426 0 -90 40 -90z" />
    <glyph glyph-name="u" unicode="u" horiz-adv-x="374" 
d="M24 99l0.00195312 448h126.25v-433c0 -21 15 -24 30 -24c20.4219 0 32.3652 14.1543 41.248 26v431h126.25v-547h-126.25v46c-2.5 -1 -7.5 -5 -13.75 -10c-18.5508 -14.8408 -50.6094 -44 -88.75 -44c-63.3438 0 -95 57.3828 -95 107z" />
    <glyph glyph-name="v" unicode="v" horiz-adv-x="387" 
d="M130.25 0l-111.25 547h122.5c15.5264 -117.246 30.0645 -235.282 46.25 -352h10l5 35l41.25 317h122.5l-111.25 -547h-125z" />
    <glyph glyph-name="w" unicode="w" horiz-adv-x="567" 
d="M340.25 0c-18.4355 97.252 -35.9121 195.269 -55 291.999h-5l-6.25 -31l-48.75 -261h-105l-101.25 547h115c15.1621 -105.536 28.8594 -212.245 45 -316.999h7.5l6.25 31l52.5 286h75c19.7168 -105.56 38.2344 -212.078 58.75 -317h7.5l5 31l40 286h115l-101.25 -547
h-105z" />
    <glyph glyph-name="x" unicode="x" horiz-adv-x="397" 
d="M136.5 282l-107.5 265.001h118.75c15.9258 -47.9268 34.7705 -93.5176 48.75 -143.001h2.5l3.75 15l45 128h118.75l-107.5 -265l117.5 -282h-122.5c-17.9258 51.3262 -39.3799 99.8301 -55 153h-2.5l-3.75 -15l-51.25 -138h-122.5z" />
    <glyph glyph-name="y" unicode="y" horiz-adv-x="397" 
d="M135.25 -16l-116.25 563h123.75c17.0225 -121.715 37.9404 -240.313 52.5 -364h5l2.5 28l50 336h123.75l-121.25 -588c-11.8184 -73.752 -73.2041 -155 -175 -155h-15c-11.25 0 -26.25 1 -41.25 2v90c1.25 -1 3.75 -1 7.5 -1c60.9883 -9.75781 103.75 39.8916 103.75 89z
" />
    <glyph glyph-name="z" unicode="z" horiz-adv-x="351" 
d="M20 82l173.75 373h-146.25v92h280v-82l-173.75 -373h173.75v-92h-307.5v82z" />
    <glyph glyph-name="braceleft" unicode="{" horiz-adv-x="388" 
d="M219 563v-194c0 -53 -28.75 -84 -77.5 -108c48.75 -25 77.5 -56 77.5 -108v-194c0 -81.459 43.458 -96 147.5 -96v-84c-191.15 -1.98633 -267.5 28.7969 -267.5 180v194c0 31.7939 -31.0039 66.5488 -80 68.001v80c50.0771 0 80 35.4902 80 68v194
c0 151.204 76.3516 181.985 267.5 179.999v-84c-104.027 0 -147.5 -14.543 -147.5 -96z" />
    <glyph glyph-name="bar" unicode="|" horiz-adv-x="168" 
d="M25 -250v1076h117.5v-1076h-117.5z" />
    <glyph glyph-name="braceright" unicode="}" horiz-adv-x="388" 
d="M368.5 301v-80.001c-48.9346 -1.4502 -80 -36.3223 -80 -68v-194c0 -152.099 -75.3438 -181.996 -267.5 -180v84c104.027 0 147.5 14.543 147.5 96v194c0 52 28.75 83 77.5 108c-48.75 24 -77.5 55 -77.5 108v194c0 81.459 -43.458 96 -147.5 96v84
c192.177 1.99707 267.5 -27.9033 267.5 -179.999v-194c0 -32.6367 29.8721 -68 80 -68z" />
    <glyph glyph-name="asciitilde" unicode="~" horiz-adv-x="725" 
d="M619.251 814l82.499 -28c-26.25 -57 -61.25 -97 -110 -128c-25 -15 -55 -23 -88.75 -23c-70 0 -117.5 24 -166.25 49c-35 19 -70 36 -108.75 36c-43.75 0 -73.75 -21 -93.75 -44c-11.25 -13 -21.25 -27 -28.75 -44l-82.5 28c23.75 56 60 95 111.25 127
c26.25 15 57.5 23 93.75 23c75 0 120 -26 168.75 -50c33.75 -19 67.5 -35 106.25 -35c63.7783 0 95.9121 49.4844 116.251 89z" />
    <glyph glyph-name="exclamdown" unicode="&#xa1;" horiz-adv-x="188" 
d="M28.5 547h131.25v-111h-131.25v111zM54.75 349h78.75l33.75 -537h-146.25z" />
    <glyph glyph-name="cent" unicode="&#xa2;" horiz-adv-x="362" 
d="M340.75 492v-43h-115v66c0 33 -16.25 44 -45 44c-33.75 0 -43.75 -24 -43.75 -44v-295c0 -20 10 -44 43.75 -44c28.75 0 45 11 45 44v76h115v-53c0 -104 -40 -146 -116.25 -155v-148h-75v147c-75 9 -127.5 53 -127.5 161v239c0 107 52.5 151 127.5 160v118h75v-119
c89.0117 -11.4854 116.25 -63.041 116.25 -154z" />
    <glyph glyph-name="sterling" unicode="&#xa3;" horiz-adv-x="517" 
d="M257.75 643c-42.127 0 -55 -47.3555 -55 -82c0 -53 21.25 -109 42.5 -165l3.75 -12h128.75v-67h-106.25c10 -33 15 -62 15 -85c0 -27 -11.25 -68 -35 -107c16.25 -6 30 -12 42.5 -18c11.25 -7 25 -10 38.75 -11c11.25 1 22.5 8 32.5 22c10 13 16.25 37 17.5 71l115 -11
c-10 -123 -73.75 -186 -153.75 -186c-30 0 -58.75 13 -87.5 25s-55 25 -78.75 25c-35.6191 0 -60.8066 -27.9355 -70 -50l-88.75 39c18.75 33 41.25 59 72.5 82c16.25 11 35 19 56.25 22c13.75 31 22.5 69 22.5 97c0 25 -7.5 54 -18.75 85h-115v67h90l-3.75 10
c-23.75 63 -47.5 126 -47.5 167c0 96.1396 54.3652 180.173 180 182c150.549 1.85254 202.5 -83.5303 202.5 -196h-130c0 47.2051 -11.1855 96 -70 96z" />
    <glyph glyph-name="currency" unicode="&#xa4;" horiz-adv-x="469" 
d="M233.568 467c-33.4102 0 -45.6133 -28.6182 -42.502 -56v-275c-1.66016 -27.916 8.79492 -55 42.502 -55c34.207 0 46.9395 26.9365 43.75 55v275c1.67578 28.1523 -7.88477 56 -43.75 56zM103.566 46.835c-17.9785 23.3916 -29.6445 54.4844 -31.25 89.1641v275
c2.45898 34.7617 11.9082 63.501 30.4648 87.6279l-82.7812 66.2246l72.4805 57.9834l90.4785 -72.3828c14.748 3.06445 31.6172 4.54785 50.6055 4.54785c19.0781 0 35.9512 -1.98438 50.8613 -5.47461l91.6387 73.3115l72.4805 -57.9834l-82.3945 -65.915
c17.1523 -22.3975 28.3672 -52.7266 29.916 -84.9375v-281c-2.47656 -34.9951 -12.0371 -63.0146 -30.8398 -86.3613l83.3203 -66.6562l-72.4805 -57.9834l-92.8965 74.3184c-14.5957 -2.90918 -31.0938 -4.31836 -49.6035 -4.31836
c-17.7656 0 -33.5586 1.7207 -47.6016 4.78711l-93.4844 -74.7871l-72.4785 57.9834z" />
    <glyph glyph-name="yen" unicode="&#xa5;" horiz-adv-x="448" 
d="M49 233h107.5v67h-107.5v67h90l-120 368h132.5l67.5 -235l3.75 -7h2.5l3.75 7l67.5 235h132.5l-120 -368h90v-67h-107.5v-67h107.5v-67h-107.5v-166h-135v166h-107.5v67z" />
    <glyph glyph-name="brokenbar" unicode="&#xa6;" horiz-adv-x="168" 
d="M142.5 826v-466l-117.5 -3v469h117.5zM25 246h117.5v-496h-117.5v496z" />
    <glyph glyph-name="dieresis" unicode="&#xa8;" horiz-adv-x="342" 
d="M25 735h116.25v-98h-116.25v98zM201.25 735h116.25v-98h-116.25v98z" />
    <glyph glyph-name="copyright" unicode="&#xa9;" horiz-adv-x="979" 
d="M488.75 743c260 0 470 -168 470 -376c0 -207.008 -210.659 -375 -470 -375c-258.098 0 -468.75 168.526 -468.75 375c0 207.47 209.999 376 468.75 376zM488.75 50c217.205 0 397.5 142.996 397.5 317c0 175.357 -178.32 318 -397.5 318
c-217.496 0 -396.25 -144.242 -396.25 -318c0 -172.407 180.723 -317 396.25 -317zM487.5 142c-60 0 -88.751 24 -103.751 48c-8.75 14 -13.75 30 -13.75 48v259c0 54.0801 41.8916 96 117.5 96c58.75 0 85 -24 100 -48c8.75 -14 13.75 -30 15 -48v-61h-83.75v61
c1.78223 15.6855 -7.5957 31 -30 31c-20.7324 0 -30 -15.7139 -30 -31v-259c0 -16.4756 8.73145 -31 30 -31c21.7383 0 33.4561 14.416 30.001 31v61h83.75v-61c-5.51562 -52.9424 -38.4062 -96 -115 -96z" />
    <glyph glyph-name="guillemotleft" unicode="&#xab;" horiz-adv-x="591" 
d="M252 395l316.25 232v-97l-186.25 -174l186.25 -174v-97l-316.25 232v78zM22 395l316.25 232v-97l-186.25 -174l186.25 -174v-97l-316.25 232v78z" />
    <glyph glyph-name="logicalnot" unicode="&#xac;" horiz-adv-x="407" 
d="M381 317v-154h-118.75v59h-236.25v95h355z" />
    <glyph glyph-name="uni00AD" unicode="&#xad;" horiz-adv-x="359" 
d="M27 317h306.25v-95h-306.25v95z" />
    <glyph glyph-name="registered" unicode="&#xae;" horiz-adv-x="979" 
d="M488.75 743c260 0 470 -168 470 -376c0 -207.008 -210.659 -375 -470 -375c-258.098 0 -468.75 168.526 -468.75 375c0 207.47 209.999 376 468.75 376zM488.75 50c217.205 0 397.5 142.996 397.5 317c0 175.357 -178.32 318 -397.5 318
c-217.496 0 -396.25 -144.242 -396.25 -318c0 -172.407 180.723 -317 396.25 -317zM488.75 582c100 0 141.25 -47 141.25 -126c0 -43 -3.75 -75 -53.75 -108l65 -195h-92.5l-57.5 178h-33.75v-178h-88.75v429h120zM545 455c0 37.125 -10.3369 64 -60 64h-27.5v-126h27.5
c49.5762 0 60 25.124 60 62z" />
    <glyph glyph-name="macron" unicode="&#xaf;" horiz-adv-x="292" 
d="M25 721h242.5v-79h-242.5v79z" />
    <glyph glyph-name="acute" unicode="&#xb4;" horiz-adv-x="242" 
d="M219.25 727l-98.75 -90h-97.5l65 90h131.25z" />
    <glyph glyph-name="mu" unicode="&#xb5;" horiz-adv-x="374" 
d="M222.5 46v-46h126.25v547h-126.25v-431c-8.88477 -11.8457 -20.8281 -26 -41.25 -26c-15 0 -30 3 -30 24v433h-126.25v-654l126.25 17v88.2119c24.2383 9.36816 62.5 31.7881 71.25 47.7881z" />
    <glyph glyph-name="paragraph" unicode="&#xb6;" horiz-adv-x="570" 
d="M410 735h135v-735h-135v735zM20 515c0 -138.297 85.8867 -221 237.5 -221v-294h135v735h-135c-153.773 0 -237.5 -80.4238 -237.5 -220z" />
    <glyph glyph-name="periodcentered" unicode="&#xb7;" horiz-adv-x="183" 
d="M26 428h131.25v-111h-131.25v111z" />
    <glyph glyph-name="cedilla" unicode="&#xb8;" horiz-adv-x="162" 
d="M133 -123l-27.5 -65h-63.75l25 65h-38.75v69h105v-69z" />
    <glyph glyph-name="guillemotright" unicode="&#xbb;" horiz-adv-x="591" 
d="M339.25 395v-78l-316.25 -232v97l186.25 174l-186.25 174v97zM569.25 395v-78l-316.25 -232v97l186.25 174l-186.25 174v97z" />
    <glyph glyph-name="questiondown" unicode="&#xbf;" horiz-adv-x="394" 
d="M267.5 436h-131.25v111h131.25v-111zM265 -27l108.75 -41c-8.75 -16 -27.5 -47 -57.5 -74c-31.25 -28 -77.5 -51 -133.75 -50c-107.646 1.53809 -162.5 67.7471 -162.5 140c0 41 22.5 71 48.75 107c34.1152 45.4873 75 93.6973 75 169v125h116.25v-125
c0 -97.9023 -41.0068 -164.01 -83.75 -221c-17.5 -23 -28.75 -42 -32.5 -55c-3.71973 -20.8301 12.0322 -46 41.25 -46c40.3174 0 71.4648 45.9629 80 71z" />
    <glyph glyph-name="Agrave" unicode="&#xc0;" horiz-adv-x="481" 
d="M224 890l65 -90h-97.5l-98.75 90h131.25zM19 0l138.75 735h165l138.75 -735h-131.25l-25 150h-130l-25 -150h-131.25zM244 515h-7.5l-3.75 -19l-38.75 -232h92.5c-14.3301 83.5361 -27.3301 168.136 -42.5 251z" />
    <glyph glyph-name="Aacute" unicode="&#xc1;" horiz-adv-x="481" 
d="M381.5 890l-98.75 -90h-97.5l65 90h131.25zM19 0l138.75 735h165l138.75 -735h-131.25l-25 150h-130l-25 -150h-131.25zM244 515h-7.5l-3.75 -19l-38.75 -232h92.5c-14.3301 83.5361 -27.3301 168.136 -42.5 251z" />
    <glyph glyph-name="Acircumflex" unicode="&#xc2;" horiz-adv-x="481" 
d="M307.75 890l86.25 -90h-115l-38.75 35l-37.5 -35h-115l86.25 90h133.75zM19 0l138.75 735h165l138.75 -735h-131.25l-25 150h-130l-25 -150h-131.25zM244 515h-7.5l-3.75 -19l-38.75 -232h92.5c-14.3301 83.5361 -27.3301 168.136 -42.5 251z" />
    <glyph glyph-name="Atilde" unicode="&#xc3;" horiz-adv-x="481" 
d="M185.249 890c39.9805 0 73.1953 -17.0371 110 -19c26.9629 0 49.2031 7.81738 66.25 16v-74c-15.6328 -11.1162 -39.6289 -19 -66.25 -19c-18.75 0 -37.5 3 -53.75 9c-17.5 6 -36.25 9 -56.25 10c-26.9629 0 -49.2031 -7.81738 -66.25 -16v74
c15.6348 9.72852 39.627 19 66.25 19zM19 0l138.75 735h165l138.75 -735h-131.25l-25 150h-130l-25 -150h-131.25zM244 515h-7.5l-3.75 -19l-38.75 -232h92.5c-14.3301 83.5361 -27.3301 168.136 -42.5 251z" />
    <glyph glyph-name="Adieresis" unicode="&#xc4;" horiz-adv-x="481" 
d="M94 898h116.25v-98h-116.25v98zM270.25 898h116.25v-98h-116.25v98zM19 0l138.75 735h165l138.75 -735h-131.25l-25 150h-130l-25 -150h-131.25zM244 515h-7.5l-3.75 -19l-38.75 -232h92.5c-14.3301 83.5361 -27.3301 168.136 -42.5 251z" />
    <glyph glyph-name="Aring" unicode="&#xc5;" horiz-adv-x="481" 
d="M147.75 860c0 41 42.5 70 93.75 70s92.5 -29 92.5 -70s-41.25 -70 -92.5 -70s-93.75 29 -93.75 70zM195.25 860c0 -19 22.5 -35 46.25 -35s46.25 16 46.25 35s-22.5 35 -46.25 35s-46.25 -16 -46.25 -35zM19 0l138.75 735h165l138.75 -735h-131.25l-25 150h-130l-25 -150
h-131.25zM244 515h-7.5l-3.75 -19l-38.75 -232h92.5c-14.3301 83.5361 -27.3301 168.136 -42.5 251z" />
    <glyph glyph-name="AE" unicode="&#xc6;" horiz-adv-x="677" 
d="M346.5 150h-138.75l-55 -150h-133.75l256.25 735h380v-111h-173.75v-193h125v-118h-125v-202h173.75v-111h-308.75v150zM249 264h97.5v251h-6.25z" />
    <glyph glyph-name="Ccedilla" unicode="&#xc7;" horiz-adv-x="407" 
d="M205.5 638c-36.0264 0 -44.2588 -28.0703 -47.5 -54v-433c1.58984 -26.7051 13.8467 -54 47.5 -54c39.9863 0 51.25 23.666 51.25 54v101h126.25v-101c-1.25 -30 -8.75 -57 -22.5 -80c-24.7891 -44.0703 -74.2627 -79 -157.5 -79c-45 0 -80 9 -105 25
c-47.1953 28.3164 -72.5117 74.2812 -75 134v433c1.25 29 8.75 56 22.5 79c25.2852 44.9531 72.2773 80 157.5 80c45 0 78.75 -10 103.75 -25c47.2861 -28.3711 73.6924 -74.668 76.25 -134v-101h-126.25v101c0 28.2783 -12.666 54 -51.25 54zM250.5 -123l-27.5 -65h-63.75
l25 65h-38.75v69h105v-69z" />
    <glyph glyph-name="Egrave" unicode="&#xc8;" horiz-adv-x="355" 
d="M172.75 890l65 -90h-97.5l-98.75 90h131.25zM24 735h308.75v-111h-173.75v-193h125v-118h-125v-202h173.75v-111h-308.75v735z" />
    <glyph glyph-name="Eacute" unicode="&#xc9;" horiz-adv-x="355" 
d="M314 890l-98.75 -90h-97.5l65 90h131.25zM24 735h308.75v-111h-173.75v-193h125v-118h-125v-202h173.75v-111h-308.75v735z" />
    <glyph glyph-name="Ecircumflex" unicode="&#xca;" horiz-adv-x="355" 
d="M245.25 890l86.25 -90h-115l-38.75 35l-37.5 -35h-115l86.25 90h133.75zM24 735h308.75v-111h-173.75v-193h125v-118h-125v-202h173.75v-111h-308.75v735z" />
    <glyph glyph-name="Edieresis" unicode="&#xcb;" horiz-adv-x="355" 
d="M31.5 898h116.25v-98h-116.25v98zM207.75 898h116.25v-98h-116.25v98zM24 735h308.75v-111h-173.75v-193h125v-118h-125v-202h173.75v-111h-308.75v735z" />
    <glyph glyph-name="Igrave" unicode="&#xcc;" horiz-adv-x="244" 
d="M150.25 890l65 -90h-97.5l-98.75 90h131.25zM82.75 735h135v-735h-135v735z" />
    <glyph glyph-name="Iacute" unicode="&#xcd;" horiz-adv-x="243" 
d="M222.75 890l-98.75 -90h-97.5l65 90h131.25zM24 735h135v-735h-135v735z" />
    <glyph glyph-name="Icircumflex" unicode="&#xce;" horiz-adv-x="345" 
d="M239 890l86.25 -90h-115l-38.75 35l-37.5 -35h-115l86.25 90h133.75zM104 735h135v-735h-135v735z" />
    <glyph glyph-name="Idieresis" unicode="&#xcf;" horiz-adv-x="331" 
d="M19 898h116.25v-98h-116.25v98zM195.25 898h116.25v-98h-116.25v98zM97.75 735h135v-735h-135v735z" />
    <glyph glyph-name="Eth" unicode="&#xd0;" horiz-adv-x="455" 
d="M19 431h37.5v304h106.25c125 0 192.5 -20 228.75 -76c35 -56 40 -148 40 -292s-5 -235 -40 -291c-36.25 -56 -103.75 -76 -228.75 -76h-106.25v320h-37.5v111zM191.5 431h51.25v-111h-51.25v-212c46.25 0 72.5 4 86.25 40c6.25 17 11.25 43 12.5 78s1.25 82 1.25 142
s0 107 -1.25 142c-1.25 34 -6.25 60 -12.5 78c-13.75 35 -40 39 -86.25 39v-196z" />
    <glyph glyph-name="Ntilde" unicode="&#xd1;" horiz-adv-x="444" 
d="M166.5 890c39.9805 0 73.1953 -17.0371 110 -19c26.9629 0 49.2031 7.81738 66.25 16v-74c-15.6328 -11.1162 -39.6289 -19 -66.25 -19c-18.75 0 -37.5 3 -53.75 9c-17.5 6 -36.25 9 -56.25 10c-26.9629 0 -49.2031 -7.81738 -66.25 -16v74
c15.6348 9.72852 39.627 19 66.25 19zM155.25 417h-7.5v-417h-123.75v735h120c47.4023 -139.079 95.6191 -277.506 142.5 -417.001h7.5v417h123.75v-735h-120c-47.4023 139.079 -95.6191 277.506 -142.5 417.001z" />
    <glyph glyph-name="Ograve" unicode="&#xd2;" horiz-adv-x="408" 
d="M186.75 890l65 -90h-97.5l-98.75 90h131.25zM383 151c-1.25 -30 -8.75 -57 -22.5 -80c-24.7891 -44.0703 -74.2627 -79 -157.5 -79c-45 0 -80 9 -105 25c-47.1953 28.3164 -72.5117 74.2812 -75 134v433c1.25 29 8.75 56 22.5 79c25.2852 44.9531 72.2773 80 157.5 80
c45 0 78.75 -10 103.75 -25c47.2861 -28.3711 73.6924 -74.668 76.25 -134v-433zM203 638c-34.7549 0 -45 -27.6455 -45 -54v-433c0 -27.3291 11.3066 -54 45 -54c34.7549 0 45 25.9609 45 54v433c0 26.9004 -9.83496 54 -45 54z" />
    <glyph glyph-name="Oacute" unicode="&#xd3;" horiz-adv-x="408" 
d="M351.75 890l-98.75 -90h-97.5l65 90h131.25zM383 151c-1.25 -30 -8.75 -57 -22.5 -80c-24.7891 -44.0703 -74.2627 -79 -157.5 -79c-45 0 -80 9 -105 25c-47.1953 28.3164 -72.5117 74.2812 -75 134v433c1.25 29 8.75 56 22.5 79c25.2852 44.9531 72.2773 80 157.5 80
c45 0 78.75 -10 103.75 -25c47.2861 -28.3711 73.6924 -74.668 76.25 -134v-433zM203 638c-34.7549 0 -45 -27.6455 -45 -54v-433c0 -27.3291 11.3066 -54 45 -54c34.7549 0 45 25.9609 45 54v433c0 26.9004 -9.83496 54 -45 54z" />
    <glyph glyph-name="Ocircumflex" unicode="&#xd4;" horiz-adv-x="408" 
d="M270.5 890l86.25 -90h-115l-38.75 35l-37.5 -35h-115l86.25 90h133.75zM383 151c-1.25 -30 -8.75 -57 -22.5 -80c-24.7891 -44.0703 -74.2627 -79 -157.5 -79c-45 0 -80 9 -105 25c-47.1953 28.3164 -72.5117 74.2812 -75 134v433c1.25 29 8.75 56 22.5 79
c25.2852 44.9531 72.2773 80 157.5 80c45 0 78.75 -10 103.75 -25c47.2861 -28.3711 73.6924 -74.668 76.25 -134v-433zM203 638c-34.7549 0 -45 -27.6455 -45 -54v-433c0 -27.3291 11.3066 -54 45 -54c34.7549 0 45 25.9609 45 54v433c0 26.9004 -9.83496 54 -45 54z" />
    <glyph glyph-name="Otilde" unicode="&#xd5;" horiz-adv-x="408" 
d="M147.999 890c39.9805 0 73.1953 -17.0371 110 -19c26.9629 0 49.2031 7.81738 66.25 16v-74c-15.6328 -11.1162 -39.6289 -19 -66.25 -19c-18.75 0 -37.5 3 -53.75 9c-17.5 6 -36.25 9 -56.25 10c-26.9629 0 -49.2031 -7.81738 -66.25 -16v74
c15.6348 9.72852 39.627 19 66.25 19zM383 151c-1.25 -30 -8.74902 -57 -22.499 -80c-24.79 -44.0703 -74.2637 -79 -157.501 -79c-45 0 -80 9 -105 25c-47.1943 28.3164 -72.5127 74.2812 -75 134v433c1.25 29 8.75 56 22.5 79c25.2861 44.9531 72.2783 80 157.5 80
c45 0 78.75 -10 103.75 -25c47.2861 -28.3711 73.6924 -74.668 76.25 -134v-433zM203.001 638c-34.7539 0 -45 -27.6455 -45 -54v-433c0 -27.3291 11.3066 -54 45 -54c34.7549 0 45 25.9609 45 54v433c0 26.9004 -9.83496 54 -45 54z" />
    <glyph glyph-name="Odieresis" unicode="&#xd6;" horiz-adv-x="408" 
d="M56.75 898h116.25v-98h-116.25v98zM233 898h116.25v-98h-116.25v98zM383 151c-1.25 -30 -8.75 -57 -22.5 -80c-24.7891 -44.0703 -74.2627 -79 -157.5 -79c-45 0 -80 9 -105 25c-47.1953 28.3164 -72.5117 74.2812 -75 134v433c1.25 29 8.75 56 22.5 79
c25.2852 44.9531 72.2773 80 157.5 80c45 0 78.75 -10 103.75 -25c47.2861 -28.3711 73.6924 -74.668 76.25 -134v-433zM203 638c-34.7549 0 -45 -27.6455 -45 -54v-433c0 -27.3291 11.3066 -54 45 -54c34.7549 0 45 25.9609 45 54v433c0 26.9004 -9.83496 54 -45 54z" />
    <glyph glyph-name="Oslash" unicode="&#xd8;" horiz-adv-x="411" 
d="M21 -10l28.75 77c-13.75 20 -17.5 41 -21.25 57c-1.25 9 -2.5 18 -2.5 27v433c1.25 29 8.75 56 22.5 79c25.2852 44.9531 72.2773 80 157.5 80c40 0 71.25 -8 96.25 -21l8.75 23h75l-27.5 -73c13.75 -21 20 -43 23.75 -60c2.5 -10 3.75 -19 3.75 -28v-433
c-1.25 -30 -8.75 -57 -22.5 -80c-24.7891 -44.0703 -74.2627 -79 -157.5 -79c-41.25 0 -73.75 8 -97.5 21l-8.75 -23h-78.75zM161 584v-229l90 234c0 21.5439 -12.6211 49 -45 49c-34.7549 0 -45 -27.6455 -45 -54zM251 151v238l-90 -238c0 -27.3291 11.3066 -54 45 -54
c34.7549 0 45 25.9609 45 54z" />
    <glyph glyph-name="Ugrave" unicode="&#xd9;" horiz-adv-x="409" 
d="M194.25 890l65 -90h-97.5l-98.75 90h131.25zM203 97c34.7549 0 45 25.9609 45 54v584h135v-584c-1.25 -30 -8.75 -57 -22.5 -80c-24.7891 -44.0703 -74.2627 -79 -157.5 -79c-45 0 -80 9 -105 25c-47.1953 28.3164 -72.5117 74.2812 -75 134v584h135v-584
c0 -27.3291 11.3066 -54 45 -54z" />
    <glyph glyph-name="Uacute" unicode="&#xda;" horiz-adv-x="409" 
d="M358 890l-98.75 -90h-97.5l65 90h131.25zM203 97c34.7549 0 45 25.9609 45 54v584h135v-584c-1.25 -30 -8.75 -57 -22.5 -80c-24.7891 -44.0703 -74.2627 -79 -157.5 -79c-45 0 -80 9 -105 25c-47.1953 28.3164 -72.5117 74.2812 -75 134v584h135v-584
c0 -27.3291 11.3066 -54 45 -54z" />
    <glyph glyph-name="Ucircumflex" unicode="&#xdb;" horiz-adv-x="409" 
d="M270.5 890l86.25 -90h-115l-38.75 35l-37.5 -35h-115l86.25 90h133.75zM203 97c34.7549 0 45 25.9609 45 54v584h135v-584c-1.25 -30 -8.75 -57 -22.5 -80c-24.7891 -44.0703 -74.2627 -79 -157.5 -79c-45 0 -80 9 -105 25c-47.1953 28.3164 -72.5117 74.2812 -75 134
v584h135v-584c0 -27.3291 11.3066 -54 45 -54z" />
    <glyph glyph-name="Udieresis" unicode="&#xdc;" horiz-adv-x="409" 
d="M56.75 898h116.25v-98h-116.25v98zM233 898h116.25v-98h-116.25v98zM203 97c34.7549 0 45 25.9609 45 54v584h135v-584c-1.25 -30 -8.75 -57 -22.5 -80c-24.7891 -44.0703 -74.2627 -79 -157.5 -79c-45 0 -80 9 -105 25c-47.1953 28.3164 -72.5117 74.2812 -75 134v584
h135v-584c0 -27.3291 11.3066 -54 45 -54z" />
    <glyph glyph-name="Yacute" unicode="&#xdd;" horiz-adv-x="449" 
d="M360.25 890l-98.75 -90h-97.5l65 90h131.25zM219 500l3.75 -7h2.5l3.75 7l67.5 235h132.5l-137.5 -422v-313h-135v313l-137.5 422h132.5z" />
    <glyph glyph-name="Thorn" unicode="&#xde;" horiz-adv-x="417" 
d="M396.5 397c0 -138.297 -85.8867 -221 -237.5 -221v-176h-135v735h133.75v-118h1.25c153.773 0 237.5 -80.4238 237.5 -220zM159 507v-221c89.6699 0 101.25 30.6416 101.25 107c0 76.1416 -11.2812 114 -101.25 114z" />
    <glyph glyph-name="germandbls" unicode="&#xdf;" horiz-adv-x="410" 
d="M195.25 743c228.13 0 177.5 -251 111.25 -289c86.25 -61 170 -454 -111.25 -454v94c136.25 2 75 319 0 319v69c57.5 0 85 171 0 171c-31.25 0 -45 -23 -45 -50v-603h-126.25v603c0 82.8496 62.0664 140 171.25 140z" />
    <glyph glyph-name="agrave" unicode="&#xe0;" horiz-adv-x="391" 
d="M19 127c0 159.809 145 230 211.25 230v60c0 24.8906 -2.57617 50 -35 50c-31.4346 0 -36.25 -37.6289 -36.25 -87l-126.25 29c0 78.7441 71.7305 146 170 146c85.0293 0 153.75 -54.6201 153.75 -124v-336c0 -17 0 -71 15 -95h-130c-11.25 11 -11.25 37 -11.25 44
c-45 -81 -211.25 -64.5156 -211.25 83zM139 142c0 -78 91.25 -38 91.25 -9v131c-61.25 0 -91.25 -70 -91.25 -122zM182.75 727l65 -90h-97.5l-98.75 90h131.25z" />
    <glyph glyph-name="aacute" unicode="&#xe1;" horiz-adv-x="391" 
d="M19 127c0 159.809 145 230 211.25 230v60c0 24.8906 -2.57617 50 -35 50c-31.4346 0 -36.25 -37.6289 -36.25 -87l-126.25 29c0 78.7441 71.7305 146 170 146c85.0293 0 153.75 -54.6201 153.75 -124v-336c0 -17 0 -71 15 -95h-130c-11.25 11 -11.25 37 -11.25 44
c-45 -81 -211.25 -64.5156 -211.25 83zM139 142c0 -78 91.25 -38 91.25 -9v131c-61.25 0 -91.25 -70 -91.25 -122zM346.5 727l-98.75 -90h-97.5l65 90h131.25z" />
    <glyph glyph-name="acircumflex" unicode="&#xe2;" horiz-adv-x="391" 
d="M19 127c0 159.809 145 230 211.25 230v60c0 24.8906 -2.57617 50 -35 50c-31.4346 0 -36.25 -37.6289 -36.25 -87l-126.25 29c0 78.7441 71.7305 146 170 146c85.0293 0 153.75 -54.6201 153.75 -124v-336c0 -17 0 -71 15 -95h-130c-11.25 11 -11.25 37 -11.25 44
c-45 -81 -211.25 -64.5156 -211.25 83zM139 142c0 -78 91.25 -38 91.25 -9v131c-61.25 0 -91.25 -70 -91.25 -122zM264 727l86.25 -90h-115l-38.75 35l-37.5 -35h-115l86.25 90h133.75z" />
    <glyph glyph-name="atilde" unicode="&#xe3;" horiz-adv-x="391" 
d="M19 127c0 159.809 145 230 211.25 230v60c0 24.8906 -2.57617 50 -35 50c-31.4346 0 -36.25 -37.6289 -36.25 -87l-126.25 29c0 78.7441 71.7305 146 170 146c85.0293 0 153.75 -54.6201 153.75 -124v-336c0 -17 0 -71 15 -95h-130c-11.25 11 -11.25 37 -11.25 44
c-45 -81 -211.25 -64.5156 -211.25 83zM139 142c0 -78 91.25 -38 91.25 -9v131c-61.25 0 -91.25 -70 -91.25 -122zM142.75 730c39.9805 0 73.1953 -17.0371 110 -19c26.9629 0 49.2031 7.81738 66.25 16v-74c-15.6328 -11.1162 -39.6289 -19 -66.25 -19
c-18.75 0 -37.5 3 -53.75 9c-17.5 6 -36.25 9 -56.25 10c-26.9629 0 -49.2031 -7.81738 -66.25 -16v74c15.6348 9.72852 39.6279 19 66.25 19z" />
    <glyph glyph-name="adieresis" unicode="&#xe4;" horiz-adv-x="391" 
d="M19 127c0 159.809 145 230 211.25 230v60c0 24.8906 -2.57617 50 -35 50c-31.4346 0 -36.25 -37.6289 -36.25 -87l-126.25 29c0 78.7441 71.7305 146 170 146c85.0293 0 153.75 -54.6201 153.75 -124v-336c0 -17 0 -71 15 -95h-130c-11.25 11 -11.25 37 -11.25 44
c-45 -81 -211.25 -64.5156 -211.25 83zM139 142c0 -78 91.25 -38 91.25 -9v131c-61.25 0 -91.25 -70 -91.25 -122zM51.5 735h116.25v-98h-116.25v98zM227.75 735h116.25v-98h-116.25v98z" />
    <glyph glyph-name="aring" unicode="&#xe5;" horiz-adv-x="391" 
d="M19 127c0 159.809 145 230 211.25 230v60c0 24.8906 -2.57617 50 -35 50c-31.4346 0 -36.25 -37.6289 -36.25 -87l-126.25 29c0 78.7441 71.7305 146 170 146c85.0293 0 153.75 -54.6201 153.75 -124v-336c0 -17 0 -71 15 -95h-130c-11.25 11 -11.25 37 -11.25 44
c-45 -81 -211.25 -64.5156 -211.25 83zM139 142c0 -78 91.25 -38 91.25 -9v131c-61.25 0 -91.25 -70 -91.25 -122zM104 694c0 41 42.5 70 93.75 70s92.5 -29 92.5 -70s-41.25 -70 -92.5 -70s-93.75 29 -93.75 70zM151.5 694c0 -19 22.5 -35 46.25 -35s46.25 16 46.25 35
s-22.5 35 -46.25 35s-46.25 -16 -46.25 -35z" />
    <glyph glyph-name="ae" unicode="&#xe6;" horiz-adv-x="582" 
d="M195.25 467c-31.4346 0 -36.25 -28.6289 -36.25 -55v-26h-126.25v23c0 78.7441 71.7305 146 170 146c33.75 0 65 -8 92.5 -25c23.75 15 55 25 98.75 25c81.25 0 122.5 -36 142.5 -71c11.25 -21 18.75 -44 20 -70v-159h-208.75v-119
c1.62598 -27.3135 12.5293 -55 46.25 -55c35.2822 0 45 26.873 45 55v60h117.5v-63c-3.75 -53 -23.75 -90 -68.75 -119c-22.5 -15 -53.75 -22 -95 -22c-76.25 0 -116.25 31 -137.5 64c-35 -36 -80 -64 -135 -64c-16.25 0 -42.5 5 -62.5 25c-21.25 19 -38.75 53 -38.75 110
c0 108.132 70.5098 163.412 151.25 197c31.25 13 55 22 60 33v60c0 24.8906 -2.57617 50 -35 50zM394 467c-35.5752 0 -43.1748 -28.9434 -46.25 -56v-77h91.25v77c0 28.165 -9.07324 56 -45 56zM177.751 91c28.75 0 52.5 14 52.5 33v140c-61.25 -21 -87.5 -70 -87.5 -122
c0 -19.6514 8.7998 -51 35 -51z" />
    <glyph glyph-name="ccedilla" unicode="&#xe7;" horiz-adv-x="371" 
d="M184.25 -8c-113.394 0 -161.25 59.5488 -161.25 162v239c0 102.391 47.9453 162 161.25 162c122.768 0 162.5 -49.874 162.5 -157v-43h-126.25v66c0 33 -7.5 44 -36.25 44c-33.75 0 -35 -24 -35 -44v-295c0 -20 1.25 -44 35 -44c28.75 0 36.25 11 36.25 44v76h126.25v-53
c0 -107.083 -39.7734 -157 -162.5 -157zM233 -123l-27.5 -65h-63.75l25 65h-38.75v69h105v-69z" />
    <glyph glyph-name="egrave" unicode="&#xe8;" horiz-adv-x="374" 
d="M176.75 727l65 -90h-97.5l-98.75 90h131.25zM186.75 81c35.2822 0 45 26.873 45 55v60h117.5v-63c-3.75 -53 -23.75 -90 -68.75 -119c-22.5 -15 -53.75 -22 -95 -22c-81.25 0 -122.5 36 -142.5 72c-11.25 21 -18.75 45 -20 72v275c3.75 53 25 92 70 122
c21.25 15 52.5 22 93.75 22c81.25 0 122.5 -36 142.5 -71c11.25 -21 18.75 -44 20 -70v-159h-208.75v-119c1.62598 -27.3135 12.5293 -55 46.25 -55zM186.75 467c-35.5752 0 -43.1748 -28.9434 -46.25 -56v-77h91.25v77c0 28.165 -9.07324 56 -45 56z" />
    <glyph glyph-name="eacute" unicode="&#xe9;" 
d="M340.5 727l-98.75 -90h-97.5l65 90h131.25zM186.75 81c35.2822 0 45 26.873 45 55v60h117.5v-63c-3.75 -53 -23.75 -90 -68.75 -119c-22.5 -15 -53.75 -22 -95 -22c-81.25 0 -122.5 36 -142.5 72c-11.25 21 -18.75 45 -20 72v275c3.75 53 25 92 70 122
c21.25 15 52.5 22 93.75 22c81.25 0 122.5 -36 142.5 -71c11.25 -21 18.75 -44 20 -70v-159h-208.75v-119c1.62598 -27.3135 12.5293 -55 46.25 -55zM186.75 467c-35.5752 0 -43.1748 -28.9434 -46.25 -56v-77h91.25v77c0 28.165 -9.07324 56 -45 56z" />
    <glyph glyph-name="ecircumflex" unicode="&#xea;" 
d="M251.75 727l86.25 -90h-115l-38.75 35l-37.5 -35h-115l86.25 90h133.75zM186.75 81c35.2822 0 45 26.873 45 55v60h117.5v-63c-3.75 -53 -23.75 -90 -68.75 -119c-22.5 -15 -53.75 -22 -95 -22c-81.25 0 -122.5 36 -142.5 72c-11.25 21 -18.75 45 -20 72v275
c3.75 53 25 92 70 122c21.25 15 52.5 22 93.75 22c81.25 0 122.5 -36 142.5 -71c11.25 -21 18.75 -44 20 -70v-159h-208.75v-119c1.62598 -27.3135 12.5293 -55 46.25 -55zM186.75 467c-35.5752 0 -43.1748 -28.9434 -46.25 -56v-77h91.25v77c0 28.165 -9.07324 56 -45 56z
" />
    <glyph glyph-name="edieresis" unicode="&#xeb;" 
d="M38 735h116.25v-98h-116.25v98zM214.25 735h116.25v-98h-116.25v98zM186.75 81c35.2822 0 45 26.873 45 55v60h117.5v-63c-3.75 -53 -23.75 -90 -68.75 -119c-22.5 -15 -53.75 -22 -95 -22c-81.25 0 -122.5 36 -142.5 72c-11.25 21 -18.75 45 -20 72v275
c3.75 53 25 92 70 122c21.25 15 52.5 22 93.75 22c81.25 0 122.5 -36 142.5 -71c11.25 -21 18.75 -44 20 -70v-159h-208.75v-119c1.62598 -27.3135 12.5293 -55 46.25 -55zM186.75 467c-35.5752 0 -43.1748 -28.9434 -46.25 -56v-77h91.25v77c0 28.165 -9.07324 56 -45 56z
" />
    <glyph glyph-name="igrave" unicode="&#xec;" horiz-adv-x="241" 
d="M150.25 727l65 -90h-97.5l-98.75 90h131.25zM89 0v547h126.25v-547h-126.25z" />
    <glyph glyph-name="iacute" unicode="&#xed;" horiz-adv-x="240" 
d="M220.25 727l-98.75 -90h-97.5l65 90h131.25zM24 0v547h126.25v-547h-126.25z" />
    <glyph glyph-name="icircumflex" unicode="&#xee;" horiz-adv-x="345" 
d="M239 727l86.25 -90h-115l-38.75 35l-37.5 -35h-115l86.25 90h133.75zM109 0v547h126.25v-547h-126.25z" />
    <glyph glyph-name="idieresis" unicode="&#xef;" horiz-adv-x="331" 
d="M19 735h116.25v-98h-116.25v98zM195.25 735h116.25v-98h-116.25v98zM101.5 0v547h126.25v-547h-126.25z" />
    <glyph glyph-name="eth" unicode="&#xf0;" horiz-adv-x="372" 
d="M208 736c3.75 -3 6.25 -6 10 -9l11.25 -9l11.25 -12l57.5 40l33.75 -32l-61.25 -43c38.75 -48 76.25 -118 76.25 -218v-320c-3.75 -53 -23.75 -90 -67.5 -119c-22.5 -15 -53.75 -22 -95 -22c-81.25 0 -121.25 36 -141.25 72c-11.25 21 -18.75 45 -20 72v283
c0 9 0 44 12.5 76c12.5 31 37.5 60 92.5 60c28.75 0 61.25 -15 95 -38c-6.25 41 -17.5 74 -31.25 99l-50 -35l-33.75 31l61.25 43c-8.75 11 -15 19 -20 24c-3.75 3 -6.25 5 -7.5 8zM184.25 467c-33.4102 0 -45.6133 -28.6182 -42.501 -56v-275
c-1.66113 -27.916 8.79395 -55 42.501 -55c34.207 0 46.9385 26.9365 43.75 55v275c1.67578 28.1523 -7.88574 56 -43.75 56z" />
    <glyph glyph-name="ntilde" unicode="&#xf1;" horiz-adv-x="374" 
d="M130.249 730c39.9805 0 73.1953 -17.0371 110 -19c26.9629 0 49.2031 7.81738 66.25 16v-74c-15.6328 -11.1162 -39.6289 -19 -66.25 -19c-18.75 0 -37.5 3 -53.75 9c-17.5 6 -36.25 9 -56.25 10c-26.9629 0 -49.2031 -7.81738 -66.25 -16v74
c15.6348 9.72852 39.627 19 66.25 19zM347.75 448v-448h-126.25v433c0 21 -15 24 -30 24c-20.2354 0 -32.6172 -14.4893 -41.25 -26v-431h-126.25v547h126.25v-46c2.5 1 7.5 5 15 11c17.5068 14.0059 49.2354 43 87.5 43c64.3838 0 95 -57.6201 95 -107z" />
    <glyph glyph-name="ograve" unicode="&#xf2;" horiz-adv-x="372" 
d="M175.5 727l65 -90h-97.5l-98.75 90h131.25zM346.75 133c-3.75 -53 -23.75 -90 -67.5 -119c-22.5 -15 -53.75 -22 -95 -22c-81.25 0 -121.25 36 -141.25 72c-11.25 21 -18.75 45 -20 72v275c3.75 53 23.75 92 67.5 122c21.25 15 52.5 22 93.75 22
c81.25 0 122.5 -36 142.5 -71c11.25 -21 18.75 -44 20 -70v-281zM184.25 467c-33.4102 0 -45.6133 -28.6182 -42.501 -56v-275c-1.66113 -27.916 8.79395 -55 42.501 -55c34.207 0 46.9385 26.9365 43.75 55v275c1.67578 28.1523 -7.88574 56 -43.75 56z" />
    <glyph glyph-name="oacute" unicode="&#xf3;" horiz-adv-x="372" 
d="M339.25 727l-98.75 -90h-97.5l65 90h131.25zM346.75 133c-3.75 -53 -23.75 -90 -67.5 -119c-22.5 -15 -53.75 -22 -95 -22c-81.25 0 -121.25 36 -141.25 72c-11.25 21 -18.75 45 -20 72v275c3.75 53 23.75 92 67.5 122c21.25 15 52.5 22 93.75 22
c81.25 0 122.5 -36 142.5 -71c11.25 -21 18.75 -44 20 -70v-281zM184.25 467c-33.4102 0 -45.6133 -28.6182 -42.501 -56v-275c-1.66113 -27.916 8.79395 -55 42.501 -55c34.207 0 46.9385 26.9365 43.75 55v275c1.67578 28.1523 -7.88574 56 -43.75 56z" />
    <glyph glyph-name="ocircumflex" unicode="&#xf4;" horiz-adv-x="372" 
d="M251.75 727l86.25 -90h-115l-38.75 35l-37.5 -35h-115l86.25 90h133.75zM346.75 133c-3.75 -53 -23.75 -90 -67.5 -119c-22.5 -15 -53.75 -22 -95 -22c-81.25 0 -121.25 36 -141.25 72c-11.25 21 -18.75 45 -20 72v275c3.75 53 23.75 92 67.5 122
c21.25 15 52.5 22 93.75 22c81.25 0 122.5 -36 142.5 -71c11.25 -21 18.75 -44 20 -70v-281zM184.25 467c-33.4102 0 -45.6133 -28.6182 -42.501 -56v-275c-1.66113 -27.916 8.79395 -55 42.501 -55c34.207 0 46.9385 26.9365 43.75 55v275
c1.67578 28.1523 -7.88574 56 -43.75 56z" />
    <glyph glyph-name="otilde" unicode="&#xf5;" horiz-adv-x="372" 
d="M130.499 730c39.9805 0 73.1953 -17.0371 110 -19c26.9629 0 49.2031 7.81738 66.25 16v-74c-15.6328 -11.1162 -39.6289 -19 -66.25 -19c-18.75 0 -37.5 3 -53.75 9c-17.5 6 -36.25 9 -56.25 10c-26.9629 0 -49.2031 -7.81738 -66.25 -16v74
c15.6348 9.72852 39.627 19 66.25 19zM346.75 133c-3.75 -53 -23.75 -90 -67.5 -119c-22.5 -15 -53.75 -22 -95 -22c-81.25 0 -121.25 36 -141.25 72c-11.25 21 -18.75 45 -20 72v275c3.75 53 23.75 92 67.5 122c21.25 15 52.5 22 93.75 22c81.25 0 122.5 -36 142.5 -71
c11.25 -21 18.75 -44 20 -70v-281zM184.25 467c-33.4111 0 -45.6123 -28.6182 -42.501 -56v-275c-1.66211 -27.916 8.79395 -55 42.501 -55c34.2061 0 46.9385 26.9365 43.75 55v275c1.67578 28.1523 -7.88574 56 -43.75 56z" />
    <glyph glyph-name="odieresis" unicode="&#xf6;" horiz-adv-x="372" 
d="M39.25 735h116.25v-98h-116.25v98zM215.5 735h116.25v-98h-116.25v98zM346.75 133c-3.75 -53 -23.75 -90 -67.5 -119c-22.5 -15 -53.75 -22 -95 -22c-81.25 0 -121.25 36 -141.25 72c-11.25 21 -18.75 45 -20 72v275c3.75 53 23.75 92 67.5 122
c21.25 15 52.5 22 93.75 22c81.25 0 122.5 -36 142.5 -71c11.25 -21 18.75 -44 20 -70v-281zM184.25 467c-33.4102 0 -45.6133 -28.6182 -42.501 -56v-275c-1.66113 -27.916 8.79395 -55 42.501 -55c34.207 0 46.9385 26.9365 43.75 55v275
c1.67578 28.1523 -7.88574 56 -43.75 56z" />
    <glyph glyph-name="oslash" unicode="&#xf8;" horiz-adv-x="372" 
d="M60.5 -38l18.75 59c-28.75 21 -43.75 49 -50 73c-3.75 13 -6.25 27 -6.25 42v275c3.75 53 23.75 92 67.5 122c21.25 15 52.5 22 93.75 22c25 0 46.25 -4 65 -9l12.5 39h46.25l-18.75 -59c28.75 -21 41.25 -48 50 -71c3.75 -13 6.25 -27 7.5 -41v-281
c-3.75 -53 -23.75 -90 -67.5 -119c-22.5 -15 -53.75 -22 -95 -22c-23.75 0 -43.75 3 -62.5 8l-12.5 -38h-48.75zM141.75 411v-198l76.25 237c-6.25 11 -15 17 -33.75 17c-33.4102 0 -45.6113 -28.6182 -42.5 -56zM228 136v197l-76.25 -237c6.25 -10 17.5 -15 32.5 -15
c34.207 0 46.9385 26.9365 43.75 55z" />
    <glyph glyph-name="ugrave" unicode="&#xf9;" 
d="M175.5 727l65 -90h-97.5l-98.75 90h131.25zM23 99l0.00195312 448h126.25v-433c0 -21 15 -24 30 -24c20.4219 0 32.3652 14.1543 41.248 26v431h126.25v-547h-126.25v46c-2.5 -1 -7.5 -5 -13.75 -10c-18.5508 -14.8408 -50.6094 -44 -88.75 -44
c-63.3438 0 -95 57.3828 -95 107z" />
    <glyph glyph-name="uacute" unicode="&#xfa;" 
d="M339.25 727l-98.75 -90h-97.5l65 90h131.25zM23 99l0.00195312 448h126.25v-433c0 -21 15 -24 30 -24c20.4219 0 32.3652 14.1543 41.248 26v431h126.25v-547h-126.25v46c-2.5 -1 -7.5 -5 -13.75 -10c-18.5508 -14.8408 -50.6094 -44 -88.75 -44
c-63.3438 0 -95 57.3828 -95 107z" />
    <glyph glyph-name="ucircumflex" unicode="&#xfb;" 
d="M253 727l86.25 -90h-115l-38.75 35l-37.5 -35h-115l86.25 90h133.75zM23 99l0.00195312 448h126.25v-433c0 -21 15 -24 30 -24c20.4219 0 32.3652 14.1543 41.248 26v431h126.25v-547h-126.25v46c-2.5 -1 -7.5 -5 -13.75 -10c-18.5508 -14.8408 -50.6094 -44 -88.75 -44
c-63.3438 0 -95 57.3828 -95 107z" />
    <glyph glyph-name="udieresis" unicode="&#xfc;" 
d="M40.5 735h116.25v-98h-116.25v98zM216.75 735h116.25v-98h-116.25v98zM23 99l0.00195312 448h126.25v-433c0 -21 15 -24 30 -24c20.4219 0 32.3652 14.1543 41.248 26v431h126.25v-547h-126.25v46c-2.5 -1 -7.5 -5 -13.75 -10c-18.5508 -14.8408 -50.6094 -44 -88.75 -44
c-63.3438 0 -95 57.3828 -95 107z" />
    <glyph glyph-name="yacute" unicode="&#xfd;" horiz-adv-x="397" 
d="M341.5 727l-98.75 -90h-97.5l65 90h131.25zM135.25 -16l-116.25 563h123.75c17.0225 -121.715 37.9404 -240.313 52.5 -364h5l2.5 28l50 336h123.75l-121.25 -588c-11.8184 -73.752 -73.2041 -155 -175 -155h-15c-11.25 0 -26.25 1 -41.25 2v90c1.25 -1 3.75 -1 7.5 -1
c60.9883 -9.75781 103.75 39.8916 103.75 89z" />
    <glyph glyph-name="thorn" unicode="&#xfe;" 
d="M347.75 448v-349c0 -50.8525 -32.7949 -107 -97.5 -107c-40.8457 0 -75.3633 26.4805 -100 44v-224h-126.25v923h126.25v-224c21.25 16 40 28 65 37c11.25 5 23.75 7 35 7c65.7383 0 97.5 -56.3916 97.5 -107zM150.25 120c0 -16 18.75 -33 37.5 -33s33.75 14 33.75 33
v307c0 19 -15 33 -33.75 33s-37.5 -14 -37.5 -33v-307z" />
    <glyph glyph-name="ydieresis" unicode="&#xff;" horiz-adv-x="397" 
d="M51.5 735h116.25v-98h-116.25v98zM227.75 735h116.25v-98h-116.25v98zM135.25 -16l-116.25 563h123.75c17.0225 -121.715 37.9404 -240.313 52.5 -364h5l2.5 28l50 336h123.75l-121.25 -588c-11.8184 -73.752 -73.2041 -155 -175 -155h-15c-11.25 0 -26.25 1 -41.25 2v90
c1.25 -1 3.75 -1 7.5 -1c60.9883 -9.75781 103.75 39.8916 103.75 89z" />
    <glyph glyph-name="Amacron" unicode="&#x100;" horiz-adv-x="481" 
d="M120.25 909h242.5v-79h-242.5v79zM19 0l138.75 735h165l138.75 -735h-131.25l-25 150h-130l-25 -150h-131.25zM244 515h-7.5l-3.75 -19l-38.75 -232h92.5c-14.3301 83.5361 -27.3301 168.136 -42.5 251z" />
    <glyph glyph-name="amacron" unicode="&#x101;" horiz-adv-x="391" 
d="M19 127c0 159.809 145 230 211.25 230v60c0 24.8906 -2.57617 50 -35 50c-31.4346 0 -36.25 -37.6289 -36.25 -87l-126.25 29c0 78.7441 71.7305 146 170 146c85.0293 0 153.75 -54.6201 153.75 -124v-336c0 -17 0 -71 15 -95h-130c-11.25 11 -11.25 37 -11.25 44
c-45 -81 -211.25 -64.5156 -211.25 83zM139 142c0 -78 91.25 -38 91.25 -9v131c-61.25 0 -91.25 -70 -91.25 -122zM77.75 721h242.5v-79h-242.5v79z" />
    <glyph glyph-name="Abreve" unicode="&#x102;" horiz-adv-x="481" 
d="M104 871l67.5 46c13.3281 -13.709 37.9316 -23 70 -23c33.2041 0 57.9346 8.43457 72.5 23l65 -46c-31.082 -24.8652 -74.0566 -47 -137.5 -47c-64.6562 0 -108.418 20.8262 -137.5 47zM19 0l138.75 735h165l138.75 -735h-131.25l-25 150h-130l-25 -150h-131.25zM244 515
h-7.5l-3.75 -19l-38.75 -232h92.5c-14.3301 83.5361 -27.3301 168.136 -42.5 251z" />
    <glyph glyph-name="abreve" unicode="&#x103;" horiz-adv-x="391" 
d="M19 127c0 159.809 145 230 211.25 230v60c0 24.8906 -2.57617 50 -35 50c-31.4346 0 -36.25 -37.6289 -36.25 -87l-126.25 29c0 78.7441 71.7305 146 170 146c85.0293 0 153.75 -54.6201 153.75 -124v-336c0 -17 0 -71 15 -95h-130c-11.25 11 -11.25 37 -11.25 44
c-45 -81 -211.25 -64.5156 -211.25 83zM139 142c0 -78 91.25 -38 91.25 -9v131c-61.25 0 -91.25 -70 -91.25 -122zM61.5 683l67.5 46c13.3281 -13.709 37.9316 -23 70 -23c33.2041 0 57.9346 8.43457 72.5 23l65 -46c-31.082 -24.8652 -74.0566 -47 -137.5 -47
c-64.6562 0 -108.418 20.8262 -137.5 47z" />
    <glyph glyph-name="Aogonek" unicode="&#x104;" horiz-adv-x="481" 
d="M461.5 0h-58.75c-21.25 -15 -36.25 -30 -47.5 -50c-6.25 -10 -8.75 -21 -8.75 -33c0 -29 33.75 -38 62.5 -38c21.25 0 37.5 4 52.5 9l-10 -67c-26.25 -7 -42.5 -9 -63.75 -9c-81.25 0 -127.5 40 -127.5 85c0 28 20 53 41.25 72c11.25 11 25 22 41.25 31h-12.5l-25 150
h-130l-25 -150h-131.25l138.75 735h165zM194 264h92.5l-38.75 232l-3.75 19h-7.5c-15.1699 -82.8643 -28.1699 -167.464 -42.5 -251z" />
    <glyph glyph-name="aogonek" unicode="&#x105;" horiz-adv-x="388" 
d="M202.75 555c85.0205 0 153.75 -54.6338 153.75 -124.001v-336c0 -49 3.75 -71 8.75 -95h-57.5c-21.25 -15 -36.25 -30 -47.5 -50c-6.25 -10 -8.75 -21 -8.75 -33c0 -29 33.75 -38 62.5 -38c21.25 0 37.5 4 52.5 9l-10 -67c-26.25 -7 -42.5 -9 -63.75 -9
c-81.25 0 -127.5 40 -127.5 85c0 28 20 53 41.25 72c11.25 11 25 22 41.25 31h-6.25c-11.25 11 -11.25 37 -11.25 44h-8.75c-15.9004 -22.8984 -53.9961 -52 -101.25 -52c-16.25 0 -42.5 5 -62.5 25c-21.25 19 -38.75 53 -38.75 110
c0 108.183 70.3926 163.364 151.25 197.001c31.25 13 55 22 60 33v60c0 24.8369 -2.55371 50 -35 50c-31.4395 0 -36.25 -28.6348 -36.25 -55v-26h-126.25v23c0 78.75 71.7305 146 170 146zM142.75 141.999c0 -19.6152 8.80762 -51 35 -51c28.75 0 52.5 14 52.5 33v140
c-61.25 -21 -87.5 -70 -87.5 -122z" />
    <glyph glyph-name="Cacute" unicode="&#x106;" horiz-adv-x="407" 
d="M298 915l-98.75 -90h-97.5l65 90h131.25zM205.5 638c-36.0264 0 -44.2588 -28.0703 -47.5 -54v-433c1.58984 -26.7051 13.8467 -54 47.5 -54c39.9863 0 51.25 23.666 51.25 54v101h126.25v-101c-1.25 -30 -8.75 -57 -22.5 -80c-24.7891 -44.0703 -74.2627 -79 -157.5 -79
c-45 0 -80 9 -105 25c-47.1953 28.3164 -72.5117 74.2812 -75 134v433c1.25 29 8.75 56 22.5 79c25.2852 44.9531 72.2773 80 157.5 80c45 0 78.75 -10 103.75 -25c47.2861 -28.3711 73.6924 -74.668 76.25 -134v-101h-126.25v101c0 28.2783 -12.666 54 -51.25 54z" />
    <glyph glyph-name="cacute" unicode="&#x107;" horiz-adv-x="371" 
d="M279.25 727l-98.75 -90h-97.5l65 90h131.25zM184.25 -8c-113.394 0 -161.25 59.5488 -161.25 162v239c0 102.391 47.9453 162 161.25 162c122.768 0 162.5 -49.874 162.5 -157v-43h-126.25v66c0 33 -7.5 44 -36.25 44c-33.75 0 -35 -24 -35 -44v-295
c0 -20 1.25 -44 35 -44c28.75 0 36.25 11 36.25 44v76h126.25v-53c0 -107.083 -39.7734 -157 -162.5 -157z" />
    <glyph glyph-name="Ccircumflex" unicode="&#x108;" horiz-adv-x="407" 
d="M266.75 915l86.25 -90h-115l-38.75 35l-37.5 -35h-115l86.25 90h133.75zM205.5 638c-36.0264 0 -44.2588 -28.0703 -47.5 -54v-433c1.58984 -26.7051 13.8467 -54 47.5 -54c39.9863 0 51.25 23.666 51.25 54v101h126.25v-101c-1.25 -30 -8.75 -57 -22.5 -80
c-24.7891 -44.0703 -74.2627 -79 -157.5 -79c-45 0 -80 9 -105 25c-47.1953 28.3164 -72.5117 74.2812 -75 134v433c1.25 29 8.75 56 22.5 79c25.2852 44.9531 72.2773 80 157.5 80c45 0 78.75 -10 103.75 -25c47.2861 -28.3711 73.6924 -74.668 76.25 -134v-101h-126.25
v101c0 28.2783 -12.666 54 -51.25 54z" />
    <glyph glyph-name="ccircumflex" unicode="&#x109;" horiz-adv-x="371" 
d="M248 727l86.25 -90h-115l-38.75 35l-37.5 -35h-115l86.25 90h133.75zM184.25 -8c-113.394 0 -161.25 59.5488 -161.25 162v239c0 102.391 47.9453 162 161.25 162c122.768 0 162.5 -49.874 162.5 -157v-43h-126.25v66c0 33 -7.5 44 -36.25 44c-33.75 0 -35 -24 -35 -44
v-295c0 -20 1.25 -44 35 -44c28.75 0 36.25 11 36.25 44v76h126.25v-53c0 -107.083 -39.7734 -157 -162.5 -157z" />
    <glyph glyph-name="Cdotaccent" unicode="&#x10a;" horiz-adv-x="407" 
d="M136.75 923h126.25v-101h-126.25v101zM205.5 638c-36.0264 0 -44.2588 -28.0703 -47.5 -54v-433c1.58984 -26.7051 13.8467 -54 47.5 -54c39.9863 0 51.25 23.666 51.25 54v101h126.25v-101c-1.25 -30 -8.75 -57 -22.5 -80c-24.7891 -44.0703 -74.2627 -79 -157.5 -79
c-45 0 -80 9 -105 25c-47.1953 28.3164 -72.5117 74.2812 -75 134v433c1.25 29 8.75 56 22.5 79c25.2852 44.9531 72.2773 80 157.5 80c45 0 78.75 -10 103.75 -25c47.2861 -28.3711 73.6924 -74.668 76.25 -134v-101h-126.25v101c0 28.2783 -12.666 54 -51.25 54z" />
    <glyph glyph-name="cdotaccent" unicode="&#x10b;" horiz-adv-x="371" 
d="M118 735h126.25v-101h-126.25v101zM184.25 -8c-113.394 0 -161.25 59.5488 -161.25 162v239c0 102.391 47.9453 162 161.25 162c122.768 0 162.5 -49.874 162.5 -157v-43h-126.25v66c0 33 -7.5 44 -36.25 44c-33.75 0 -35 -24 -35 -44v-295c0 -20 1.25 -44 35 -44
c28.75 0 36.25 11 36.25 44v76h126.25v-53c0 -107.083 -39.7734 -157 -162.5 -157z" />
    <glyph glyph-name="Ccaron" unicode="&#x10c;" horiz-adv-x="407" 
d="M133 825l-86.25 90h115l37.5 -35l38.75 35h115l-86.25 -90h-133.75zM205.5 638c-36.0264 0 -44.2588 -28.0703 -47.5 -54v-433c1.58984 -26.7051 13.8467 -54 47.5 -54c39.9863 0 51.25 23.666 51.25 54v101h126.25v-101c-1.25 -30 -8.75 -57 -22.5 -80
c-24.7891 -44.0703 -74.2627 -79 -157.5 -79c-45 0 -80 9 -105 25c-47.1953 28.3164 -72.5117 74.2812 -75 134v433c1.25 29 8.75 56 22.5 79c25.2852 44.9531 72.2773 80 157.5 80c45 0 78.75 -10 103.75 -25c47.2861 -28.3711 73.6924 -74.668 76.25 -134v-101h-126.25
v101c0 28.2783 -12.666 54 -51.25 54z" />
    <glyph glyph-name="ccaron" unicode="&#x10d;" horiz-adv-x="371" 
d="M114.25 637l-86.25 90h115l37.5 -35l38.75 35h115l-86.25 -90h-133.75zM184.25 -8c-113.394 0 -161.25 59.5488 -161.25 162v239c0 102.391 47.9453 162 161.25 162c122.768 0 162.5 -49.874 162.5 -157v-43h-126.25v66c0 33 -7.5 44 -36.25 44c-33.75 0 -35 -24 -35 -44
v-295c0 -20 1.25 -44 35 -44c28.75 0 36.25 11 36.25 44v76h126.25v-53c0 -107.083 -39.7734 -157 -162.5 -157z" />
    <glyph glyph-name="Dcaron" unicode="&#x10e;" horiz-adv-x="423" 
d="M141.5 825l-86.25 90h115l37.5 -35l38.75 35h115l-86.25 -90h-133.75zM24 0v735h106.25c125 0 192.5 -20 228.75 -76c35 -56 40 -148 40 -292s-5 -235 -40 -291c-36.25 -56 -103.75 -76 -228.75 -76h-106.25zM159 108c46.25 0 72.5 4 86.25 40c6.25 17 11.25 43 12.5 78
s1.25 82 1.25 142s0 107 -1.25 142c-1.25 34 -6.25 60 -12.5 78c-13.75 35 -40 39 -86.25 39v-519z" />
    <glyph glyph-name="dcaron" unicode="&#x10f;" horiz-adv-x="576" 
d="M23.001 99l-0.000976562 349c0 49.3633 31.9727 107 97.5 107c40.8457 0 75.3643 -26.4805 100.001 -44v224h126.25v-735h-126.25v36c-21.25 -16 -40 -28 -63.75 -37c-12.5 -5 -25 -7 -36.25 -7c-64.4434 0 -97.5 57.4307 -97.5 107zM555.5 624l-68.75 -130h-62.5
l43.75 130h-43.75v111h131.25v-111zM220.5 427c0 16 -18.75 33 -37.5 33s-33.75 -14 -33.75 -33v-307c0 -19 15 -33 33.75 -33s37.5 14 37.5 33v307z" />
    <glyph glyph-name="Dcroat" unicode="&#x110;" horiz-adv-x="492" 
d="M92.75 735h106.25c125 0 192.5 -20 228.75 -76c35 -56 40 -148 40 -292s-5 -235 -40 -291c-36.25 -56 -103.75 -76 -228.75 -76h-106.25v331h-73.75v79h73.75v325zM227.75 331v-223c46.25 0 72.5 4 86.25 40c6.25 17 11.25 43 12.5 78s1.25 82 1.25 142s0 107 -1.25 142
c-1.25 34 -6.25 60 -12.5 78c-13.75 35 -40 39 -86.25 39v-217h33.75v-79h-33.75z" />
    <glyph glyph-name="dcroat" unicode="&#x111;" horiz-adv-x="395" 
d="M120.5 555c40.7764 0 75.4307 -26.5283 100 -44v86h-26.25v95h26.25v43h126.25v-43h28.75v-95h-28.75v-597h-126.25v36c-21.25 -16 -40 -28 -63.75 -37c-12.5 -5 -25 -7 -36.25 -7c-64.4766 0 -97.5 57.416 -97.5 107v349c0 49.3447 32.001 107 97.5 107zM220.5 120v307
c0 16 -18.75 33 -37.5 33s-33.75 -14 -33.75 -33v-307c0 -19 15 -33 33.75 -33s37.5 14 37.5 33z" />
    <glyph glyph-name="Emacron" unicode="&#x112;" horiz-adv-x="355" 
d="M46.5 909h242.5v-79h-242.5v79zM24 735h308.75v-111h-173.75v-193h125v-118h-125v-202h173.75v-111h-308.75v735z" />
    <glyph glyph-name="emacron" unicode="&#x113;" 
d="M64.25 721h242.5v-79h-242.5v79zM186.75 81c35.2822 0 45 26.873 45 55v60h117.5v-63c-3.75 -53 -23.75 -90 -68.75 -119c-22.5 -15 -53.75 -22 -95 -22c-81.25 0 -122.5 36 -142.5 72c-11.25 21 -18.75 45 -20 72v275c3.75 53 25 92 70 122c21.25 15 52.5 22 93.75 22
c81.25 0 122.5 -36 142.5 -71c11.25 -21 18.75 -44 20 -70v-159h-208.75v-119c1.62598 -27.3135 12.5293 -55 46.25 -55zM186.75 467c-35.5752 0 -43.1748 -28.9434 -46.25 -56v-77h91.25v77c0 28.165 -9.07324 56 -45 56z" />
    <glyph glyph-name="Ebreve" unicode="&#x114;" horiz-adv-x="355" 
d="M30.25 871l67.5 46c13.3281 -13.709 37.9316 -23 70 -23c33.2041 0 57.9346 8.43457 72.5 23l65 -46c-31.082 -24.8652 -74.0566 -47 -137.5 -47c-64.6562 0 -108.418 20.8262 -137.5 47zM24 735h308.75v-111h-173.75v-193h125v-118h-125v-202h173.75v-111h-308.75v735z
" />
    <glyph glyph-name="ebreve" unicode="&#x115;" 
d="M48 683l67.5 46c13.3281 -13.709 37.9316 -23 70 -23c33.2041 0 57.9346 8.43457 72.5 23l65 -46c-31.082 -24.8652 -74.0566 -47 -137.5 -47c-64.6562 0 -108.418 20.8262 -137.5 47zM186.75 81c35.2822 0 45 26.873 45 55v60h117.5v-63
c-3.75 -53 -23.75 -90 -68.75 -119c-22.5 -15 -53.75 -22 -95 -22c-81.25 0 -122.5 36 -142.5 72c-11.25 21 -18.75 45 -20 72v275c3.75 53 25 92 70 122c21.25 15 52.5 22 93.75 22c81.25 0 122.5 -36 142.5 -71c11.25 -21 18.75 -44 20 -70v-159h-208.75v-119
c1.62598 -27.3135 12.5293 -55 46.25 -55zM186.75 467c-35.5752 0 -43.1748 -28.9434 -46.25 -56v-77h91.25v77c0 28.165 -9.07324 56 -45 56z" />
    <glyph glyph-name="Edotaccent" unicode="&#x116;" horiz-adv-x="355" 
d="M104 923h126.25v-101h-126.25v101zM24 735h308.75v-111h-173.75v-193h125v-118h-125v-202h173.75v-111h-308.75v735z" />
    <glyph glyph-name="edotaccent" unicode="&#x117;" 
d="M123 735h126.25v-101h-126.25v101zM186.75 81c35.2822 0 45 26.873 45 55v60h117.5v-63c-3.75 -53 -23.75 -90 -68.75 -119c-22.5 -15 -53.75 -22 -95 -22c-81.25 0 -122.5 36 -142.5 72c-11.25 21 -18.75 45 -20 72v275c3.75 53 25 92 70 122c21.25 15 52.5 22 93.75 22
c81.25 0 122.5 -36 142.5 -71c11.25 -21 18.75 -44 20 -70v-159h-208.75v-119c1.62598 -27.3135 12.5293 -55 46.25 -55zM186.75 467c-35.5752 0 -43.1748 -28.9434 -46.25 -56v-77h91.25v77c0 28.165 -9.07324 56 -45 56z" />
    <glyph glyph-name="Eogonek" unicode="&#x118;" horiz-adv-x="355" 
d="M332.75 0h-57.5c-21.25 -15 -36.25 -30 -47.5 -50c-6.25 -10 -8.75 -21 -8.75 -33c0 -29 33.75 -38 62.5 -38c21.25 0 37.5 4 52.5 9l-10 -67c-26.25 -7 -42.5 -9 -63.75 -9c-81.25 0 -127.5 40 -127.5 85c0 28 20 53 41.25 72c11.25 11 25 22 41.25 31h-191.25v735
h308.75v-111h-173.75v-193h125v-118h-125v-202h173.75v-111z" />
    <glyph glyph-name="eogonek" unicode="&#x119;" horiz-adv-x="376" 
d="M186.75 81c35.2949 0 45 26.9023 45 55v60h117.5v-63c-3.75 -53 -23.75 -90 -68.75 -119c-8.75 -6 -18.75 -11 -30 -14h42.5c-21.25 -15 -36.25 -30 -47.5 -50c-6.25 -10 -8.75 -21 -8.75 -33c0 -29 33.75 -38 62.5 -38c21.25 0 37.5 4 52.5 9l-10 -67
c-26.25 -7 -42.5 -9 -63.75 -9c-81.25 0 -127.5 40 -127.5 85c0 28 20 53 41.25 72c8.75 9 20 18 31.25 25c-11.25 -1 -23.75 -2 -37.5 -2c-81.25 0 -122.5 36 -142.5 72c-11.25 21 -18.75 45 -20 72v275c3.75 53 25 92 70 122c21.25 15 52.5 22 93.75 22
c81.25 0 122.5 -36 142.5 -71c11.25 -21 18.75 -44 20 -70v-159h-208.75v-119c1.62695 -27.3438 12.5527 -55 46.25 -55zM186.75 467c-35.584 0 -43.1797 -28.9814 -46.25 -56v-77h91.25v77c0 28.1963 -9.06445 56 -45 56z" />
    <glyph glyph-name="Ecaron" unicode="&#x11a;" horiz-adv-x="360" 
d="M105.25 825l-86.25 90h115l37.5 -35l38.75 35h115l-86.25 -90h-133.75zM29 735h308.75v-111h-173.75v-193h125v-118h-125v-202h173.75v-111h-308.75v735z" />
    <glyph glyph-name="ecaron" unicode="&#x11b;" 
d="M119.25 637l-86.25 90h115l37.5 -35l38.75 35h115l-86.25 -90h-133.75zM186.75 81c35.2822 0 45 26.873 45 55v60h117.5v-63c-3.75 -53 -23.75 -90 -68.75 -119c-22.5 -15 -53.75 -22 -95 -22c-81.25 0 -122.5 36 -142.5 72c-11.25 21 -18.75 45 -20 72v275
c3.75 53 25 92 70 122c21.25 15 52.5 22 93.75 22c81.25 0 122.5 -36 142.5 -71c11.25 -21 18.75 -44 20 -70v-159h-208.75v-119c1.62598 -27.3135 12.5293 -55 46.25 -55zM186.75 467c-35.5752 0 -43.1748 -28.9434 -46.25 -56v-77h91.25v77c0 28.165 -9.07324 56 -45 56z
" />
    <glyph glyph-name="Gcircumflex" unicode="&#x11c;" horiz-adv-x="408" 
d="M275.698 915l86.25 -90h-115l-38.75 35l-37.5 -35h-115l86.25 90h133.75zM203.198 638c-34.7539 0 -45.001 -27.6455 -45.001 -54v-442c0 -27.3291 11.3066 -54 45 -54c34.7549 0 45 25.9609 45 54v133h-53.75v91h188.75v-366h-80l-16.25 35c-25 -25 -61.25 -43 -105 -43
s-73.75 9 -96.25 25c-43.292 28.8623 -65.0283 73.3066 -62.499 134v433c1.25 29 8.75 56 22.5 79c25.2861 44.9531 72.2783 80 157.5 80c45 0 78.75 -10 103.75 -25c47.2871 -28.3711 73.6934 -74.668 76.25 -134v-113h-135v113c0 26.9004 -9.83496 54 -45 54z" />
    <glyph glyph-name="gcircumflex" unicode="&#x11d;" horiz-adv-x="458" 
d="M207.75 462c-29.2344 0 -39.5469 -26.2578 -36.25 -50v-150c-1.58691 -24.1162 6.73438 -49 36.25 -49c31.1699 0 38.75 24.5244 38.75 49v150c0 24.374 -8.14551 50 -38.75 50zM364 453c5 -11 6.25 -27 6.25 -34v-155c-3.75 -51 -23.4434 -90.1934 -70 -114
c-38.6221 -19.749 -133.75 -10 -133.75 -45c0 -25.8115 64.0479 -29.9326 96.25 -34c91.6494 -9.16504 175 -38.833 175 -127c0 -99.2461 -99.4922 -140 -216.25 -140c-109.662 0 -202.5 21.0664 -202.5 106l122.5 17c0 -21 23.75 -38 82.5 -38
c36.5049 0 96.25 9.49805 96.25 37c0 76.1582 -278.75 32 -278.75 140c0 34.8154 47.9746 68.8691 78.75 82c-36.25 19 -53.75 49 -62.5 74c-5 15 -8.75 30 -10 45v149c5 51 25 88 68.75 117c21.25 15 52.5 22 91.25 22c63.75 0 102.5 -23 126.25 -50
c18.2207 14.5762 65.791 50 103.75 50v-90c-33.75 0 -58.75 -5 -73.75 -12zM294 727l86.25 -90h-115l-38.75 35l-37.5 -35h-115l86.25 90h133.75z" />
    <glyph glyph-name="Gbreve" unicode="&#x11e;" horiz-adv-x="408" 
d="M70.6982 871l67.5 46c13.3281 -13.709 37.9326 -23 70 -23c33.2051 0 57.9346 8.43457 72.5 23l65 -46c-31.0811 -24.8652 -74.0557 -47 -137.5 -47c-64.6553 0 -108.418 20.8262 -137.5 47zM203.198 638c-34.7539 0 -45.001 -27.6455 -45.001 -54v-442
c0 -27.3291 11.3066 -54 45 -54c34.7549 0 45 25.9609 45 54v133h-53.75v91h188.75v-366h-80l-16.25 35c-25 -25 -61.25 -43 -105 -43s-73.75 9 -96.25 25c-43.292 28.8623 -65.0283 73.3066 -62.499 134v433c1.25 29 8.75 56 22.5 79c25.2861 44.9531 72.2783 80 157.5 80
c45 0 78.75 -10 103.75 -25c47.2871 -28.3711 73.6934 -74.668 76.25 -134v-113h-135v113c0 26.9004 -9.83496 54 -45 54z" />
    <glyph glyph-name="gbreve" unicode="&#x11f;" horiz-adv-x="458" 
d="M207.75 462c-29.2344 0 -39.5469 -26.2578 -36.25 -50v-150c-1.58691 -24.1162 6.73438 -49 36.25 -49c31.1699 0 38.75 24.5244 38.75 49v150c0 24.374 -8.14551 50 -38.75 50zM364 453c5 -11 6.25 -27 6.25 -34v-155c-3.75 -51 -23.4434 -90.1934 -70 -114
c-38.6221 -19.749 -133.75 -10 -133.75 -45c0 -25.8115 64.0479 -29.9326 96.25 -34c91.6494 -9.16504 175 -38.833 175 -127c0 -99.2461 -99.4922 -140 -216.25 -140c-109.662 0 -202.5 21.0664 -202.5 106l122.5 17c0 -21 23.75 -38 82.5 -38
c36.5049 0 96.25 9.49805 96.25 37c0 76.1582 -278.75 32 -278.75 140c0 34.8154 47.9746 68.8691 78.75 82c-36.25 19 -53.75 49 -62.5 74c-5 15 -8.75 30 -10 45v149c5 51 25 88 68.75 117c21.25 15 52.5 22 91.25 22c63.75 0 102.5 -23 126.25 -50
c18.2207 14.5762 65.791 50 103.75 50v-90c-33.75 0 -58.75 -5 -73.75 -12zM89 683l67.5 46c13.3281 -13.709 37.9316 -23 70 -23c33.2041 0 57.9346 8.43457 72.5 23l65 -46c-31.082 -24.8652 -74.0566 -47 -137.5 -47c-64.6562 0 -108.418 20.8262 -137.5 47z" />
    <glyph glyph-name="Gdotaccent" unicode="&#x120;" horiz-adv-x="408" 
d="M145.698 923h126.25v-101h-126.25v101zM203.198 638c-34.7539 0 -45.001 -27.6455 -45.001 -54v-442c0 -27.3291 11.3066 -54 45 -54c34.7549 0 45 25.9609 45 54v133h-53.75v91h188.75v-366h-80l-16.25 35c-25 -25 -61.25 -43 -105 -43s-73.75 9 -96.25 25
c-43.292 28.8623 -65.0283 73.3066 -62.499 134v433c1.25 29 8.75 56 22.5 79c25.2861 44.9531 72.2783 80 157.5 80c45 0 78.75 -10 103.75 -25c47.2871 -28.3711 73.6934 -74.668 76.25 -134v-113h-135v113c0 26.9004 -9.83496 54 -45 54z" />
    <glyph glyph-name="gdotaccent" unicode="&#x121;" horiz-adv-x="458" 
d="M207.75 462c-29.2344 0 -39.5469 -26.2578 -36.25 -50v-150c-1.58691 -24.1162 6.73438 -49 36.25 -49c31.1699 0 38.75 24.5244 38.75 49v150c0 24.374 -8.14551 50 -38.75 50zM364 453c5 -11 6.25 -27 6.25 -34v-155c-3.75 -51 -23.4434 -90.1934 -70 -114
c-38.6221 -19.749 -133.75 -10 -133.75 -45c0 -25.8115 64.0479 -29.9326 96.25 -34c91.6494 -9.16504 175 -38.833 175 -127c0 -99.2461 -99.4922 -140 -216.25 -140c-109.662 0 -202.5 21.0664 -202.5 106l122.5 17c0 -21 23.75 -38 82.5 -38
c36.5049 0 96.25 9.49805 96.25 37c0 76.1582 -278.75 32 -278.75 140c0 34.8154 47.9746 68.8691 78.75 82c-36.25 19 -53.75 49 -62.5 74c-5 15 -8.75 30 -10 45v149c5 51 25 88 68.75 117c21.25 15 52.5 22 91.25 22c63.75 0 102.5 -23 126.25 -50
c18.2207 14.5762 65.791 50 103.75 50v-90c-33.75 0 -58.75 -5 -73.75 -12zM164 735h126.25v-101h-126.25v101z" />
    <glyph glyph-name="Gcommaaccent" unicode="&#x122;" horiz-adv-x="408" 
d="M203.198 638c-34.7539 0 -45.001 -27.6455 -45.001 -54v-442c0 -27.3291 11.3066 -54 45 -54c34.7549 0 45 25.9609 45 54v133h-53.75v91h188.75v-366h-80l-16.25 35c-25 -25 -61.25 -43 -105 -43s-73.75 9 -96.25 25c-43.292 28.8623 -65.0283 73.3066 -62.499 134v433
c1.25 29 8.75 56 22.5 79c25.2861 44.9531 72.2783 80 157.5 80c45 0 78.75 -10 103.75 -25c47.2871 -28.3711 73.6934 -74.668 76.25 -134v-113h-135v113c0 26.9004 -9.83496 54 -45 54zM250.697 -123l-27.5 -65h-63.75l25 65h-38.75v69h105v-69z" />
    <glyph glyph-name="gcommaaccent" unicode="&#x123;" horiz-adv-x="458" 
d="M207.75 462c-29.2344 0 -39.5469 -26.2578 -36.25 -50v-150c-1.58691 -24.1162 6.73438 -49 36.25 -49c31.1699 0 38.75 24.5244 38.75 49v150c0 24.374 -8.14551 50 -38.75 50zM364 453c5 -11 6.25 -27 6.25 -34v-155c-3.75 -51 -23.4434 -90.1934 -70 -114
c-38.6221 -19.749 -133.75 -10 -133.75 -45c0 -25.8115 64.0479 -29.9326 96.25 -34c91.6494 -9.16504 175 -38.833 175 -127c0 -99.2461 -99.4922 -140 -216.25 -140c-109.662 0 -202.5 21.0664 -202.5 106l122.5 17c0 -21 23.75 -38 82.5 -38
c36.5049 0 96.25 9.49805 96.25 37c0 76.1582 -278.75 32 -278.75 140c0 34.8154 47.9746 68.8691 78.75 82c-36.25 19 -53.75 49 -62.5 74c-5 15 -8.75 30 -10 45v149c5 51 25 88 68.75 117c21.25 15 52.5 22 91.25 22c63.75 0 102.5 -23 126.25 -50
c18.2207 14.5762 65.791 50 103.75 50v-90c-33.75 0 -58.75 -5 -73.75 -12zM159 793l68.75 130h62.5l-43.75 -130h43.75v-111h-131.25v111z" />
    <glyph glyph-name="Hcircumflex" unicode="&#x124;" horiz-adv-x="425" 
d="M280.25 915l86.25 -90h-115l-38.75 35l-37.5 -35h-115l86.25 90h133.75zM264 320h-105v-320h-135v735h135v-304h105v304h135v-735h-135v320z" />
    <glyph glyph-name="hcircumflex" unicode="&#x125;" horiz-adv-x="374" 
d="M191.5 457c-20.2402 0 -32.6309 -14.5078 -41.25 -26v-431h-126.25v735h126.25v-8h102.5l86.25 -90h-115l-38.75 35l-35 -33v-138c2.5 1 7.5 5 15 11c17.5342 14.0273 49.2168 43 87.5 43c64.3984 0 95 -57.6016 95 -107v-448h-126.25v433c0 21 -15 24 -30 24z" />
    <glyph glyph-name="Hbar" unicode="&#x126;" horiz-adv-x="513" 
d="M492.75 627v-79h-50v-548h-135v320h-105v-320h-135v548h-48.75v79h48.75v108h135v-108h105v108h135v-108h50zM307.75 431v117h-105v-117h105z" />
    <glyph glyph-name="hbar" unicode="&#x127;" horiz-adv-x="416" 
d="M234 457c-20.2402 0 -32.6309 -14.5078 -41.25 -26v-431h-126.25v612h-47.5v79h47.5v44h126.25v-44h68.75v-79h-68.75v-111c2.5 1 7.5 5 15 11c17.5342 14.0273 49.2168 43 87.5 43c64.3984 0 95 -57.6016 95 -107v-448h-126.25v433c0 21 -15 24 -30 24z" />
    <glyph glyph-name="Itilde" unicode="&#x128;" horiz-adv-x="281" 
d="M85.25 918c39.9805 0 73.1953 -17.0371 110 -19c26.9629 0 49.2031 7.81738 66.25 16v-74c-15.6328 -11.1162 -39.6289 -19 -66.25 -19c-18.75 0 -37.5 3 -53.75 9c-17.5 6 -36.25 9 -56.25 10c-26.9629 0 -49.2031 -7.81738 -66.25 -16v74
c15.6348 9.72852 39.6279 19 66.25 19zM71.501 735h135v-735h-135v735z" />
    <glyph glyph-name="itilde" unicode="&#x129;" horiz-adv-x="281" 
d="M85.25 730c39.9805 0 73.1953 -17.0371 110 -19c26.9629 0 49.2031 7.81738 66.25 16v-74c-15.6328 -11.1162 -39.6289 -19 -66.25 -19c-18.75 0 -37.5 3 -53.75 9c-17.5 6 -36.25 9 -56.25 10c-26.9629 0 -49.2031 -7.81738 -66.25 -16v74
c15.6348 9.72852 39.6279 19 66.25 19zM75.251 0v547h126.25v-547h-126.25z" />
    <glyph glyph-name="Imacron" unicode="&#x12a;" horiz-adv-x="281" 
d="M19 909h242.5v-79h-242.5v79zM71.5 735h135v-735h-135v735z" />
    <glyph glyph-name="imacron" unicode="&#x12b;" horiz-adv-x="281" 
d="M19 721h242.5v-79h-242.5v79zM75.25 0v547h126.25v-547h-126.25z" />
    <glyph glyph-name="Ibreve" unicode="&#x12c;" horiz-adv-x="314" 
d="M19 871l67.5 46c13.3281 -13.709 37.9316 -23 70 -23c33.2041 0 57.9346 8.43457 72.5 23l65 -46c-31.082 -24.8652 -74.0566 -47 -137.5 -47c-64.6562 0 -108.418 20.8262 -137.5 47zM87.75 735h135v-735h-135v735z" />
    <glyph glyph-name="ibreve" unicode="&#x12d;" horiz-adv-x="314" 
d="M19 683l67.5 46c13.3281 -13.709 37.9316 -23 70 -23c33.2041 0 57.9346 8.43457 72.5 23l65 -46c-31.082 -24.8652 -74.0566 -47 -137.5 -47c-64.6562 0 -108.418 20.8262 -137.5 47zM91.5 0v547h126.25v-547h-126.25z" />
    <glyph glyph-name="Iogonek" unicode="&#x12e;" horiz-adv-x="245" 
d="M219 0h-57.5c-21.25 -15 -36.25 -30 -47.5 -50c-6.25 -10 -8.75 -21 -8.75 -33c0 -29 33.75 -38 62.5 -38c21.25 0 37.5 4 52.5 9l-10 -67c-26.25 -7 -42.5 -9 -63.75 -9c-81.25 0 -127.5 40 -127.5 85c0 28 20 53 41.25 72c11.25 11 25 22 41.25 31h-17.5v735h135v-735z
" />
    <glyph glyph-name="iogonek" unicode="&#x12f;" horiz-adv-x="240" 
d="M181.5 735v-101h-126.25v101h126.25zM181.5 0h-20c-21.25 -15 -36.25 -30 -47.5 -50c-6.25 -10 -8.75 -21 -8.75 -33c0 -29 33.75 -38 62.5 -38c21.25 0 37.5 4 52.5 9l-10 -67c-26.25 -7 -42.5 -9 -63.75 -9c-81.25 0 -127.5 40 -127.5 85c0 28 20 53 41.25 72
c11.25 11 25 22 41.25 31h-46.25v547h126.25v-547z" />
    <glyph glyph-name="Idotaccent" unicode="&#x130;" horiz-adv-x="185" 
d="M30.25 923h126.25v-101h-126.25v101zM24 735h135v-735h-135v735z" />
    <glyph glyph-name="dotlessi" unicode="&#x131;" horiz-adv-x="176" 
d="M24 0v547h126.25v-547h-126.25z" />
    <glyph glyph-name="IJ" unicode="&#x132;" horiz-adv-x="450" 
d="M24 735h135v-735h-135v735zM289 153v582h135v-599c0 -97.5781 -69.79 -149.886 -207.5 -143v106c43.5723 -4.97949 72.5 14.041 72.5 54z" />
    <glyph glyph-name="ij" unicode="&#x133;" horiz-adv-x="399" 
d="M24 735h126.25v-101h-126.25v101zM246.5 735h126.25v-101h-126.25v101zM24 0v547h126.25v-547h-126.25zM172.75 -182v93c9.48438 -2.5293 24.6055 -4 35 -4c31.1582 0 38.75 29.332 38.75 57v583h126.25v-561c0 -28 0 -72 -17.5 -108c-17.5 -37 -56.25 -66 -127.5 -66
c-28.3965 0 -38.8672 1.69824 -55 6z" />
    <glyph glyph-name="Jcircumflex" unicode="&#x134;" horiz-adv-x="345" 
d="M239 915l86.25 -90h-115l-38.75 35l-37.5 -35h-115l86.25 90h133.75zM121.5 153v582h135v-599c0 -97.5781 -69.79 -149.886 -207.5 -143v106c43.5723 -4.97949 72.5 14.041 72.5 54z" />
    <glyph glyph-name="jcircumflex" unicode="&#x135;" horiz-adv-x="345" 
d="M325.25 645h-93.75v-11h-126.25v11h-86.25l86.25 90h133.75zM66.5 -93c31.1572 0 38.75 29.3389 38.75 57v583h126.25v-561c0 -28 0 -72 -17.5 -108c-17.5 -37 -56.25 -66 -127.5 -66c-28.3975 0 -38.8486 1.69336 -55 6v93c9.49609 -2.53223 24.6074 -4 35 -4z" />
    <glyph glyph-name="Kcommaaccent" unicode="&#x136;" horiz-adv-x="450" 
d="M159 735v-257h5l6.25 12l112.5 245h131.25l-123.75 -242l140 -493h-131.25c-32.3105 111.819 -66.0625 222.484 -97.5 335h-3.75c-12.5586 -25.2861 -25.8477 -49.9883 -38.75 -75v-260h-135v735h135zM242.75 -123l-27.5 -65h-63.75l25 65h-38.75v69h105v-69z" />
    <glyph glyph-name="kcommaaccent" unicode="&#x137;" horiz-adv-x="383" 
d="M150.25 735v-349.001h6.25c22.6309 53.8955 45.8652 107.308 68.75 161h113.75l-91.25 -178l115 -369h-121.25c-21.7383 76.2764 -42.9385 152.983 -65 229.001h-6.25l-3.75 -8l-16.25 -32v-189h-126.25v735h126.25zM242.75 -123.001l-27.5 -65h-63.75l25 65h-38.75v69
h105v-69z" />
    <glyph glyph-name="kgreenlandic" unicode="&#x138;" horiz-adv-x="383" 
d="M150.25 735v-349.001h6.25c22.6309 53.8955 45.8652 107.308 68.75 161h113.75l-91.25 -178l115 -369h-121.25c-21.7383 76.2764 -42.9385 152.983 -65 229.001h-6.25l-3.75 -8l-16.25 -32v-189h-126.25v735h126.25z" />
    <glyph glyph-name="Lacute" unicode="&#x139;" horiz-adv-x="359" 
d="M257.75 915l-98.75 -90h-97.5l65 90h131.25zM24 735h135v-635h178.75v-100h-313.75v735z" />
    <glyph glyph-name="lacute" unicode="&#x13a;" horiz-adv-x="277" 
d="M184 153c0 -39.959 28.9277 -58.9795 72.5 -54v-106c-137.71 -6.88574 -207.5 45.4219 -207.5 143v599h135v-582zM215.25 838l-98.75 -90h-97.5l65 90h131.25z" />
    <glyph glyph-name="Lcommaaccent" unicode="&#x13b;" horiz-adv-x="359" 
d="M24 735h135v-635h178.75v-100h-313.75v735zM242.75 -123l-27.5 -65h-63.75l25 65h-38.75v69h105v-69z" />
    <glyph glyph-name="lcommaaccent" unicode="&#x13c;" horiz-adv-x="252" 
d="M159 153c0 -39.959 28.9277 -58.9795 72.5 -54v-106c-137.71 -6.88574 -207.5 45.4219 -207.5 143v599h135v-582zM146.5 -116l-27.5 -65h-63.75l25 65h-38.75v69h105v-69z" />
    <glyph glyph-name="Lcaron" unicode="&#x13d;" horiz-adv-x="359" 
d="M335.25 737l-68.75 -130h-62.5l43.75 130h-43.75v111h131.25v-111zM24 735h135v-635h178.75v-100h-313.75v735z" />
    <glyph glyph-name="lcaron" unicode="&#x13e;" horiz-adv-x="384" 
d="M159 153c0 -39.959 28.9277 -58.9795 72.5 -54v-106c-137.71 -6.88574 -207.5 45.4219 -207.5 143v599h135v-582zM362.75 624l-68.75 -130h-62.5l43.75 130h-43.75v111h131.25v-111z" />
    <glyph glyph-name="Ldot" unicode="&#x13f;" horiz-adv-x="362" 
d="M24 735h135v-635h178.75v-100h-313.75v735zM206.5 440h131.25v-111h-131.25v111z" />
    <glyph glyph-name="ldot" unicode="&#x140;" horiz-adv-x="358" 
d="M159 153c0 -39.959 28.9277 -58.9795 72.5 -54v-106c-137.71 -6.88574 -207.5 45.4219 -207.5 143v599h135v-582zM204 428h131.25v-111h-131.25v111z" />
    <glyph glyph-name="Lslash" unicode="&#x141;" horiz-adv-x="393" 
d="M19 382l40 25v328h135v-244l73.75 46v-108l-73.75 -46v-283h178.75v-100h-313.75v299l-40 -25v108z" />
    <glyph glyph-name="lslash" unicode="&#x142;" horiz-adv-x="303" 
d="M19 274v108l56.25 35.0498v317.95h135v-233.829l57.5 35.8291v-108l-57.5 -35.8291v-240.171c0 -39.959 28.9277 -58.9795 72.5 -54v-106c-137.71 -6.88574 -207.5 45.4219 -207.5 143v173.05z" />
    <glyph glyph-name="Nacute" unicode="&#x143;" horiz-adv-x="444" 
d="M320.25 915l-98.75 -90h-97.5l65 90h131.25zM155.25 417h-7.5v-417h-123.75v735h120c47.4023 -139.079 95.6191 -277.506 142.5 -417.001h7.5v417h123.75v-735h-120c-47.4023 139.079 -95.6191 277.506 -142.5 417.001z" />
    <glyph glyph-name="nacute" unicode="&#x144;" horiz-adv-x="374" 
d="M284 727l-98.75 -90h-97.5l65 90h131.25zM347.75 448v-448h-126.25v433c0 21 -15 24 -30 24c-20.2354 0 -32.6172 -14.4893 -41.25 -26v-431h-126.25v547h126.25v-46c2.5 1 7.5 5 15 11c17.5078 14.0059 49.2363 43 87.5 43c64.3838 0 95 -57.6201 95 -107z" />
    <glyph glyph-name="Ncommaaccent" unicode="&#x145;" horiz-adv-x="444" 
d="M155.25 417h-7.5v-417h-123.75v735h120c47.4023 -139.079 95.6191 -277.506 142.5 -417.001h7.5v417h123.75v-735h-120c-47.4023 139.079 -95.6191 277.506 -142.5 417.001zM242.75 -123l-27.5 -65h-63.75l25 65h-38.75v69h105v-69z" />
    <glyph glyph-name="ncommaaccent" unicode="&#x146;" horiz-adv-x="374" 
d="M347.75 448v-448h-126.25v433c0 21 -15 24 -30 24c-20.2354 0 -32.6172 -14.4893 -41.25 -26v-431h-126.25v547h126.25v-46c2.5 1 7.5 5 15 11c17.5078 14.0059 49.2363 43 87.5 43c64.3838 0 95 -57.6201 95 -107zM242.75 -123l-27.5 -65h-63.75l25 65h-38.75v69h105
v-69z" />
    <glyph glyph-name="Ncaron" unicode="&#x147;" horiz-adv-x="444" 
d="M155.25 825l-86.25 90h115l37.5 -35l38.75 35h115l-86.25 -90h-133.75zM155.25 417h-7.5v-417h-123.75v735h120c47.4023 -139.079 95.6191 -277.506 142.5 -417.001h7.5v417h123.75v-735h-120c-47.4023 139.079 -95.6191 277.506 -142.5 417.001z" />
    <glyph glyph-name="ncaron" unicode="&#x148;" horiz-adv-x="374" 
d="M119 637l-86.25 90h115l37.5 -35l38.75 35h115l-86.25 -90h-133.75zM347.75 448v-448h-126.25v433c0 21 -15 24 -30 24c-20.2354 0 -32.6172 -14.4893 -41.25 -26v-431h-126.25v547h126.25v-46c2.5 1 7.5 5 15 11c17.5078 14.0059 49.2363 43 87.5 43
c64.3838 0 95 -57.6201 95 -107z" />
    <glyph glyph-name="napostrophe" unicode="&#x149;" horiz-adv-x="416" 
d="M124 635l-27.5 -65h-63.75l25 65h-38.75v69h105v-69zM390.25 448v-448h-126.25v433c0 21 -15 24 -30 24c-20.2354 0 -32.6172 -14.4893 -41.25 -26v-431h-126.25v547h126.25v-46c2.5 1 7.5 5 15 11c17.5078 14.0059 49.2363 43 87.5 43c64.3838 0 95 -57.6201 95 -107z
" />
    <glyph glyph-name="Eng" unicode="&#x14a;" horiz-adv-x="444" 
d="M294 735l123.75 -0.000976562v-735c-6.16211 -78.8818 -59.9023 -127.873 -173.75 -120.999v101c21.25 -3 40 2 52.5 17c1.25 1 1.25 2 2.5 3h-1.25c-47.4141 139.068 -95.6035 277.517 -142.5 417h-7.5v-417h-123.75v735h120
c47.416 -139.068 95.6055 -277.517 142.5 -417h7.5v417z" />
    <glyph glyph-name="eng" unicode="&#x14b;" horiz-adv-x="374" 
d="M252.75 555c63.833 0 92.2803 -55.1367 95 -103.001v-471c0 -81.042 -74.6973 -117.792 -192.5 -113v84c37.6797 -6.02832 66.25 8.9248 66.25 42.001v439c0 21 -15 24 -30 24c-20.2402 0 -32.6309 -14.5078 -41.25 -26v-431h-126.25v547h126.25v-46c2.5 1 7.5 5 15 11
c17.5342 14.0273 49.2168 43 87.5 43z" />
    <glyph glyph-name="Omacron" unicode="&#x14c;" horiz-adv-x="408" 
d="M83 909h242.5v-79h-242.5v79zM383 151c-1.25 -30 -8.75 -57 -22.5 -80c-24.7891 -44.0703 -74.2627 -79 -157.5 -79c-45 0 -80 9 -105 25c-47.1953 28.3164 -72.5117 74.2812 -75 134v433c1.25 29 8.75 56 22.5 79c25.2852 44.9531 72.2773 80 157.5 80
c45 0 78.75 -10 103.75 -25c47.2861 -28.3711 73.6924 -74.668 76.25 -134v-433zM203 638c-34.7549 0 -45 -27.6455 -45 -54v-433c0 -27.3291 11.3066 -54 45 -54c34.7549 0 45 25.9609 45 54v433c0 26.9004 -9.83496 54 -45 54z" />
    <glyph glyph-name="omacron" unicode="&#x14d;" horiz-adv-x="372" 
d="M65.5 721h242.5v-79h-242.5v79zM346.75 133c-3.75 -53 -23.75 -90 -67.5 -119c-22.5 -15 -53.75 -22 -95 -22c-81.25 0 -121.25 36 -141.25 72c-11.25 21 -18.75 45 -20 72v275c3.75 53 23.75 92 67.5 122c21.25 15 52.5 22 93.75 22c81.25 0 122.5 -36 142.5 -71
c11.25 -21 18.75 -44 20 -70v-281zM184.25 467c-33.4102 0 -45.6133 -28.6182 -42.501 -56v-275c-1.66113 -27.916 8.79395 -55 42.501 -55c34.207 0 46.9385 26.9365 43.75 55v275c1.67578 28.1523 -7.88574 56 -43.75 56z" />
    <glyph glyph-name="Obreve" unicode="&#x14e;" horiz-adv-x="408" 
d="M66.75 871l67.5 46c13.3281 -13.709 37.9316 -23 70 -23c33.2041 0 57.9346 8.43457 72.5 23l65 -46c-31.082 -24.8652 -74.0566 -47 -137.5 -47c-64.6562 0 -108.418 20.8262 -137.5 47zM383 151c-1.25 -30 -8.75 -57 -22.5 -80
c-24.7891 -44.0703 -74.2627 -79 -157.5 -79c-45 0 -80 9 -105 25c-47.1953 28.3164 -72.5117 74.2812 -75 134v433c1.25 29 8.75 56 22.5 79c25.2852 44.9531 72.2773 80 157.5 80c45 0 78.75 -10 103.75 -25c47.2861 -28.3711 73.6924 -74.668 76.25 -134v-433zM203 638
c-34.7549 0 -45 -27.6455 -45 -54v-433c0 -27.3291 11.3066 -54 45 -54c34.7549 0 45 25.9609 45 54v433c0 26.9004 -9.83496 54 -45 54z" />
    <glyph glyph-name="obreve" unicode="&#x14f;" horiz-adv-x="372" 
d="M49.25 683l67.5 46c13.3281 -13.709 37.9316 -23 70 -23c33.2041 0 57.9346 8.43457 72.5 23l65 -46c-31.082 -24.8652 -74.0566 -47 -137.5 -47c-64.6562 0 -108.418 20.8262 -137.5 47zM346.75 133c-3.75 -53 -23.75 -90 -67.5 -119c-22.5 -15 -53.75 -22 -95 -22
c-81.25 0 -121.25 36 -141.25 72c-11.25 21 -18.75 45 -20 72v275c3.75 53 23.75 92 67.5 122c21.25 15 52.5 22 93.75 22c81.25 0 122.5 -36 142.5 -71c11.25 -21 18.75 -44 20 -70v-281zM184.25 467c-33.4102 0 -45.6133 -28.6182 -42.501 -56v-275
c-1.66113 -27.916 8.79395 -55 42.501 -55c34.207 0 46.9385 26.9365 43.75 55v275c1.67578 28.1523 -7.88574 56 -43.75 56z" />
    <glyph glyph-name="Ohungarumlaut" unicode="&#x150;" horiz-adv-x="420" 
d="M215.25 915l-98.75 -90h-97.5l65 90h131.25zM400.25 915l-98.75 -90h-97.5l65 90h131.25zM387.75 151c-1.25 -30 -8.75 -57 -22.5 -80c-24.7891 -44.0703 -74.2627 -79 -157.5 -79c-45 0 -80 9 -105 25c-47.1953 28.3164 -72.5117 74.2812 -75 134v433
c1.25 29 8.75 56 22.5 79c25.2852 44.9531 72.2773 80 157.5 80c45 0 78.75 -10 103.75 -25c47.2861 -28.3711 73.6924 -74.668 76.25 -134v-433zM207.75 638c-34.7549 0 -45 -27.6455 -45 -54v-433c0 -27.3291 11.3066 -54 45 -54c34.7549 0 45 25.9609 45 54v433
c0 26.9004 -9.83496 54 -45 54z" />
    <glyph glyph-name="ohungarumlaut" unicode="&#x151;" horiz-adv-x="420" 
d="M215.25 727l-98.75 -90h-97.5l65 90h131.25zM400.25 727l-98.75 -90h-97.5l65 90h131.25zM370.25 133c-3.75 -53 -23.75 -90 -67.5 -119c-22.5 -15 -53.75 -22 -95 -22c-81.25 0 -121.25 36 -141.25 72c-11.25 21 -18.75 45 -20 72v275c3.75 53 23.75 92 67.5 122
c21.25 15 52.5 22 93.75 22c81.25 0 122.5 -36 142.5 -71c11.25 -21 18.75 -44 20 -70v-281zM207.75 467c-33.4102 0 -45.6133 -28.6182 -42.501 -56v-275c-1.66113 -27.916 8.79395 -55 42.501 -55c34.207 0 46.9385 26.9365 43.75 55v275
c1.67578 28.1523 -7.88574 56 -43.75 56z" />
    <glyph glyph-name="OE" unicode="&#x152;" horiz-adv-x="579" 
d="M203 0c-45 0 -80.001 10 -105.001 24c-46.7871 26.2012 -72.5303 69.7256 -74.999 127v433c1.25 28 8.75 53 22.5 75c26.1621 44.1846 71.8047 76 157.5 76h353.75v-111h-173.75v-193h125v-118h-125v-202h173.75v-111h-353.75zM202.999 638
c-34.7549 0 -45 -27.6455 -45 -54v-433c0 -27.3291 11.3057 -54 45 -54c34.7549 0 45 25.9609 45 54v440c0 21.7129 -13.6279 47 -45 47z" />
    <glyph glyph-name="oe" unicode="&#x153;" horiz-adv-x="580" 
d="M393 81c35.2822 0 45 26.873 45 55v60h117.5v-63c-3.75 -53 -23.75 -90 -68.75 -119c-22.5 -15 -53.75 -22 -95 -22c-46.25 0 -80 11 -103.75 28c-23.75 -16 -57.5 -28 -103.75 -28c-81.25 0 -121.25 36 -141.25 72c-11.25 21 -18.75 45 -20 72v275
c3.75 53 23.75 92 67.5 122c21.25 15 52.5 22 93.75 22c48.75 0 81.25 -12 105 -29c23.75 17 55 29 103.75 29c81.25 0 122.5 -36 142.5 -71c11.25 -21 18.75 -44 20 -70v-159h-208.75v-122c0 -21.6348 14.1943 -52 46.25 -52zM184.25 467
c-33.4102 0 -45.6133 -28.6182 -42.501 -56v-275c-1.66113 -27.916 8.79395 -55 42.501 -55c34.207 0 46.9385 26.9365 43.75 55v275c1.67578 28.1523 -7.88574 56 -43.75 56zM392.999 467c-32.6074 0 -46.25 -30.6992 -46.25 -53v-80h91.25v77c0 28.165 -9.07324 56 -45 56
z" />
    <glyph glyph-name="Racute" unicode="&#x154;" horiz-adv-x="420" 
d="M299 915l-98.75 -90h-97.5l65 90h131.25zM265.25 0l-70 310h-36.25v-310h-135v735h135c161.25 0 230 -73 230 -212c0 -73 -23.75 -139 -75 -167l86.25 -356h-135zM159 628v-218c70.6992 0 100 34.209 100 109c0 75.4541 -28.2285 109 -100 109z" />
    <glyph glyph-name="racute" unicode="&#x155;" horiz-adv-x="297" 
d="M276.5 443c-57.5 0 -124.178 -10.2734 -126.25 -63v-380h-126.25v547h126.25v-61c1.05371 58.0879 78.75 68 126.25 69v-112zM227.75 727l-98.75 -90h-97.5l65 90h131.25z" />
    <glyph glyph-name="Rcommaaccent" unicode="&#x156;" horiz-adv-x="420" 
d="M265.25 0l-70 310h-36.25v-310h-135v735h135c161.25 0 230 -73 230 -212c0 -73 -23.75 -139 -75 -167l86.25 -356h-135zM159 628v-218c70.6992 0 100 34.209 100 109c0 75.4541 -28.2285 109 -100 109zM242.75 -123l-27.5 -65h-63.75l25 65h-38.75v69h105v-69z" />
    <glyph glyph-name="rcommaaccent" unicode="&#x157;" horiz-adv-x="298" 
d="M276.5 443c-57.5 0 -124.178 -10.2734 -126.25 -63v-380h-126.25v547h126.25v-61c1.05371 58.0879 78.75 68 126.25 69v-112zM140.25 -117l-27.5 -65h-63.75l25 65h-38.75v69h105v-69z" />
    <glyph glyph-name="Rcaron" unicode="&#x158;" horiz-adv-x="420" 
d="M134 825l-86.25 90h115l37.5 -35l38.75 35h115l-86.25 -90h-133.75zM265.25 0l-70 310h-36.25v-310h-135v735h135c161.25 0 230 -73 230 -212c0 -73 -23.75 -139 -75 -167l86.25 -356h-135zM159 628v-218c70.6992 0 100 34.209 100 109c0 75.4541 -28.2285 109 -100 109z
" />
    <glyph glyph-name="rcaron" unicode="&#x159;" horiz-adv-x="345" 
d="M319 443c-57.5 0 -124.178 -10.2734 -126.25 -63v-380h-126.25v547h126.25v-61c1.05371 58.0879 78.75 68 126.25 69v-112zM105.25 637l-86.25 90h115l37.5 -35l38.75 35h115l-86.25 -90h-133.75z" />
    <glyph glyph-name="Sacute" unicode="&#x15a;" horiz-adv-x="424" 
d="M310.25 915l-98.75 -90h-97.5l65 90h131.25zM216.5 644c-35 -1 -46.25 -30 -46.25 -73c0 -25 13.75 -51 33.75 -79s46.25 -57 72.5 -88c31.25 -37 62.5 -75 86.25 -112s40 -75 40 -115c0 -106.384 -48.9502 -185 -187.5 -185c-161.269 0 -196.25 91.4385 -196.25 214
l132.5 10c0 -52.0625 3.47656 -125 63.75 -125c40 0 55 34 55 81c0 40.7559 -43.3418 93.0117 -70 125c-51.0312 58.3213 -124.041 137.824 -151.25 215c-7.5 19 -11.25 39 -11.25 59c0 91.2168 57.9824 170.145 176.25 172c81.25 1 128.75 -26 155 -65
c26.25 -40 33.75 -89 33.75 -130l-132.5 -10c0 41.0938 -5.58105 106 -53.75 106z" />
    <glyph glyph-name="sacute" unicode="&#x15b;" horiz-adv-x="378" 
d="M289 727l-98.75 -90h-97.5l65 90h131.25zM196.5 471c-32.8438 0 -38.75 -38.0225 -38.75 -63.999c0 -17 11.25 -35 27.5 -51c57.623 -61.4648 171.25 -108.129 171.25 -214c0 -81.6709 -53.8809 -150 -161.25 -150c-127.162 0 -176.25 78.1807 -176.25 167h117.5
c0 -36.3174 11.3848 -83 58.75 -83c36.25 0 43.75 34 43.75 66c0 33 -40 66 -78.75 97c-54.3945 41.7031 -120 86.2725 -120 168c0 80.0391 46.6035 146.214 153.75 148c125.626 1.70312 161.25 -60.3057 161.25 -148.001h-117.5c0 29.8066 -2.75586 64 -41.25 64z" />
    <glyph glyph-name="Scircumflex" unicode="&#x15c;" horiz-adv-x="424" 
d="M279 915l86.25 -90h-115l-38.75 35l-37.5 -35h-115l86.25 90h133.75zM216.5 644c-35 -1 -46.25 -30 -46.25 -73c0 -25 13.75 -51 33.75 -79s46.25 -57 72.5 -88c31.25 -37 62.5 -75 86.25 -112s40 -75 40 -115c0 -106.384 -48.9502 -185 -187.5 -185
c-161.269 0 -196.25 91.4385 -196.25 214l132.5 10c0 -52.0625 3.47656 -125 63.75 -125c40 0 55 34 55 81c0 40.7559 -43.3418 93.0117 -70 125c-51.0312 58.3213 -124.041 137.824 -151.25 215c-7.5 19 -11.25 39 -11.25 59c0 91.2168 57.9824 170.145 176.25 172
c81.25 1 128.75 -26 155 -65c26.25 -40 33.75 -89 33.75 -130l-132.5 -10c0 41.0938 -5.58105 106 -53.75 106z" />
    <glyph glyph-name="scircumflex" unicode="&#x15d;" horiz-adv-x="378" 
d="M257.75 727l86.25 -90h-115l-38.75 35l-37.5 -35h-115l86.25 90h133.75zM196.5 471c-32.8438 0 -38.75 -38.0225 -38.75 -63.999c0 -17 11.25 -35 27.5 -51c57.623 -61.4648 171.25 -108.129 171.25 -214c0 -81.6709 -53.8809 -150 -161.25 -150
c-127.162 0 -176.25 78.1807 -176.25 167h117.5c0 -36.3174 11.3848 -83 58.75 -83c36.25 0 43.75 34 43.75 66c0 33 -40 66 -78.75 97c-54.3945 41.7031 -120 86.2725 -120 168c0 80.0391 46.6035 146.214 153.75 148c125.626 1.70312 161.25 -60.3057 161.25 -148.001
h-117.5c0 29.8066 -2.75586 64 -41.25 64z" />
    <glyph glyph-name="Scedilla" unicode="&#x15e;" horiz-adv-x="424" 
d="M216.5 644c-35 -1 -46.25 -30 -46.25 -73c0 -25 13.75 -51 33.75 -79s46.25 -57 72.5 -88c31.25 -37 62.5 -75 86.25 -112s40 -75 40 -115c0 -106.384 -48.9502 -185 -187.5 -185c-161.269 0 -196.25 91.4385 -196.25 214l132.5 10c0 -52.0625 3.47656 -125 63.75 -125
c40 0 55 34 55 81c0 40.7559 -43.3418 93.0117 -70 125c-51.0312 58.3213 -124.041 137.824 -151.25 215c-7.5 19 -11.25 39 -11.25 59c0 91.2168 57.9824 170.145 176.25 172c81.25 1 128.75 -26 155 -65c26.25 -40 33.75 -89 33.75 -130l-132.5 -10
c0 41.0938 -5.58105 106 -53.75 106zM265.25 -123l-27.5 -65h-63.75l25 65h-38.75v69h105v-69z" />
    <glyph glyph-name="scedilla" unicode="&#x15f;" horiz-adv-x="379" 
d="M196.5 471c-32.8438 0 -38.75 -38.0225 -38.75 -63.999c0 -17 11.25 -35 27.5 -51c57.623 -61.4648 171.25 -108.129 171.25 -214c0 -81.6709 -53.8809 -150 -161.25 -150c-127.162 0 -176.25 78.1807 -176.25 167h117.5c0 -36.3174 11.3848 -83 58.75 -83
c36.25 0 43.75 34 43.75 66c0 33 -40 66 -78.75 97c-54.3945 41.7031 -120 86.2725 -120 168c0 80.0391 46.6035 146.214 153.75 148c125.626 1.70312 161.25 -60.3057 161.25 -148.001h-117.5c0 29.8066 -2.75586 64 -41.25 64zM242.75 -122.999l-27.5 -65h-63.75l25 65
h-38.75v69h105v-69z" />
    <glyph glyph-name="Scaron" unicode="&#x160;" horiz-adv-x="424" 
d="M144 800l-86.25 90h115l37.5 -35l38.75 35h115l-86.25 -90h-133.75zM216.5 644c-35 -1 -46.25 -30 -46.25 -73c0 -25 13.75 -51 33.75 -79s46.25 -57 72.5 -88c31.25 -37 62.5 -75 86.25 -112s40 -75 40 -115c0 -106.384 -48.9502 -185 -187.5 -185
c-161.269 0 -196.25 91.4385 -196.25 214l132.5 10c0 -52.0625 3.47656 -125 63.75 -125c40 0 55 34 55 81c0 40.7559 -43.3418 93.0117 -70 125c-51.0312 58.3213 -124.041 137.824 -151.25 215c-7.5 19 -11.25 39 -11.25 59c0 91.2168 57.9824 170.145 176.25 172
c81.25 1 128.75 -26 155 -65c26.25 -40 33.75 -89 33.75 -130l-132.5 -10c0 41.0938 -5.58105 106 -53.75 106z" />
    <glyph glyph-name="scaron" unicode="&#x161;" horiz-adv-x="378" 
d="M122.75 637l-86.25 90h115l37.5 -35l38.75 35h115l-86.25 -90h-133.75zM196.5 471c-32.8438 0 -38.75 -38.0225 -38.75 -63.999c0 -17 11.25 -35 27.5 -51c57.623 -61.4648 171.25 -108.129 171.25 -214c0 -81.6709 -53.8809 -150 -161.25 -150
c-127.162 0 -176.25 78.1807 -176.25 167h117.5c0 -36.3174 11.3848 -83 58.75 -83c36.25 0 43.75 34 43.75 66c0 33 -40 66 -78.75 97c-54.3945 41.7031 -120 86.2725 -120 168c0 80.0391 46.6035 146.214 153.75 148c125.626 1.70312 161.25 -60.3057 161.25 -148.001
h-117.5c0 29.8066 -2.75586 64 -41.25 64z" />
    <glyph glyph-name="Tcaron" unicode="&#x164;" horiz-adv-x="429" 
d="M149 825l-86.25 90h115l37.5 -35l38.75 35h115l-86.25 -90h-133.75zM19 624v111h390v-111h-127.5v-624h-135v624h-127.5z" />
    <glyph glyph-name="tcaron" unicode="&#x165;" horiz-adv-x="492" 
d="M471.5 624l-68.75 -130h-62.5l43.75 130h-43.75v111h131.25v-111zM249 94c16.2363 0 32.7393 1.29785 46.25 4v-99c-21.293 -3.40723 -36.6406 -7 -67.5 -7c-128.023 0 -145 93.5029 -145 184v280h-63.75v91h63.75v135h126.25v-135h86.25v-91h-86.25v-272
c0 -32.6426 0 -90 40 -90z" />
    <glyph glyph-name="Tbar" unicode="&#x166;" horiz-adv-x="429" 
d="M409 624h-127.5v-74h58.75v-79h-58.75v-471h-135v471h-48.75v79h48.75v74h-127.5v111h390v-111z" />
    <glyph glyph-name="tbar" unicode="&#x167;" horiz-adv-x="317" 
d="M227.75 -8c-128.053 0 -145 93.3467 -145 184v280h-63.75v91h63.75v95h-42.5v79h242.5v-79h-73.75v-95h86.25v-91h-86.25v-272c0 -32.6562 0 -90 40 -90c16.2012 0 32.7734 1.30469 46.25 4v-99c-21.2949 -3.40723 -36.6211 -7 -67.5 -7z" />
    <glyph glyph-name="Utilde" unicode="&#x168;" horiz-adv-x="409" 
d="M149.248 918c39.9805 0 73.1953 -17.0371 110 -19c26.9629 0 49.2031 7.81738 66.25 16v-74c-15.6328 -11.1162 -39.6289 -19 -66.25 -19c-18.75 0 -37.5 3 -53.75 9c-17.5 6 -36.25 9 -56.25 10c-26.9629 0 -49.2031 -7.81738 -66.25 -16v74
c15.6348 9.72852 39.627 19 66.25 19zM203 97c34.7539 0 45 25.9609 45 54v584h135v-584c-1.25 -30 -8.75 -57 -22.5 -80c-24.7891 -44.0703 -74.2637 -79 -157.5 -79c-45 0 -80 9 -105 25c-47.1953 28.3164 -72.5137 74.2812 -75 134v584h135v-584
c0 -27.3291 11.3047 -54 45 -54z" />
    <glyph glyph-name="utilde" unicode="&#x169;" 
d="M132.998 730c39.9805 0 73.1953 -17.0371 110 -19c26.9629 0 49.2031 7.81738 66.25 16v-74c-15.6328 -11.1162 -39.6289 -19 -66.25 -19c-18.75 0 -37.5 3 -53.75 9c-17.5 6 -36.25 9 -56.25 10c-26.9629 0 -49.2031 -7.81738 -66.25 -16v74
c15.6348 9.72852 39.627 19 66.25 19zM23 99v448h126.25v-433c0 -21 15 -24 30 -24c20.4238 0 32.3672 14.1543 41.25 26v431h126.25v-547h-126.25v46c-2.5 -1 -7.5 -5 -13.75 -10c-18.5508 -14.8408 -50.6094 -44 -88.75 -44c-63.3438 0 -95 57.3828 -95 107z" />
    <glyph glyph-name="Umacron" unicode="&#x16a;" horiz-adv-x="409" 
d="M83 909h242.5v-79h-242.5v79zM203 97c34.7549 0 45 25.9609 45 54v584h135v-584c-1.25 -30 -8.75 -57 -22.5 -80c-24.7891 -44.0703 -74.2627 -79 -157.5 -79c-45 0 -80 9 -105 25c-47.1953 28.3164 -72.5117 74.2812 -75 134v584h135v-584
c0 -27.3291 11.3066 -54 45 -54z" />
    <glyph glyph-name="umacron" unicode="&#x16b;" 
d="M66.75 721h242.5v-79h-242.5v79zM23 99l0.00195312 448h126.25v-433c0 -21 15 -24 30 -24c20.4219 0 32.3652 14.1543 41.248 26v431h126.25v-547h-126.25v46c-2.5 -1 -7.5 -5 -13.75 -10c-18.5508 -14.8408 -50.6094 -44 -88.75 -44c-63.3438 0 -95 57.3828 -95 107z
" />
    <glyph glyph-name="Ubreve" unicode="&#x16c;" horiz-adv-x="409" 
d="M66.75 871l67.5 46c13.3281 -13.709 37.9316 -23 70 -23c33.2041 0 57.9346 8.43457 72.5 23l65 -46c-31.082 -24.8652 -74.0566 -47 -137.5 -47c-64.6562 0 -108.418 20.8262 -137.5 47zM203 97c34.7549 0 45 25.9609 45 54v584h135v-584c-1.25 -30 -8.75 -57 -22.5 -80
c-24.7891 -44.0703 -74.2627 -79 -157.5 -79c-45 0 -80 9 -105 25c-47.1953 28.3164 -72.5117 74.2812 -75 134v584h135v-584c0 -27.3291 11.3066 -54 45 -54z" />
    <glyph glyph-name="ubreve" unicode="&#x16d;" 
d="M50.5 683l67.5 46c13.3262 -13.709 37.9316 -23 70 -23c33.2031 0 57.9336 8.43457 72.5 23l65 -46c-31.082 -24.8652 -74.0566 -47 -137.5 -47c-64.6562 0 -108.418 20.8262 -137.5 47zM23 99l0.00195312 448h126.25v-433c0 -21 15 -24 30 -24
c20.4219 0 32.3652 14.1543 41.248 26v431h126.25v-547h-126.25v46c-2.5 -1 -7.5 -5 -13.75 -10c-18.5508 -14.8408 -50.6094 -44 -88.75 -44c-63.3438 0 -95 57.3828 -95 107z" />
    <glyph glyph-name="Uring" unicode="&#x16e;" horiz-adv-x="409" 
d="M111.75 882c0 41 42.5 70 93.75 70s92.5 -29 92.5 -70s-41.25 -70 -92.5 -70s-93.75 29 -93.75 70zM159.25 882c0 -19 22.5 -35 46.25 -35s46.25 16 46.25 35s-22.5 35 -46.25 35s-46.25 -16 -46.25 -35zM203 97c34.7549 0 45 25.9609 45 54v584h135v-584
c-1.25 -30 -8.75 -57 -22.5 -80c-24.7891 -44.0703 -74.2627 -79 -157.5 -79c-45 0 -80 9 -105 25c-47.1953 28.3164 -72.5117 74.2812 -75 134v584h135v-584c0 -27.3291 11.3066 -54 45 -54z" />
    <glyph glyph-name="uring" unicode="&#x16f;" 
d="M94.25 694c0 41 42.5 70 93.75 70s92.5 -29 92.5 -70s-41.25 -70 -92.5 -70s-93.75 29 -93.75 70zM141.75 694c0 -19 22.5 -35 46.25 -35s46.25 16 46.25 35s-22.5 35 -46.25 35s-46.25 -16 -46.25 -35zM23 99l0.00195312 448h126.25v-433c0 -21 15 -24 30 -24
c20.4219 0 32.3652 14.1543 41.248 26v431h126.25v-547h-126.25v46c-2.5 -1 -7.5 -5 -13.75 -10c-18.5508 -14.8408 -50.6094 -44 -88.75 -44c-63.3438 0 -95 57.3828 -95 107z" />
    <glyph glyph-name="Uhungarumlaut" unicode="&#x170;" horiz-adv-x="420" 
d="M215.25 915l-98.75 -90h-97.5l65 90h131.25zM400.25 915l-98.75 -90h-97.5l65 90h131.25zM207.75 97c34.7549 0 45 25.9609 45 54v584h135v-584c-1.25 -30 -8.75 -57 -22.5 -80c-24.7891 -44.0703 -74.2627 -79 -157.5 -79c-45 0 -80 9 -105 25
c-47.1953 28.3164 -72.5117 74.2812 -75 134v584h135v-584c0 -27.3291 11.3066 -54 45 -54z" />
    <glyph glyph-name="uhungarumlaut" unicode="&#x171;" horiz-adv-x="420" 
d="M215.25 727l-98.75 -90h-97.5l65 90h131.25zM400.25 727l-98.75 -90h-97.5l65 90h131.25zM45.25 99l0.00195312 448h126.25v-433c0 -21 15 -24 30 -24c20.4229 0 32.3652 14.1543 41.249 26v431h126.25v-547h-126.25v46c-2.5 -1 -7.5 -5 -13.75 -10
c-18.5508 -14.8408 -50.6084 -44 -88.751 -44c-63.3418 0 -95 57.3828 -95 107z" />
    <glyph glyph-name="Uogonek" unicode="&#x172;" horiz-adv-x="409" 
d="M203 97c34.7695 0 45 25.9971 45 53.999v584h135v-584c-2.52832 -60.6719 -28.3867 -105.281 -76.25 -133.999c-11.25 -7 -23.75 -13 -38.75 -17h58.75c-21.25 -15 -36.25 -30 -47.5 -50c-6.25 -10 -8.75 -21 -8.75 -33c0 -29 33.75 -38 62.5 -38c21.25 0 37.5 4 52.5 9
l-10 -67c-26.25 -7 -42.5 -9 -63.75 -9c-81.25 0 -127.5 40 -127.5 85c0 28 20 53 41.25 72c11.25 11 23.75 21 40 30c-17.5 -4 -38.75 -7 -62.5 -7c-84.3594 0 -132.357 34.3018 -157.5 79c-13.75 23 -21.25 50 -22.5 80v584h135v-584c0 -27.3613 11.3223 -54 45 -54z" />
    <glyph glyph-name="uogonek" unicode="&#x173;" 
d="M179.25 90c20.4258 0 32.3789 14.1729 41.25 26v431h126.25v-547h-57.5c-21.25 -15 -36.25 -30 -47.5 -50c-6.25 -10 -8.75 -21 -8.75 -33c0 -29 33.75 -38 62.5 -38c21.25 0 37.5 4 52.5 9l-10 -67c-26.25 -7 -42.5 -9 -63.75 -9c-81.25 0 -127.5 40 -127.5 85
c0 28 20 53 41.25 72c11.25 11 25 22 41.25 31h-8.75v46c-2.5 -1 -7.5 -5 -13.75 -10c-18.5957 -14.877 -50.5654 -44 -88.75 -44c-63.3604 0 -95 57.3682 -95 107v448h126.25v-433c0 -21 15 -24 30 -24z" />
    <glyph glyph-name="Wcircumflex" unicode="&#x174;" horiz-adv-x="641" 
d="M386.5 915l86.25 -90h-115l-38.75 35l-37.5 -35h-115l86.25 90h133.75zM247.75 0h-105l-123.75 735h125c18.4756 -135.553 39.0859 -269.397 56.25 -405.999h10c20.6582 135.141 40.7959 270.697 61.25 406h97.5c20.459 -135.3 40.5869 -270.864 61.25 -406.001h10
l2.5 24l53.75 382h125l-123.75 -735h-105c-23.2852 130.372 -47.0312 260.375 -70 391h-5c-22.9766 -130.619 -46.708 -260.634 -70 -391z" />
    <glyph glyph-name="wcircumflex" unicode="&#x175;" horiz-adv-x="567" 
d="M351.5 727l86.25 -90h-115l-38.75 35l-37.5 -35h-115l86.25 90h133.75zM340.25 0c-18.4355 97.252 -35.9121 195.269 -55 291.999h-5l-6.25 -31l-48.75 -261h-105l-101.25 547h115c15.1621 -105.536 28.8594 -212.245 45 -316.999h7.5l6.25 31l52.5 286h75
c19.7168 -105.56 38.2344 -212.078 58.75 -317h7.5l5 31l40 286h115l-101.25 -547h-105z" />
    <glyph glyph-name="Ycircumflex" unicode="&#x176;" horiz-adv-x="449" 
d="M292.75 915l86.25 -90h-115l-38.75 35l-37.5 -35h-115l86.25 90h133.75zM219 500l3.75 -7h2.5l3.75 7l67.5 235h132.5l-137.5 -422v-313h-135v313l-137.5 422h132.5z" />
    <glyph glyph-name="ycircumflex" unicode="&#x177;" horiz-adv-x="397" 
d="M266.5 727l86.25 -90h-115l-38.75 35l-37.5 -35h-115l86.25 90h133.75zM135.25 -16l-116.25 563h123.75c17.0225 -121.715 37.9404 -240.313 52.5 -364h5l2.5 28l50 336h123.75l-121.25 -588c-11.8184 -73.752 -73.2041 -155 -175 -155h-15c-11.25 0 -26.25 1 -41.25 2
v90c1.25 -1 3.75 -1 7.5 -1c60.9883 -9.75781 103.75 39.8916 103.75 89z" />
    <glyph glyph-name="Ydieresis" unicode="&#x178;" horiz-adv-x="449" 
d="M77.75 898h116.25v-98h-116.25v98zM254 898h116.25v-98h-116.25v98zM219 500l3.75 -7h2.5l3.75 7l67.5 235h132.5l-137.5 -422v-313h-135v313l-137.5 422h132.5z" />
    <glyph glyph-name="Zacute" unicode="&#x179;" horiz-adv-x="399" 
d="M297.75 915l-98.75 -90h-97.5l65 90h131.25zM19 116l211.25 512h-181.25v107h327.5v-107l-215 -521h215v-107h-357.5v116z" />
    <glyph glyph-name="zacute" unicode="&#x17a;" horiz-adv-x="349" 
d="M274 727l-98.75 -90h-97.5l65 90h131.25zM19 82l173.75 373h-146.25v92h280v-82l-173.75 -373h173.75v-92h-307.5v82z" />
    <glyph glyph-name="Zdotaccent" unicode="&#x17b;" horiz-adv-x="400" 
d="M137.5 923h126.25v-101h-126.25v101zM20 116l211.25 512h-181.25v107h327.5v-107l-215 -521h215v-107h-357.5v116z" />
    <glyph glyph-name="zdotaccent" unicode="&#x17c;" horiz-adv-x="349" 
d="M112.75 735h126.25v-101h-126.25v101zM19 82l173.75 373h-146.25v92h280v-82l-173.75 -373h173.75v-92h-307.5v82z" />
    <glyph glyph-name="Zcaron" unicode="&#x17d;" horiz-adv-x="400" 
d="M147.5 800l-86.25 90h115l37.5 -35l38.75 35h115l-86.25 -90h-133.75zM20 116l211.25 512h-181.25v107h327.5v-107l-215 -521h215v-107h-357.5v116z" />
    <glyph glyph-name="zcaron" unicode="&#x17e;" horiz-adv-x="353" 
d="M112.75 637l-86.25 90h115l37.5 -35l38.75 35h115l-86.25 -90h-133.75zM19 82l173.75 373h-146.25v92h280v-82l-173.75 -373h173.75v-92h-307.5v82z" />
    <glyph glyph-name="longs" unicode="&#x17f;" horiz-adv-x="292" 
d="M24 0v573c0 121 65 154 158.75 154c26.25 0 56.25 -3 88.75 -8l-15 -78c-17.5 3 -35 4 -53.75 4c-60 0 -82.5 -17 -82.5 -80v-565h-96.25z" />
    <glyph glyph-name="uni021A" unicode="&#x21a;" horiz-adv-x="429" 
d="M19 624v111h390v-111h-127.5v-624h-135v624h-127.5zM285.25 -123l-27.5 -65h-63.75l25 65h-38.75v69h105v-69z" />
    <glyph glyph-name="uni021B" unicode="&#x21b;" horiz-adv-x="317" 
d="M249 94c16.2363 0 32.7393 1.29785 46.25 4v-99c-21.293 -3.40723 -36.6406 -7 -67.5 -7c-128.023 0 -145 93.5029 -145 184v280h-63.75v91h63.75v135h126.25v-135h86.25v-91h-86.25v-272c0 -32.6426 0 -90 40 -90zM275.25 -123l-27.5 -65h-63.75l25 65h-38.75v69h105
v-69z" />
    <glyph glyph-name="circumflex" unicode="&#x2c6;" horiz-adv-x="352" 
d="M243 727l86.25 -90h-115l-38.75 35l-37.5 -35h-115l86.25 90h133.75z" />
    <glyph glyph-name="caron" unicode="&#x2c7;" horiz-adv-x="352" 
d="M109.25 637l-86.25 90h115l37.5 -35l38.75 35h115l-86.25 -90h-133.75z" />
    <glyph glyph-name="breve" unicode="&#x2d8;" horiz-adv-x="321" 
d="M23 683l67.5 46c13.3281 -13.709 37.9316 -23 70 -23c33.2041 0 57.9346 8.43457 72.5 23l65 -46c-31.082 -24.8652 -74.0566 -47 -137.5 -47c-64.6562 0 -108.418 20.8262 -137.5 47z" />
    <glyph glyph-name="dotaccent" unicode="&#x2d9;" horiz-adv-x="176" 
d="M25 735h126.25v-101h-126.25v101z" />
    <glyph glyph-name="ring" unicode="&#x2da;" horiz-adv-x="233" 
d="M24 694c0 41 42.5 70 93.75 70s92.5 -29 92.5 -70s-41.25 -70 -92.5 -70s-93.75 29 -93.75 70zM71.5 694c0 -19 22.5 -35 46.25 -35s46.25 16 46.25 35s-22.5 35 -46.25 35s-46.25 -16 -46.25 -35z" />
    <glyph glyph-name="ogonek" unicode="&#x2db;" horiz-adv-x="252" 
d="M168.5 0c-21.25 -15 -36.25 -30 -47.5 -50c-6.25 -10 -8.75 -21 -8.75 -33c0 -29 33.75 -38 62.5 -38c21.25 0 37.5 4 52.5 9l-10 -67c-26.25 -7 -42.5 -9 -63.75 -9c-81.25 0 -127.5 40 -127.5 85c0 28 20 53 41.25 72c11.25 11 25 22 41.25 31h60z" />
    <glyph glyph-name="tilde" unicode="&#x2dc;" horiz-adv-x="292" 
d="M91.25 730c39.9805 0 73.1953 -17.0371 110 -19c26.9629 0 49.2031 7.81738 66.25 16v-74c-15.6328 -11.1162 -39.6289 -19 -66.25 -19c-18.75 0 -37.5 3 -53.75 9c-17.5 6 -36.25 9 -56.25 10c-26.9629 0 -49.2031 -7.81738 -66.25 -16v74
c15.6348 9.72852 39.6279 19 66.25 19z" />
    <glyph glyph-name="hungarumlaut" unicode="&#x2dd;" horiz-adv-x="427" 
d="M219.25 727l-98.75 -90h-97.5l65 90h131.25zM404.25 727l-98.75 -90h-97.5l65 90h131.25z" />
    <glyph glyph-name="endash" unicode="&#x2013;" horiz-adv-x="454" 
d="M26 412h402.5v-95h-402.5v95z" />
    <glyph glyph-name="emdash" unicode="&#x2014;" horiz-adv-x="556" 
d="M26 412h503.75v-95h-503.75v95z" />
    <glyph glyph-name="quoteleft" unicode="&#x2018;" horiz-adv-x="177" 
d="M23 605l68.75 130h62.5l-43.75 -130h43.75v-111h-131.25v111z" />
    <glyph glyph-name="quoteright" unicode="&#x2019;" horiz-adv-x="178" 
d="M155.25 624l-68.75 -130h-62.5l43.75 130h-43.75v111h131.25v-111z" />
    <glyph glyph-name="quotesinglbase" unicode="&#x201a;" horiz-adv-x="181" 
d="M156.25 0l-68.75 -130h-62.5l43.75 130h-43.75v111h131.25v-111z" />
    <glyph glyph-name="quotereversed" unicode="&#x201b;" horiz-adv-x="178" 
d="M23 624l68.75 -130h62.5l-43.75 130h43.75v111h-131.25v-111z" />
    <glyph glyph-name="quotedblleft" unicode="&#x201c;" horiz-adv-x="362" 
d="M23 605l68.75 130h62.5l-43.75 -130h43.75v-111h-131.25v111zM208 605l68.75 130h62.5l-43.75 -130h43.75v-111h-131.25v111z" />
    <glyph glyph-name="quotedblright" unicode="&#x201d;" horiz-adv-x="363" 
d="M155.25 624l-68.75 -130h-62.5l43.75 130h-43.75v111h131.25v-111zM340.25 624l-68.75 -130h-62.5l43.75 130h-43.75v111h131.25v-111z" />
    <glyph glyph-name="quotedblbase" unicode="&#x201e;" horiz-adv-x="366" 
d="M156.25 0l-68.75 -130h-62.5l43.75 130h-43.75v111h131.25v-111zM341.25 0l-68.75 -130h-62.5l43.75 130h-43.75v111h131.25v-111z" />
    <glyph glyph-name="uni201F" unicode="&#x201f;" horiz-adv-x="363" 
d="M154.25 735v-111h-43.75l43.75 -130h-62.5l-68.75 130v111h131.25zM339.25 735v-111h-43.75l43.75 -130h-62.5l-68.75 130v111h131.25z" />
    <glyph glyph-name="bullet" unicode="&#x2022;" horiz-adv-x="351" 
d="M176.75 520c84.2949 0 151.25 -53.5781 151.25 -121c0 -68.5645 -66.9727 -123 -151.25 -123c-85.7051 0 -153.75 54.4219 -153.75 123c0 67.4355 68.0273 121 153.75 121z" />
    <glyph glyph-name="onedotenleader" unicode="&#x2024;" horiz-adv-x="182" 
d="M26 111h131.25v-111h-131.25v111z" />
    <glyph glyph-name="twodotenleader" unicode="&#x2025;" horiz-adv-x="379" 
d="M26 111h131.25v-111h-131.25v111zM222.25 111h131.25v-111h-131.25v111z" />
    <glyph glyph-name="ellipsis" unicode="&#x2026;" horiz-adv-x="575" 
d="M26 111h131.25v-111h-131.25v111zM222.25 111h131.25v-111h-131.25v111zM418.5 111h131.25v-111h-131.25v111z" />
    <glyph glyph-name="Euro" unicode="&#x20ac;" horiz-adv-x="465" 
d="M267.5 638c-36.0264 0 -44.2588 -28.0703 -47.5 -54v-116h142.5v-67h-142.5v-67h142.5v-67h-142.5v-116c1.58984 -26.7051 13.8467 -54 47.5 -54c39.9863 0 51.25 23.666 51.25 54v41h126.25v-41c-1.25 -30 -8.75 -57 -22.5 -80
c-24.7891 -44.0703 -74.2627 -79 -157.5 -79c-45 0 -80 9 -105 25c-47.1953 28.3164 -72.5117 74.2812 -75 134v116h-65v67h65v67h-65v67h65v116c1.25 29 8.75 56 22.5 79c25.2852 44.9531 72.2773 80 157.5 80c45 0 78.75 -10 103.75 -25
c47.2861 -28.3711 73.6924 -74.668 76.25 -134v-41h-126.25v41c0 28.2783 -12.666 54 -51.25 54z" />
    <glyph glyph-name="trademark" unicode="&#x2122;" horiz-adv-x="525" 
d="M22 684v51h196.25v-51h-63.75v-283h-68.75v283h-63.75zM357 401l-48.75 219v-219h-62.5v334h83.75l41.25 -156h3.75l41.25 156h83.75v-334h-63.75v219l-47.5 -219h-31.25z" />
    <glyph glyph-name="minus" unicode="&#x2212;" horiz-adv-x="436" 
d="M26 401h383.75v-84h-383.75v84z" />
    <glyph glyph-name="fi" unicode="&#xfb01;" horiz-adv-x="454" 
d="M327.75 735v-90c-20.1865 4.03711 -36.4102 6 -67.5 6c-39.5723 0 -51.25 -33.6826 -51.25 -65v-39h218.75v-547h-126.25v456h-92.5v-456h-126.25v456h-63.75v91h63.75v15c0 28 -1.25 74 18.75 112c18.75 38 57.5 68 136.25 68c37.0986 0 60.1553 -3.58887 90 -7z" />
    <glyph glyph-name="fl" unicode="&#xfb02;" horiz-adv-x="454" 
d="M209 586v-39h63.75v-91h-63.75v-456h-126.25v456h-63.75v91h63.75v15c0 28 -1.25 74 18.75 112c18.75 38 57.5 68 136.25 68c37.0986 0 60.1553 -3.58887 90 -7h100v-735h-126.25v649c-11.25 1 -22.5 2 -41.25 2c-39.5723 0 -51.25 -33.6826 -51.25 -65z" />
    <glyph glyph-name="uni0093" horiz-adv-x="362" 
d="M23 605l68.75 130h62.5l-43.75 -130h43.75v-111h-131.25v111zM208 605l68.75 130h62.5l-43.75 -130h43.75v-111h-131.25v111z" />
    <glyph glyph-name="uni0094" horiz-adv-x="363" 
d="M155.25 624l-68.75 -130h-62.5l43.75 130h-43.75v111h131.25v-111zM340.25 624l-68.75 -130h-62.5l43.75 130h-43.75v111h131.25v-111z" />
    <glyph glyph-name="section" horiz-adv-x="423" 
d="M216.5 644c-35 -1 -46.25 -30 -46.25 -73c0 -25 13.75 -51 33.75 -79s46.25 -57 72.5 -88c31.25 -37 62.5 -75 86.25 -112s40 -75 40 -115c0 -106.384 -48.9502 -185 -187.5 -185c-161.269 0 -196.25 91.4385 -196.25 214l132.5 10c0 -52.0625 3.47656 -125 63.75 -125
c40 0 55 34 55 81c0 40.7559 -43.3418 93.0117 -70 125c-51.0312 58.3213 -124.041 137.824 -151.25 215c-7.5 19 -11.25 39 -11.25 59c0 91.2168 57.9824 170.145 176.25 172c81.25 1 128.75 -26 155 -65c26.25 -40 33.75 -89 33.75 -130l-132.5 -10
c0 41.0938 -5.58105 106 -53.75 106z" />
    </font>
</defs>
</svg>
