<?xml version="1.0" standalone="no"?>
<!DOCTYPE svg PUBLIC "-//W3C//DTD SVG 1.1//EN" "http://www.w3.org/Graphics/SVG/1.1/DTD/svg11.dtd" >
<svg xmlns="http://www.w3.org/2000/svg" xmlns:xlink="http://www.w3.org/1999/xlink" version="1.1">
<metadata>
Created by FontForge 20170812 at Sun Jul 12 03:07:08 2015
 By www-data
2009 - 2011, The League of Moveable Type, Design Modifications and New Weights 2015, Cannot Into Space Fonts
</metadata>
<defs>
<font id="WarsawGothic" horiz-adv-x="337" >
  <font-face 
    font-family="Warsaw Gothic"
    font-weight="400"
    font-stretch="normal"
    units-per-em="1000"
    panose-1="0 0 5 0 0 0 0 0 0 0"
    ascent="735"
    descent="-265"
    x-height="547"
    cap-height="735"
    bbox="-32 -250 777 952"
    underline-thickness="50"
    underline-position="-100"
    stemh="98"
    stemv="101"
    unicode-range="U+0020-FB02"
  />
<missing-glyph horiz-adv-x="154" 
 />
    <glyph glyph-name=".notdef" horiz-adv-x="154" 
 />
    <glyph glyph-name="space" unicode=" " horiz-adv-x="154" 
 />
    <glyph glyph-name="exclam" unicode="!" horiz-adv-x="189" 
d="M36 735h117l-27 -537h-63zM42 111h105v-111h-105v111z" />
    <glyph glyph-name="quotedbl" unicode="&#x22;" horiz-adv-x="260" 
d="M53 466l-15 269h105l-15 -269h-75zM177 466l-15 269h105l-15 -269h-75z" />
    <glyph glyph-name="numbersign" unicode="#" horiz-adv-x="602" 
d="M37 309h97l18 126h-96l13 95h96l28 205h96l-28 -205h127l28 205h96l-28 -205h94l-13 -95h-94l-18 -126h93l-13 -95h-93l-29 -214h-96l29 214h-127l-29 -214h-96l29 214h-97zM230 309h127l18 126h-127z" />
    <glyph glyph-name="dollar" unicode="$" horiz-adv-x="338" 
d="M315 596l-94 -12.001c-4 33 -14 62 -45 61c-31.8242 0 -41 -45.5303 -41 -79c0 -28 12 -57 28 -84c16 -28 37 -56 56 -81c33.8232 -46.1221 72.7842 -100.351 92 -157.999c6 -20 9 -41 9 -62c0 -93.2871 -34.373 -170.486 -120 -180v-106h-60v108
c-80.7803 14.6875 -119.838 83.3623 -122 172l94 6c1.87793 -45.0635 17.4434 -91 63 -91c36.5342 0 45 49.6436 45 90c0 45.3008 -32.8164 93.957 -55 126c-39.7822 51.7168 -98.4395 125.131 -120 197c-7 20 -10 40 -10 61c0 83.3174 32.4697 150.681 105 167v64h60v-61
c75.4551 -7.5459 106.354 -66.666 115 -138z" />
    <glyph glyph-name="percent" unicode="%" horiz-adv-x="489" 
d="M182 445c-1 -33 -13 -56 -33 -73c-10 -9 -25 -13 -44 -13c-40 0 -58 20 -69 43c-6 12 -9 26 -9 43v213c0 32 12 54 33 72c10 9 25 13 45 13c39 0 56 -22 67 -43c6 -12 9 -26 10 -42v-213zM77 0l270 735h64l-267 -735h-67zM105 685c-13.2979 0 -20.6816 -13.5908 -18 -27
v-213c-1 -11 1 -27 18 -27c15 0 17 16 17 27v213c0 12.0342 -4.07324 27 -17 27zM463 77c-1 -33 -13 -55 -33 -72c-10 -9 -25 -13 -44 -13c-40 0 -58 21 -69 42c-6 12 -9 26 -9 43v213c0 32 12 55 33 73c10 9 25 13 45 13c39 0 56 -22 67 -43c6 -13 9 -27 10 -43v-213z
M386 317c-13.2979 0 -20.6816 -13.5908 -18 -27v-213c-1.22656 -13.4941 4.50781 -28 18 -28c12.3955 0 17 14.9287 17 28v213c0 12.0342 -4.07324 27 -17 27z" />
    <glyph glyph-name="ampersand" unicode="&#x26;" horiz-adv-x="417" 
d="M24 154c0 83 41.999 150 82.999 213c-35 72 -52 139 -52 216c1 60 18 102 54 135c18 17 44 25 78 25c68 0 100 -40 115 -80c17 -47 24 -110 -14 -181c-19 -36 -43 -73 -72 -111c32 -73 53 -111 72 -139c13 37 20 86 23 103l86 -16
c-4.23926 -55.1152 -21.2314 -127.464 -44.999 -175c11 -12 20 -21 28 -26c8 -6 14 -10 17 -11v-115c-3 0 -7 1 -14 4c-22.9961 8.84473 -66.4053 40.4424 -88 64c-36 -41 -78 -68 -123 -68c-85.5996 0 -148 76.0518 -148 162zM186.999 657
c-21 0 -31.001 -18.001 -35.001 -37.001c-10.5 -48.3018 7.12012 -115.735 24.001 -156.999c24 37 49 84 49 123c1.29395 32.3457 -5.35254 71 -38 71zM237.998 127.999c-27 43 -54 87 -85 144c-11 -17 -17 -37 -22 -65c-7.02734 -40.7578 -2.89453 -121 46 -121
c27 0 42 18 61 42z" />
    <glyph glyph-name="quotesingle" unicode="'" horiz-adv-x="151" 
d="M43 466l-15 269h105l-15 -269h-75z" />
    <glyph glyph-name="parenleft" unicode="(" horiz-adv-x="274" 
d="M254 735c-48 -69 -80 -147 -106 -249c-13 -51 -20 -108 -20 -171c0 -125 31 -228 63 -303c18 -43 39 -82 63 -116l-79 -41c-53 83 -92 171 -121 283c-15 55 -22 114 -22 177c0 125 35 240 71 324c21 49 45 95 72 137z" />
    <glyph glyph-name="parenright" unicode=")" horiz-adv-x="274" 
d="M99 776c52 -84 91 -172 121 -283c15 -56 22 -115 22 -178c0 -125 -36 -240 -72 -324c-21 -49 -45 -95 -71 -136l-79 41c47 68 79 147 106 249c13 51 20 107 20 170c0 125 -32 228 -63 303c-19 43 -40 82 -63 117z" />
    <glyph glyph-name="asterisk" unicode="*" horiz-adv-x="331" 
d="M128 735h75l-9 -86l80 34l21 -72l-84 -17l56 -67l-64 -39l-38 74l-37 -74l-64 39l56 67l-84 17l21 72l80 -34z" />
    <glyph glyph-name="plus" unicode="+" horiz-adv-x="518" 
d="M36 401h181v169h84v-169h181v-84h-181v-169h-84v169h-181v84z" />
    <glyph glyph-name="comma" unicode="," horiz-adv-x="151" 
d="M127 0l-55 -130h-50l35 130h-35v111h105v-111z" />
    <glyph glyph-name="hyphen" unicode="-" horiz-adv-x="319" 
d="M18 317h284v-95h-284v95z" />
    <glyph glyph-name="period" unicode="." horiz-adv-x="157" 
d="M26 111h105v-111h-105v111z" />
    <glyph glyph-name="slash" unicode="/" horiz-adv-x="352" 
d="M269 735h79l-262 -807h-82z" />
    <glyph glyph-name="zero" unicode="0" horiz-adv-x="354" 
d="M321 151c-1 -30 -7 -57 -18 -80c-19.8311 -44.0703 -59.4102 -79 -126 -79c-36 0 -64 9 -84 25c-37.7559 28.3164 -58.0098 74.2812 -60 134v433c1 29 7 56 18 79c20.2285 44.9531 57.8223 80 126 80c36 0 63 -10 83 -25c37.8291 -28.3711 58.9541 -74.668 61 -134v-433z
M177 638c-27.8037 0 -36 -27.6455 -36 -54v-433c0 -27.3291 9.04492 -54 36 -54c27.8037 0 36 25.9609 36 54v433c0 26.9004 -7.86816 54 -36 54z" />
    <glyph glyph-name="one" unicode="1" horiz-adv-x="232" 
d="M12 645c45 7 129 77 135 90h45v-735h-108v576h-72v69z" />
    <glyph glyph-name="two" unicode="2" horiz-adv-x="357" 
d="M138 553c0 37.2363 2.48828 90 35.999 90c33.6641 0 35.8584 -54.4844 36.001 -90c0.415039 -103.705 -131 -355 -183 -446v-107h293v107h-171c55.4844 93.1348 169 302.958 169 453c0 106.327 -35.5508 183 -144 183c-111.731 0 -144 -82.8994 -144 -190h108z" />
    <glyph glyph-name="three" unicode="3" horiz-adv-x="335" 
d="M194 494v59.002c0 37.3477 1.78516 95 -34 95c-13 0 -21 -6 -25 -25c-5 -20 -7 -51 -7 -100h-106c0 109.177 16.8682 220 138 220c68 0 103 -35 121 -72s19 -77 19 -86c0 -110.247 -19.2773 -161.277 -53 -195c52 -41 62 -117 62 -202
c0 -35.9072 -4.81836 -63.7441 -19 -105.001c-17.9277 -47.8076 -53.0098 -91 -121 -91c-120.65 0 -143 110.365 -143 220h106c0 -49 3 -80 9 -99c6 -20 15 -26 28 -26c35.8076 0 34 55.4199 34 93c0 23 0 44 1 63c0 60.1318 -22.6836 86.377 -83 88.999h-9v90
c62.1221 4.1416 82 18.1748 82 72z" />
    <glyph glyph-name="four" unicode="4" horiz-adv-x="334" 
d="M179 160h-167v95l158 480h108v-480h50v-95h-50v-160h-99v160zM179 516l-75 -261h75v261z" />
    <glyph glyph-name="five" unicode="5" horiz-adv-x="344" 
d="M134 348h-91v387h261v-107h-168v-153c12 9 25 17 40 22c7 3 15 4 22 3c56 0 86 -32 102 -67s18 -73 18 -85v-164c0 -100.124 -28.9609 -192 -141 -192c-122.564 0 -141 106.825 -141 222h108v-29c0 -37 2 -63 7 -77c5 -15 13 -22 26 -22c11 0 20 7 25 21s8 40 8 77v164
c0 31 -11 54 -34 54c-21.9932 0 -42 -33.9941 -42 -54z" />
    <glyph glyph-name="six" unicode="6" horiz-adv-x="342" 
d="M173 743c68 0 102 -31 121 -67c19 -37 20 -82 20 -107v-46h-108c0 49 -1 81 -5 100s-12 26 -28 26c-32.7305 0 -33 -39.7979 -33 -80v-131c19 11 35 18 54 18c90.6475 0 120 -78.5879 120 -155v-150c0 -17 -2 -57 -21 -92c-19 -36 -55 -67 -120 -67
c-67 0 -101 31 -120 67c-19 35 -21 75 -21 92v418c0 91.96 31.2695 174 141 174zM140 119c0 -9 8 -33 33 -33c23 0 33 24 33 33v220c0 9 -10 33 -33 33s-32 -19 -33 -30v-223z" />
    <glyph glyph-name="seven" unicode="7" horiz-adv-x="288" 
d="M166 628h-162v107h272v-108l-108 -627h-112z" />
    <glyph glyph-name="eight" unicode="8" horiz-adv-x="340" 
d="M170 -8c-98.7021 0 -144 75.6914 -144 165v86c0 55 19 110 56 145c-33 33 -50 84 -50 135v62c0 9 1 49 19 86s51 72 119 72s102 -35 120 -72s18 -77 18 -86v-62c0 -51 -17 -102 -50 -135c37 -35 56 -90 56 -145v-86c0 -89.4316 -45.2773 -165 -144 -165zM202 547
c0 34 -2 59 -5 76c-4 17 -13 25 -27 25c-12 0 -20 -7 -24 -22c-9 -29 -10 -128 -2 -163c3 -18 12 -27 26 -27s23 9 27 27c3 17 5 45 5 84zM209 200c0 44 -2 77 -5 98c-4 21 -15 32 -34 32s-30 -11 -33 -32c-8 -43 -7 -150 3 -182c5 -17 15 -25 30 -25c19 0 30 10 34 29
c3 19 5 46 5 80z" />
    <glyph glyph-name="nine" unicode="9" horiz-adv-x="342" 
d="M169 743c65 0 101 -31 120 -66c19 -36 21 -76 21 -93v-418c0 -92.8076 -32.0576 -174 -141 -174c-108.9 0 -141 81.4287 -141 174v46h108c0 -49 1 -81 5 -100s12 -26 28 -26c33.2676 0 33 38.4697 33 80v138c-19 -11 -35 -18 -54 -18c-90.6475 0 -120 78.5879 -120 155
v143c0 81.1416 39.377 159 141 159zM202 616c0 9 -8 33 -33 33c-23 0 -33 -24 -33 -33v-213c0 -9 10 -33 33 -33s32 19 33 30v216z" />
    <glyph glyph-name="colon" unicode=":" horiz-adv-x="177" 
d="M36 547h105v-111h-105v111zM36 111h105v-111h-105v111z" />
    <glyph glyph-name="semicolon" unicode=";" horiz-adv-x="177" 
d="M36 547h105v-111h-105v111zM141 0l-55 -130h-50l35 130h-35v111h105v-111z" />
    <glyph glyph-name="less" unicode="&#x3c;" horiz-adv-x="517" 
d="M36 395l445 232v-97l-341 -174l341 -174v-97l-445 232v78z" />
    <glyph glyph-name="equal" unicode="=" horiz-adv-x="517" 
d="M36 506h445v-84h-445v84zM36 317h445v-84h-445v84z" />
    <glyph glyph-name="greater" unicode="&#x3e;" horiz-adv-x="517" 
d="M481 317l-445 -232v97l341 174l-341 174v97l445 -232v-78z" />
    <glyph glyph-name="question" unicode="?" horiz-adv-x="315" 
d="M99 574l-87 41c5 16 22 47 47 75c24 27 59 50 106 49c87.8809 -1.56934 130 -65.7227 130 -140c0 -41 -18 -71 -39 -107c-27.584 -45.9727 -60 -94.6904 -60 -169v-125h-93v125c0 98.0947 32.6514 163.752 67 221c14 23 23 42 26 55c3.27051 22.8955 -8.93359 46 -33 46
c-35.0645 0 -56.0801 -47.2393 -64 -71zM97 111h105v-111h-105v111z" />
    <glyph glyph-name="at" unicode="@" horiz-adv-x="426" 
d="M253 189c-53 0 -71 37 -71 84v237c0 45 18 83 71 83c26.6318 0 46.5889 -16.1777 55 -33v22c0 43.5039 -38.3467 77 -93 77c-53.8281 0 -93 -34.6934 -93 -77v-434c0 -43.3086 39.3271 -75 93 -75c43 0 66 11 82 31l74 -42c-27 -36 -72 -70 -156 -70
c-73 0 -119 28 -146 61c-28 33 -37 72 -37 95v434c0 24 9 65 37 99c27 34 73 62 146 62s119 -28 147 -62c27 -34 36 -75 36 -99v-387h-80l-10 27c-9.49902 -17.6406 -27.4238 -33 -55 -33zM308 502c0 16 -9 26 -24 26s-23 -9 -23 -26v-222c0 -17 8 -26 23 -26s24 7 24 26
v222z" />
    <glyph glyph-name="A" unicode="A" horiz-adv-x="374" 
d="M10 0l111 735h132l111 -735h-105l-20 150h-104l-20 -150h-105zM190 515h-6l-3 -19l-31 -232h74c-11.4639 83.5361 -21.8643 168.136 -34 251z" />
    <glyph glyph-name="B" unicode="B" horiz-adv-x="364" 
d="M332 540c0 -79.6826 -22.2334 -110.813 -67 -151.999c45.1582 -25.0879 75 -95.1006 75 -180c0 -120.037 -47.0059 -202.376 -167 -208.001h-133v735h95c135.271 0 197 -55.582 197 -195zM148 628.001v-196c52.7578 0 80 24.8779 80 98c0 73.085 -27.458 98 -80 98z
M148 107.001c9 0 30 -2 48 11s32 42 32 102s-14 89 -32 102s-39 11 -48 11v-226z" />
    <glyph glyph-name="C" unicode="C" horiz-adv-x="346" 
d="M179 638c-28.8213 0 -35.4072 -28.0703 -38 -54v-433c1.27148 -26.7051 11.0771 -54 38 -54c31.9893 0 41 23.666 41 54v101h101v-101c-1 -30 -7 -57 -18 -80c-19.8311 -44.0703 -59.4102 -79 -126 -79c-36 0 -64 9 -84 25c-37.7559 28.3164 -58.0098 74.2812 -60 134
v433c1 29 7 56 18 79c20.2285 44.9531 57.8223 80 126 80c36 0 63 -10 83 -25c37.8291 -28.3711 58.9541 -74.668 61 -134v-101h-101v101c0 28.2783 -10.1328 54 -41 54z" />
    <glyph glyph-name="D" unicode="D" horiz-adv-x="372" 
d="M40 0v735h85c100 0 154 -20 183 -76c28 -56 32 -148 32 -292s-4 -235 -32 -291c-29 -56 -83 -76 -183 -76h-85zM148 108c37 0 58 4 69 40c5 17 9 43 10 78s1 82 1 142s0 107 -1 142c-1 34 -5 60 -10 78c-11 35 -32 39 -69 39v-519z" />
    <glyph glyph-name="E" unicode="E" horiz-adv-x="307" 
d="M40 735h247v-111h-139v-193h100v-118h-100v-202h139v-111h-247v735z" />
    <glyph glyph-name="F" unicode="F" horiz-adv-x="301" 
d="M297 624h-149v-193h100v-111h-100v-320h-108v735h257v-111z" />
    <glyph glyph-name="G" unicode="G" horiz-adv-x="360" 
d="M177 638c-27.8037 0 -36.001 -27.6455 -36.001 -54v-442c0 -27.3291 9.04492 -54 36 -54c27.8037 0 36 25.9609 36 54v133h-43v91h151v-366h-64l-13 35c-20 -25 -49 -43 -84 -43s-59 9 -77 25c-34.6338 28.8623 -52.0225 73.3066 -49.999 134v433c1 29 7 56 18 79
c20.2285 44.9531 57.8223 80 126 80c36 0 63 -10 83 -25c37.8291 -28.3711 58.9541 -74.668 61 -134v-113h-108v113c0 26.9004 -7.86816 54 -36 54z" />
    <glyph glyph-name="H" unicode="H" horiz-adv-x="380" 
d="M232 320h-84v-320h-108v735h108v-304h84v304h108v-735h-108v320z" />
    <glyph glyph-name="I" unicode="I" horiz-adv-x="188" 
d="M40 735h108v-735h-108v735z" />
    <glyph glyph-name="J" unicode="J" horiz-adv-x="207" 
d="M64 153v582h108v-599c0 -97.5781 -55.832 -149.886 -166 -143v106c34.8574 -4.97949 58 14.041 58 54z" />
    <glyph glyph-name="K" unicode="K" horiz-adv-x="375" 
d="M148 735l-0.000976562 -257h4l5 12l90 245h105l-99 -242l112 -493h-105c-25.8477 111.819 -52.8496 222.484 -78 335h-3c-10.0469 -25.2861 -20.6777 -49.9883 -30.999 -75v-260h-108v735h108z" />
    <glyph glyph-name="L" unicode="L" horiz-adv-x="295" 
d="M40 735h108v-635h143v-100h-251v735z" />
    <glyph glyph-name="M" unicode="M" horiz-adv-x="484" 
d="M219 0c-24.1455 164.521 -49.7646 327.568 -73 493h-6v-493h-100v735h132l64 -336l5 -39h2l5 39l64 336h132v-735h-100v493h-6l-4 -31l-69 -462h-46z" />
    <glyph glyph-name="N" unicode="N" horiz-adv-x="395" 
d="M145 417h-6v-417h-99v735h96c37.9209 -139.079 76.4941 -277.506 113.999 -417.001h6v417h99v-735h-96c-37.9209 139.079 -76.4941 277.506 -113.999 417.001z" />
    <glyph glyph-name="O" unicode="O" horiz-adv-x="354" 
d="M321 151c-1 -30 -7 -57 -18 -80c-19.8311 -44.0703 -59.4102 -79 -126 -79c-36 0 -64 9 -84 25c-37.7559 28.3164 -58.0098 74.2812 -60 134v433c1 29 7 56 18 79c20.2285 44.9531 57.8223 80 126 80c36 0 63 -10 83 -25c37.8291 -28.3711 58.9541 -74.668 61 -134v-433z
M177 638c-27.8037 0 -36 -27.6455 -36 -54v-433c0 -27.3291 9.04492 -54 36 -54c27.8037 0 36 25.9609 36 54v433c0 26.9004 -7.86816 54 -36 54z" />
    <glyph glyph-name="P" unicode="P" horiz-adv-x="352" 
d="M338 515c0 -138.297 -68.709 -221 -190 -221v-294h-108v735h108c123.019 0 190 -80.4238 190 -220zM148 625v-221c71.7363 0 81 30.6416 81 107c0 76.1416 -9.02539 114 -81 114z" />
    <glyph glyph-name="Q" unicode="Q" horiz-adv-x="356" 
d="M299 62c9 -12 22 -22 43 -26v-92c-61 0 -92 26 -111 57c-15 -5 -33 -9 -54 -9c-36 0 -64 9 -84 25c-37.7559 28.3164 -58.0098 74.2812 -60 134v433c1 29 7 56 18 79c20.2285 44.9531 57.8223 80 126 80c36 0 63 -10 83 -25c37.8291 -28.3711 58.9541 -74.668 61 -134
v-433c0 -29.7998 -11.1006 -65.0215 -22 -89zM177 638c-27.8037 0 -36 -27.6455 -36 -54v-433c0 -27.3291 9.04492 -54 36 -54c27.8037 0 36 25.9609 36 54v433c0 26.9004 -7.86816 54 -36 54z" />
    <glyph glyph-name="R" unicode="R" horiz-adv-x="361" 
d="M148 310v-309.999h-108v735h108c129 0 184 -73 184 -212c0 -73 -19 -139 -60 -167c41.2637 -95.6562 50.6445 -237.622 69 -356h-108c-29.8535 101.328 -19.9941 255.042 -85 309.999zM148 410.001c56.4297 0 80 34.2656 80 109c0 75.498 -22.4541 109 -80 109v-218z" />
    <glyph glyph-name="S" unicode="S" horiz-adv-x="343" 
d="M176 644c-28 -1 -37 -30 -37 -73c0 -25 11 -51 27 -79s37 -57 58 -88c25 -37 50 -75 69 -112s32 -75 32 -115c0 -106.384 -39.1602 -185 -150 -185c-129.015 0 -157 91.4385 -157 214l106 10c0 -52.0625 2.78125 -125 51 -125c32 0 44 34 44 81
c0 40.7559 -34.6738 93.0117 -56 125c-40.8252 58.3213 -99.2324 137.824 -121 215c-6 19 -9 39 -9 59c0 91.2168 46.3857 170.145 141 172c65 1 103 -26 124 -65c21 -40 27 -89 27 -130l-106 -10c0 41.0938 -4.46484 106 -43 106z" />
    <glyph glyph-name="T" unicode="T" horiz-adv-x="316" 
d="M2 624v111h312v-111h-102v-624h-108v624h-102z" />
    <glyph glyph-name="U" unicode="U" horiz-adv-x="366" 
d="M183 97c27.8037 0 36 25.9609 36 54v584h108v-584c-1 -30 -7 -57 -18 -80c-19.8311 -44.0703 -59.4102 -79 -126 -79c-36 0 -64 9 -84 25c-37.7559 28.3164 -58.0098 74.2812 -60 134v584h108v-584c0 -27.3291 9.04492 -54 36 -54z" />
    <glyph glyph-name="V" unicode="V" horiz-adv-x="350" 
d="M236 735l105 0.000976562l-112 -735h-108l-112 735h105c19.292 -145.041 38.918 -289.749 58 -435h6c19.0879 145.245 38.7031 289.963 58 434.999z" />
    <glyph glyph-name="W" unicode="W" horiz-adv-x="506" 
d="M195 0h-84l-99 735h100c14.7803 -135.553 31.2686 -269.397 45 -405.999h8c16.5264 135.141 32.6367 270.697 49 406h78c16.3672 -135.3 32.4697 -270.864 49 -406.001h8l2 24l43 382h100l-99 -735h-84c-18.6279 130.372 -37.625 260.375 -56 391h-4
c-18.3809 -130.619 -37.3662 -260.634 -56 -391z" />
    <glyph glyph-name="X" unicode="X" horiz-adv-x="360" 
d="M114 0h-106.001l119 386l-117 349h106c20.707 -64.96 41.1104 -130.224 62.001 -195h4c20.8857 64.7812 41.2979 130.036 62 195h106l-117 -349l119 -386h-106c-21.1758 76.1572 -43.5371 151.129 -64 228h-4l-2 -9z" />
    <glyph glyph-name="Y" unicode="Y" horiz-adv-x="342" 
d="M167 500l3 -7h2l3 7l54 235h106l-110 -422v-313h-108v313l-110 422h106z" />
    <glyph glyph-name="Z" unicode="Z" horiz-adv-x="306" 
d="M10 116l169 512h-145v107h262v-107l-172 -521h172v-107h-286v116z" />
    <glyph glyph-name="bracketleft" unicode="[" horiz-adv-x="263" 
d="M235 639h-99v-647h99v-96h-195v839h195v-96z" />
    <glyph glyph-name="backslash" unicode="\" horiz-adv-x="387" 
d="M383 -88h-82l-297 914h79z" />
    <glyph glyph-name="bracketright" unicode="]" horiz-adv-x="263" 
d="M28 735h195v-839h-195v96h99v647h-99v96z" />
    <glyph glyph-name="asciicircum" unicode="^" horiz-adv-x="538" 
d="M326 735l186 -340h-97l-146 265l-146 -265h-97l186 340h114z" />
    <glyph glyph-name="underscore" unicode="_" horiz-adv-x="591" 
d="M36 -75h519v-84h-519v84z" />
    <glyph glyph-name="grave" unicode="`" horiz-adv-x="500" 
d="M248 727l52 -90h-78l-79 90h105z" />
    <glyph glyph-name="a" unicode="a" horiz-adv-x="323" 
d="M24 127c0 159.809 116 230 169 230v60c0 24.8906 -2.06055 50 -28 50c-25.1475 0 -29 -37.6289 -29 -87l-101 29c0 78.7441 57.3848 146 136 146c68.0234 0 123 -54.6201 123 -124v-336c0 -17 0 -71 12 -95h-104c-9 11 -9 37 -9 44c-36 -81 -169 -64.5156 -169 83z
M120 142c0 -78 73 -38 73 -9v131c-49 0 -73 -70 -73 -122z" />
    <glyph glyph-name="b" unicode="b" horiz-adv-x="335" 
d="M299 448l0.000976562 -349c0 -50.8525 -26.2363 -107 -78 -107c-32.6768 0 -60.291 26.4805 -80.001 44v-36h-101v735h101v-224c17 16 32 28 52 37c9 5 19 7 28 7c52.5908 0 78 -56.3916 78 -107zM141.001 120c0 -19 15 -33 30 -33s27 14 27 33v307c0 19 -12 33 -27 33
s-30 -17 -30 -33v-307z" />
    <glyph glyph-name="c" unicode="c" horiz-adv-x="315" 
d="M161 -8c-90.7148 0 -129 59.5488 -129 162v239c0 102.391 38.3564 162 129 162c98.2139 0 130 -49.874 130 -157v-43h-101v66c0 33 -6 44 -29 44c-27 0 -28 -24 -28 -44v-295c0 -20 1 -44 28 -44c23 0 29 11 29 44v76h101v-53c0 -107.083 -31.8184 -157 -130 -157z" />
    <glyph glyph-name="d" unicode="d" horiz-adv-x="335" 
d="M36 99l-0.000976562 349c0 49.3633 25.5781 107 78 107c32.6768 0 60.291 -26.4805 80.001 -44v224h101v-735h-101v36c-17 -16 -32 -28 -51 -37c-10 -5 -20 -7 -29 -7c-51.5547 0 -78 57.4307 -78 107zM193.999 427c0 16 -15 33 -30 33s-27 -14 -27 -33v-307
c0 -19 12 -33 27 -33s30 14 30 33v307z" />
    <glyph glyph-name="e" unicode="e" horiz-adv-x="322" 
d="M163 81c28.2256 0 36 26.873 36 55v60h94v-63c-3 -53 -19 -90 -55 -119c-18 -15 -43 -22 -76 -22c-65 0 -98 36 -114 72c-9 21 -15 45 -16 72v275c3 53 20 92 56 122c17 15 42 22 75 22c65 0 98 -36 114 -71c9 -21 15 -44 16 -70v-159h-167v-119
c1.30078 -27.3135 10.0234 -55 37 -55zM163 467c-28.46 0 -34.54 -28.9434 -37 -56v-77h73v77c0 28.165 -7.25879 56 -36 56z" />
    <glyph glyph-name="f" unicode="f" horiz-adv-x="232" 
d="M177 739c16 0 27 -1 35 -4l12 -3v-87c-8.25586 2.75195 -20.167 4 -30 4c-25.2891 0 -32 -35.6162 -32 -64v-38h51v-91h-51v-456h-101v456h-51v91h51v15c0 86.9961 15.6143 177 116 177z" />
    <glyph glyph-name="g" unicode="g" horiz-adv-x="342" 
d="M157 462c-23.3877 0 -31.6377 -26.2578 -29 -50v-150c-1.26953 -24.1162 5.3877 -49 29 -49c24.9355 0 31 24.5244 31 49v150c0 24.374 -6.5166 50 -31 50zM282 453c4 -11 5 -27 5 -34v-155c-3 -51 -18.7549 -90.1934 -56 -114c-30.8975 -19.749 -107 -10 -107 -45
c0 -25.8115 51.2383 -29.9326 77 -34c73.3193 -9.16504 140 -38.833 140 -127c0 -99.2461 -79.5938 -140 -173 -140c-87.7295 0 -162 21.0664 -162 106l98 17c0 -21 19 -38 66 -38c29.2041 0 77 9.49805 77 37c0 76.1582 -223 32 -223 140c0 34.8154 38.3799 68.8691 63 82
c-29 19 -43 49 -50 74c-4 15 -7 30 -8 45v149c4 51 20 88 55 117c17 15 42 22 73 22c51 0 82 -23 101 -50c14.5762 14.5762 52.6328 50 83 50v-90c-27 0 -47 -5 -59 -12z" />
    <glyph glyph-name="h" unicode="h" 
d="M299 448v-448h-101v433c0 21 -12 24 -24 24c-16.1885 0 -26.0938 -14.4893 -33 -26v-431h-101v735h101v-234c2 1 6 5 12 11c14.0059 14.0059 39.3887 43 70 43c51.5068 0 76 -57.6201 76 -107z" />
    <glyph glyph-name="i" unicode="i" horiz-adv-x="181" 
d="M40 735h101v-101h-101v101zM40 0v547h101v-547h-101z" />
    <glyph glyph-name="j" unicode="j" horiz-adv-x="178" 
d="M37 735h101v-101h-101v101zM-22 -182l0.000976562 93c7.58691 -2.5293 19.6836 -4 28 -4c24.9268 0 31 29.332 31 57v583h101v-561c0 -28 0 -72 -14 -108c-14 -37 -45 -66 -102 -66c-22.7178 0 -31.0947 1.69824 -44.001 6z" />
    <glyph glyph-name="k" unicode="k" horiz-adv-x="313" 
d="M141 735v-349.001h5c18.1045 53.8955 36.6924 107.308 55 161h91l-73 -178l92 -369h-97c-17.3906 76.2764 -34.3506 152.983 -52 229.001h-5l-3 -8l-13 -32v-189h-101v735h101z" />
    <glyph glyph-name="l" unicode="l" horiz-adv-x="181" 
d="M145 153c0 -39.959 23.1426 -58.9795 58 -54v-106c-110.168 -6.88574 -166 45.4219 -166 143v599h108v-582z" />
    <glyph glyph-name="m" unicode="m" horiz-adv-x="499" 
d="M141 431v-431h-101v547h101v-46c2 1 6 5 12 11c11 11 28 26 46 36c9 5 17 7 26 7c36 0 57 -29 68 -61c4 3 9 8 16 15c13 14 30 27 49 38c9 5 18 8 27 8c51.5068 0 76 -57.6201 76 -107v-448h-95v433c0 21 -16 24 -27 24c-16.6846 0 -31.0244 -14.374 -38 -26v-431h-95
v433c0 21 -16 24 -27 24c-16.6846 0 -31.0244 -14.374 -38 -26z" />
    <glyph glyph-name="n" unicode="n" 
d="M299 448v-448h-101v433c0 21 -12 24 -24 24c-16.1885 0 -26.0938 -14.4893 -33 -26v-431h-101v547h101v-46c2 1 6 5 12 11c14.0059 14.0059 39.3887 43 70 43c51.5068 0 76 -57.6201 76 -107z" />
    <glyph glyph-name="o" unicode="o" horiz-adv-x="321" 
d="M290 133c-3 -53 -19 -90 -54 -119c-18 -15 -43 -22 -76 -22c-65 0 -97 36 -113 72c-9 21 -15 45 -16 72v275c3 53 19 92 54 122c17 15 42 22 75 22c65 0 98 -36 114 -71c9 -21 15 -44 16 -70v-281zM160 467c-26.7285 0 -36.4902 -28.6182 -34.001 -56v-275
c-1.3291 -27.916 7.03516 -55 34.001 -55c27.3652 0 37.5508 26.9365 35 55v275c1.34082 28.1523 -6.30859 56 -35 56z" />
    <glyph glyph-name="p" unicode="p" horiz-adv-x="335" 
d="M299 448l0.000976562 -349c0 -50.8525 -26.2363 -107 -78 -107c-32.6768 0 -60.291 26.4805 -80.001 44v-224h-101v735h101v-36c17 16 32 28 52 37c9 5 19 7 28 7c52.5908 0 78 -56.3916 78 -107zM141.001 120c0 -16 15 -33 30 -33s27 14 27 33v307c0 19 -12 33 -27 33
s-30 -14 -30 -33v-307z" />
    <glyph glyph-name="q" unicode="q" horiz-adv-x="335" 
d="M36 99l-0.000976562 349c0 49.3633 25.5781 107 78 107c32.6768 0 60.291 -26.4805 80.001 -44v36h101v-735h-101v224c-17 -16 -32 -28 -51 -37c-10 -5 -20 -7 -29 -7c-51.5547 0 -78 57.4307 -78 107zM193.999 427c0 19 -15 33 -30 33s-27 -14 -27 -33v-307
c0 -19 12 -33 27 -33s30 17 30 33v307z" />
    <glyph glyph-name="r" unicode="r" horiz-adv-x="246" 
d="M242 443c-46 0 -99.3418 -10.2734 -101 -63v-380h-101v547h101v-61c0.842773 58.0879 63 68 101 69v-112z" />
    <glyph glyph-name="s" unicode="s" horiz-adv-x="308" 
d="M160 471c-26.2754 0 -31 -38.0225 -31 -63.999c0 -17 9 -35 22 -51c46.0986 -61.4648 137 -108.129 137 -214c0 -81.6709 -43.1045 -150 -129 -150c-101.729 0 -141 78.1807 -141 167h94c0 -36.3174 9.10742 -83 47 -83c29 0 35 34 35 66c0 33 -32 66 -63 97
c-43.5156 41.7031 -96 86.2725 -96 168c0 80.0391 37.2832 146.214 123 148c100.501 1.70312 129 -60.3057 129 -148.001h-94c0 29.8066 -2.20508 64 -33 64z" />
    <glyph glyph-name="t" unicode="t" horiz-adv-x="245" 
d="M194 94c12.9893 0 26.1914 1.29785 37 4v-99c-17.0342 -3.40723 -29.3125 -7 -54 -7c-102.419 0 -116 93.5029 -116 184v280h-51v91h51v135h101v-135h69v-91h-69v-272c0 -32.6426 0 -90 32 -90z" />
    <glyph glyph-name="u" unicode="u" 
d="M38 99l0.00195312 448h101v-433c0 -21 12 -24 24 -24c16.3379 0 25.8916 14.1543 32.999 26v431h101v-547h-101v46c-2 -1 -6 -5 -11 -10c-14.8408 -14.8408 -40.4873 -44 -71.001 -44c-50.6738 0 -76 57.3828 -76 107z" />
    <glyph glyph-name="v" unicode="v" horiz-adv-x="294" 
d="M97 0l-89 547h98c12.4209 -117.246 24.0518 -235.282 37 -352h8l4 35l33 317h98l-89 -547h-100z" />
    <glyph glyph-name="w" unicode="w" horiz-adv-x="442" 
d="M267 0c-14.748 97.252 -28.7295 195.269 -43.999 291.999h-4l-5 -31l-39 -261h-84l-81 547h92c12.1299 -105.536 23.0869 -212.245 35.999 -316.999h6l5 31l42 286h60c15.7734 -105.56 30.5879 -212.078 47 -317h6l4 31l32 286h92l-81 -547h-84z" />
    <glyph glyph-name="x" unicode="x" horiz-adv-x="302" 
d="M102 282l-86 265.001h95c12.7402 -47.9268 27.8164 -93.5176 39 -143.001h2l3 15l36 128h95l-86 -265l94 -282h-98c-14.3408 51.3262 -31.5039 99.8301 -44 153h-2l-3 -15l-41 -138h-98z" />
    <glyph glyph-name="y" unicode="y" horiz-adv-x="310" 
d="M105 -16l-93 563h99c13.6182 -121.715 30.3525 -240.313 42 -364h4l2 28l40 336h99l-97 -588c-9.45508 -73.752 -58.5635 -155 -140 -155h-12c-9 0 -21 1 -33 2v90c1 -1 3 -1 6 -1c48.791 -9.75781 83 39.8916 83 89z" />
    <glyph glyph-name="z" unicode="z" horiz-adv-x="260" 
d="M6 82l139 373h-117v92h224v-82l-139 -373h139v-92h-246v82z" />
    <glyph glyph-name="braceleft" unicode="{" horiz-adv-x="336" 
d="M190 563v-194c0 -53 -23 -84 -62 -108c39 -25 62 -56 62 -108v-194c0 -81.459 34.7666 -96 118 -96v-84c-152.92 -1.98633 -214 28.7969 -214 180v194c0 31.7939 -24.8027 66.5488 -64 68.001v80c40.0615 0 64 35.4902 64 68v194c0 151.204 61.0811 181.985 214 179.999
v-84c-83.2217 0 -118 -14.543 -118 -96z" />
    <glyph glyph-name="bar" unicode="|" horiz-adv-x="174" 
d="M40 -250v1076h94v-1076h-94z" />
    <glyph glyph-name="braceright" unicode="}" horiz-adv-x="336" 
d="M306 301v-80.001c-39.1475 -1.4502 -64 -36.3223 -64 -68v-194c0 -152.099 -60.2754 -181.996 -214 -180v84c83.2217 0 118 14.543 118 96v194c0 52 23 83 62 108c-39 24 -62 55 -62 108v194c0 81.459 -34.7666 96 -118 96v84c153.741 1.99707 214 -27.9033 214 -179.999
v-194c0 -32.6367 23.8975 -68 64 -68z" />
    <glyph glyph-name="asciitilde" unicode="~" horiz-adv-x="625" 
d="M532 814l65.999 -28c-21 -57 -49 -97 -88 -128c-20 -15 -44 -23 -71 -23c-56 0 -94 24 -133 49c-28 19 -56 36 -87 36c-35 0 -59 -21 -75 -44c-9 -13 -17 -27 -23 -44l-66 28c19 56 48 95 89 127c21 15 46 23 75 23c60 0 96 -26 135 -50c27 -19 54 -35 85 -35
c51.0225 0 76.7295 49.4844 93.001 89z" />
    <glyph glyph-name="exclamdown" unicode="&#xa1;" horiz-adv-x="189" 
d="M42 547h105v-111h-105v111zM63 349h63l27 -537h-117z" />
    <glyph glyph-name="cent" unicode="&#xa2;" horiz-adv-x="311" 
d="M287 492v-43h-92v66c0 33 -13 44 -36 44c-27 0 -35 -24 -35 -44v-295c0 -20 8 -44 35 -44c23 0 36 11 36 44v76h92v-53c0 -104 -32 -146 -93 -155v-148h-60v147c-60 9 -102 53 -102 161v239c0 107 42 151 102 160v118h60v-119c71.209 -11.4854 93 -63.041 93 -154z" />
    <glyph glyph-name="sterling" unicode="&#xa3;" horiz-adv-x="399" 
d="M193 643c-33.7021 0 -44.001 -47.3555 -44.001 -82c0 -53 17 -109 34 -165l3 -12h103v-67h-85c8 -33 12 -62 12 -85c0 -27 -9 -68 -28 -107c13 -6 24 -12 34 -18c9 -7 20 -10 31 -11c9 1 18 8 26 22c8 13 13 37 14 71l92 -11c-8 -123 -59 -186 -123 -186
c-24 0 -47 13 -70 25s-44 25 -63 25c-28.4941 0 -48.6445 -27.9355 -55.999 -50l-71 39c15 33 33 59 58 82c13 11 28 19 45 22c11 31 18 69 18 97c0 25 -6 54 -15 85h-92v67h72l-3 10c-19 63 -38 126 -38 167c0 96.1396 43.4922 180.173 144 182
c120.438 1.85254 162 -83.5303 162 -196h-104c0 47.2051 -8.94922 96 -56 96z" />
    <glyph glyph-name="currency" unicode="&#xa4;" horiz-adv-x="321" 
d="M160 467c-26.7285 0 -36.4902 -28.6182 -34.001 -56v-275c-1.3291 -27.916 7.03516 -55 34.001 -55c27.3652 0 37.5508 26.9365 35 55v275c1.34082 28.1523 -6.30859 56 -35 56zM55.998 46.835c-14.3828 23.3916 -23.7158 54.4844 -25 89.1641v275
c1.96777 34.7617 9.52734 63.501 24.3721 87.6279l-66.2246 66.2246l57.9834 57.9834l72.3828 -72.3828c11.7998 3.06445 25.2949 4.54785 40.4854 4.54785c15.2627 0 28.7607 -1.98438 40.6885 -5.47461l73.3115 73.3115l57.9834 -57.9834l-65.915 -65.915
c13.7227 -22.3975 22.6934 -52.7266 23.9326 -84.9375v-281c-1.98047 -34.9951 -9.62891 -63.0146 -24.6719 -86.3613l66.6562 -66.6562l-57.9834 -57.9834l-74.3184 74.3184c-11.6768 -2.90918 -24.874 -4.31836 -39.6816 -4.31836
c-14.2129 0 -26.8477 1.7207 -38.082 4.78711l-74.7871 -74.7871l-57.9834 57.9834z" />
    <glyph glyph-name="yen" unicode="&#xa5;" horiz-adv-x="352" 
d="M36 233h86v67h-86v67h72l-96 368h106l54 -235l3 -7h2l3 7l54 235h106l-96 -368h72v-67h-86v-67h86v-67h-86v-166h-108v166h-86v67z" />
    <glyph glyph-name="brokenbar" unicode="&#xa6;" horiz-adv-x="174" 
d="M134 826v-466l-94 -3v469h94zM40 246h94v-496h-94v496z" />
    <glyph glyph-name="dieresis" unicode="&#xa8;" horiz-adv-x="500" 
d="M133 735h93v-98h-93v98zM274 735h93v-98h-93v98z" />
    <glyph glyph-name="copyright" unicode="&#xa9;" horiz-adv-x="803" 
d="M401 743c208 0 376 -168 376 -376c0 -207.008 -168.527 -375 -376 -375c-206.479 0 -375 168.526 -375 375c0 207.47 167.999 376 375 376zM401 50c173.764 0 318 142.996 318 317c0 175.357 -142.656 318 -318 318c-173.997 0 -317 -144.242 -317 -318
c0 -172.407 144.578 -317 317 -317zM400 142c-48 0 -71.001 24 -83.001 48c-7 14 -11 30 -11 48v259c0 54.0801 33.5137 96 94 96c47 0 68 -24 80 -48c7 -14 11 -30 12 -48v-61h-67v61c1.42578 15.6855 -6.07617 31 -24 31c-16.5859 0 -24 -15.7139 -24 -31v-259
c0 -16.4756 6.98535 -31 24 -31c17.3906 0 26.7646 14.416 24.001 31v61h67v-61c-4.41211 -52.9424 -30.7246 -96 -92 -96z" />
    <glyph glyph-name="guillemotleft" unicode="&#xab;" horiz-adv-x="517" 
d="M220 395l253 232v-97l-149 -174l149 -174v-97l-253 232v78zM36 395l253 232v-97l-149 -174l149 -174v-97l-253 232v78z" />
    <glyph glyph-name="logicalnot" unicode="&#xac;" horiz-adv-x="319" 
d="M302 317v-154h-95v59h-189v95h284z" />
    <glyph glyph-name="uni00AD" unicode="&#xad;" horiz-adv-x="280" 
d="M18 317h245v-95h-245v95z" />
    <glyph glyph-name="registered" unicode="&#xae;" horiz-adv-x="803" 
d="M401 743c208 0 376 -168 376 -376c0 -207.008 -168.527 -375 -376 -375c-206.479 0 -375 168.526 -375 375c0 207.47 167.999 376 375 376zM401 50c173.764 0 318 142.996 318 317c0 175.357 -142.656 318 -318 318c-173.997 0 -317 -144.242 -317 -318
c0 -172.407 144.578 -317 317 -317zM401 582c80 0 113 -47 113 -126c0 -43 -3 -75 -43 -108l52 -195h-74l-46 178h-27v-178h-71v429h96zM446 455c0 37.125 -8.26953 64 -48 64h-22v-126h22c39.6611 0 48 25.124 48 62z" />
    <glyph glyph-name="macron" unicode="&#xaf;" horiz-adv-x="500" 
d="M153 721h194v-79h-194v79z" />
    <glyph glyph-name="acute" unicode="&#xb4;" horiz-adv-x="500" 
d="M357 727l-79 -90h-78l52 90h105z" />
    <glyph glyph-name="mu" unicode="&#xb5;" 
d="M196 46v-46h101v547h-101v-431c-7.10742 -11.8457 -16.6621 -26 -33 -26c-12 0 -24 3 -24 24v433h-101v-654l101 17v88.2119c19.3906 9.36816 50 31.7881 57 47.7881z" />
    <glyph glyph-name="paragraph" unicode="&#xb6;" horiz-adv-x="449" 
d="M325 735h108v-735h-108v735zM13 515c0 -138.297 68.709 -221 190 -221v-294h108v735h-108c-123.019 0 -190 -80.4238 -190 -220z" />
    <glyph glyph-name="periodcentered" unicode="&#xb7;" horiz-adv-x="105" 
d="M0 428h105v-111h-105v111z" />
    <glyph glyph-name="cedilla" unicode="&#xb8;" horiz-adv-x="500" 
d="M292 -123l-22 -65h-51l20 65h-31v69h84v-69z" />
    <glyph glyph-name="guillemotright" unicode="&#xbb;" horiz-adv-x="517" 
d="M289 395v-78l-253 -232v97l149 174l-149 174v97zM473 395v-78l-253 -232v97l149 174l-149 174v97z" />
    <glyph glyph-name="questiondown" unicode="&#xbf;" horiz-adv-x="315" 
d="M218 436h-105v111h105v-111zM216 -27l87 -41c-7 -16 -22 -47 -46 -74c-25 -28 -62 -51 -107 -50c-86.1162 1.53809 -130 67.7471 -130 140c0 41 18 71 39 107c27.292 45.4873 60 93.6973 60 169v125h93v-125c0 -97.9023 -32.8057 -164.01 -67 -221
c-14 -23 -23 -42 -26 -55c-2.97559 -20.8301 9.62598 -46 33 -46c32.2539 0 57.1719 45.9629 64 71z" />
    <glyph glyph-name="Agrave" unicode="&#xc0;" horiz-adv-x="374" 
d="M174 890l52 -90h-78l-79 90h105zM10 0l111 735h132l111 -735h-105l-20 150h-104l-20 -150h-105zM190 515h-6l-3 -19l-31 -232h74c-11.4639 83.5361 -21.8643 168.136 -34 251z" />
    <glyph glyph-name="Aacute" unicode="&#xc1;" horiz-adv-x="374" 
d="M300 890l-79 -90h-78l52 90h105zM10 0l111 735h132l111 -735h-105l-20 150h-104l-20 -150h-105zM190 515h-6l-3 -19l-31 -232h74c-11.4639 83.5361 -21.8643 168.136 -34 251z" />
    <glyph glyph-name="Acircumflex" unicode="&#xc2;" horiz-adv-x="374" 
d="M241 890l69 -90h-92l-31 35l-30 -35h-92l69 90h107zM10 0l111 735h132l111 -735h-105l-20 150h-104l-20 -150h-105zM190 515h-6l-3 -19l-31 -232h74c-11.4639 83.5361 -21.8643 168.136 -34 251z" />
    <glyph glyph-name="Atilde" unicode="&#xc3;" horiz-adv-x="374" 
d="M143 890c31.9844 0 58.5566 -17.0371 88 -19c21.5703 0 39.3623 7.81738 53 16v-74c-12.5059 -11.1162 -31.7031 -19 -53 -19c-15 0 -30 3 -43 9c-14 6 -29 9 -45 10c-21.5703 0 -39.3623 -7.81738 -53 -16v74c12.5078 9.72852 31.7021 19 53 19zM10.001 0l111 735h132
l111 -735h-105l-20 150h-104l-20 -150h-105zM190.001 515h-6l-3 -19l-31 -232h74c-11.4639 83.5361 -21.8643 168.136 -34 251z" />
    <glyph glyph-name="Adieresis" unicode="&#xc4;" horiz-adv-x="374" 
d="M70 898h93v-98h-93v98zM211 898h93v-98h-93v98zM10 0l111 735h132l111 -735h-105l-20 150h-104l-20 -150h-105zM190 515h-6l-3 -19l-31 -232h74c-11.4639 83.5361 -21.8643 168.136 -34 251z" />
    <glyph glyph-name="Aring" unicode="&#xc5;" horiz-adv-x="374" 
d="M113 860c0 41 34 70 75 70s74 -29 74 -70s-33 -70 -74 -70s-75 29 -75 70zM151 860c0 -19 18 -35 37 -35s37 16 37 35s-18 35 -37 35s-37 -16 -37 -35zM10 0l111 735h132l111 -735h-105l-20 150h-104l-20 -150h-105zM190 515h-6l-3 -19l-31 -232h74
c-11.4639 83.5361 -21.8643 168.136 -34 251z" />
    <glyph glyph-name="AE" unicode="&#xc6;" horiz-adv-x="537" 
d="M270 150h-111l-44 -150h-107l205 735h304v-111h-139v-193h100v-118h-100v-202h139v-111h-247v150zM192 264h78v251h-5z" />
    <glyph glyph-name="Ccedilla" unicode="&#xc7;" horiz-adv-x="346" 
d="M179 638c-28.8213 0 -35.4072 -28.0703 -38 -54v-433c1.27148 -26.7051 11.0771 -54 38 -54c31.9893 0 41 23.666 41 54v101h101v-101c-1 -30 -7 -57 -18 -80c-19.8311 -44.0703 -59.4102 -79 -126 -79c-36 0 -64 9 -84 25c-37.7559 28.3164 -58.0098 74.2812 -60 134
v433c1 29 7 56 18 79c20.2285 44.9531 57.8223 80 126 80c36 0 63 -10 83 -25c37.8291 -28.3711 58.9541 -74.668 61 -134v-101h-101v101c0 28.2783 -10.1328 54 -41 54zM215 -123l-22 -65h-51l20 65h-31v69h84v-69z" />
    <glyph glyph-name="Egrave" unicode="&#xc8;" horiz-adv-x="307" 
d="M159 890l52 -90h-78l-79 90h105zM40 735h247v-111h-139v-193h100v-118h-100v-202h139v-111h-247v735z" />
    <glyph glyph-name="Eacute" unicode="&#xc9;" horiz-adv-x="307" 
d="M272 890l-79 -90h-78l52 90h105zM40 735h247v-111h-139v-193h100v-118h-100v-202h139v-111h-247v735z" />
    <glyph glyph-name="Ecircumflex" unicode="&#xca;" horiz-adv-x="307" 
d="M217 890l69 -90h-92l-31 35l-30 -35h-92l69 90h107zM40 735h247v-111h-139v-193h100v-118h-100v-202h139v-111h-247v735z" />
    <glyph glyph-name="Edieresis" unicode="&#xcb;" horiz-adv-x="307" 
d="M46 898h93v-98h-93v98zM187 898h93v-98h-93v98zM40 735h247v-111h-139v-193h100v-118h-100v-202h139v-111h-247v735z" />
    <glyph glyph-name="Igrave" unicode="&#xcc;" horiz-adv-x="196" 
d="M102 890l52 -90h-78l-79 90h105zM48 735h108v-735h-108v735z" />
    <glyph glyph-name="Iacute" unicode="&#xcd;" horiz-adv-x="196" 
d="M199 890l-79 -90h-78l52 90h105zM40 735h108v-735h-108v735z" />
    <glyph glyph-name="Icircumflex" unicode="&#xce;" horiz-adv-x="181" 
d="M144 890l69 -90h-92l-31 35l-30 -35h-92l69 90h107zM36 735h108v-735h-108v735z" />
    <glyph glyph-name="Idieresis" unicode="&#xcf;" horiz-adv-x="182" 
d="M-26 898h93v-98h-93v98zM115 898h93v-98h-93v98zM37 735h108v-735h-108v735z" />
    <glyph glyph-name="Eth" unicode="&#xd0;" horiz-adv-x="372" 
d="M10 431h30v304h85c100 0 154 -20 183 -76c28 -56 32 -148 32 -292s-4 -235 -32 -291c-29 -56 -83 -76 -183 -76h-85v320h-30v111zM148 431h41v-111h-41v-212c37 0 58 4 69 40c5 17 9 43 10 78s1 82 1 142s0 107 -1 142c-1 34 -5 60 -10 78c-11 35 -32 39 -69 39v-196z
" />
    <glyph glyph-name="Ntilde" unicode="&#xd1;" horiz-adv-x="395" 
d="M154 890c31.9844 0 58.5566 -17.0371 88 -19c21.5703 0 39.3623 7.81738 53 16v-74c-12.5059 -11.1162 -31.7031 -19 -53 -19c-15 0 -30 3 -43 9c-14 6 -29 9 -45 10c-21.5703 0 -39.3623 -7.81738 -53 -16v74c12.5078 9.72852 31.7021 19 53 19zM145.001 417h-6v-417
h-99v735h96c37.9209 -139.079 76.4941 -277.506 113.999 -417.001h6v417h99v-735h-96c-37.9209 139.079 -76.4941 277.506 -113.999 417.001z" />
    <glyph glyph-name="Ograve" unicode="&#xd2;" horiz-adv-x="354" 
d="M164 890l52 -90h-78l-79 90h105zM321 151c-1 -30 -7 -57 -18 -80c-19.8311 -44.0703 -59.4102 -79 -126 -79c-36 0 -64 9 -84 25c-37.7559 28.3164 -58.0098 74.2812 -60 134v433c1 29 7 56 18 79c20.2285 44.9531 57.8223 80 126 80c36 0 63 -10 83 -25
c37.8291 -28.3711 58.9541 -74.668 61 -134v-433zM177 638c-27.8037 0 -36 -27.6455 -36 -54v-433c0 -27.3291 9.04492 -54 36 -54c27.8037 0 36 25.9609 36 54v433c0 26.9004 -7.86816 54 -36 54z" />
    <glyph glyph-name="Oacute" unicode="&#xd3;" horiz-adv-x="354" 
d="M296 890l-79 -90h-78l52 90h105zM321 151c-1 -30 -7 -57 -18 -80c-19.8311 -44.0703 -59.4102 -79 -126 -79c-36 0 -64 9 -84 25c-37.7559 28.3164 -58.0098 74.2812 -60 134v433c1 29 7 56 18 79c20.2285 44.9531 57.8223 80 126 80c36 0 63 -10 83 -25
c37.8291 -28.3711 58.9541 -74.668 61 -134v-433zM177 638c-27.8037 0 -36 -27.6455 -36 -54v-433c0 -27.3291 9.04492 -54 36 -54c27.8037 0 36 25.9609 36 54v433c0 26.9004 -7.86816 54 -36 54z" />
    <glyph glyph-name="Ocircumflex" unicode="&#xd4;" horiz-adv-x="354" 
d="M231 890l69 -90h-92l-31 35l-30 -35h-92l69 90h107zM321 151c-1 -30 -7 -57 -18 -80c-19.8311 -44.0703 -59.4102 -79 -126 -79c-36 0 -64 9 -84 25c-37.7559 28.3164 -58.0098 74.2812 -60 134v433c1 29 7 56 18 79c20.2285 44.9531 57.8223 80 126 80
c36 0 63 -10 83 -25c37.8291 -28.3711 58.9541 -74.668 61 -134v-433zM177 638c-27.8037 0 -36 -27.6455 -36 -54v-433c0 -27.3291 9.04492 -54 36 -54c27.8037 0 36 25.9609 36 54v433c0 26.9004 -7.86816 54 -36 54z" />
    <glyph glyph-name="Otilde" unicode="&#xd5;" horiz-adv-x="354" 
d="M133 890c31.9844 0 58.5566 -17.0371 88 -19c21.5703 0 39.3623 7.81738 53 16v-74c-12.5059 -11.1162 -31.7031 -19 -53 -19c-15 0 -30 3 -43 9c-14 6 -29 9 -45 10c-21.5703 0 -39.3623 -7.81738 -53 -16v74c12.5078 9.72852 31.7021 19 53 19zM321.001 151
c-1 -30 -6.99902 -57 -17.999 -80c-19.832 -44.0703 -59.4111 -79 -126.001 -79c-36 0 -64 9 -84 25c-37.7559 28.3164 -58.0098 74.2812 -60 134v433c1 29 7 56 18 79c20.2285 44.9531 57.8223 80 126 80c36 0 63 -10 83 -25c37.8291 -28.3711 58.9541 -74.668 61 -134
v-433zM177.002 638c-27.8037 0 -36 -27.6455 -36 -54v-433c0 -27.3291 9.04492 -54 36 -54c27.8037 0 36 25.9609 36 54v433c0 26.9004 -7.86816 54 -36 54z" />
    <glyph glyph-name="Odieresis" unicode="&#xd6;" horiz-adv-x="354" 
d="M60 898h93v-98h-93v98zM201 898h93v-98h-93v98zM321 151c-1 -30 -7 -57 -18 -80c-19.8311 -44.0703 -59.4102 -79 -126 -79c-36 0 -64 9 -84 25c-37.7559 28.3164 -58.0098 74.2812 -60 134v433c1 29 7 56 18 79c20.2285 44.9531 57.8223 80 126 80c36 0 63 -10 83 -25
c37.8291 -28.3711 58.9541 -74.668 61 -134v-433zM177 638c-27.8037 0 -36 -27.6455 -36 -54v-433c0 -27.3291 9.04492 -54 36 -54c27.8037 0 36 25.9609 36 54v433c0 26.9004 -7.86816 54 -36 54z" />
    <glyph glyph-name="Oslash" unicode="&#xd8;" horiz-adv-x="354" 
d="M29 -10l23 77c-11 20 -14 41 -17 57c-1 9 -2 18 -2 27v433c1 29 7 56 18 79c20.2285 44.9531 57.8223 80 126 80c32 0 57 -8 77 -21l7 23h60l-22 -73c11 -21 16 -43 19 -60c2 -10 3 -19 3 -28v-433c-1 -30 -7 -57 -18 -80c-19.8311 -44.0703 -59.4102 -79 -126 -79
c-33 0 -59 8 -78 21l-7 -23h-63zM141 584v-229l72 234c0 21.5439 -10.0967 49 -36 49c-27.8037 0 -36 -27.6455 -36 -54zM213 151v238l-72 -238c0 -27.3291 9.04492 -54 36 -54c27.8037 0 36 25.9609 36 54z" />
    <glyph glyph-name="Ugrave" unicode="&#xd9;" horiz-adv-x="366" 
d="M176 890l52 -90h-78l-79 90h105zM183 97c27.8037 0 36 25.9609 36 54v584h108v-584c-1 -30 -7 -57 -18 -80c-19.8311 -44.0703 -59.4102 -79 -126 -79c-36 0 -64 9 -84 25c-37.7559 28.3164 -58.0098 74.2812 -60 134v584h108v-584c0 -27.3291 9.04492 -54 36 -54z" />
    <glyph glyph-name="Uacute" unicode="&#xda;" horiz-adv-x="366" 
d="M307 890l-79 -90h-78l52 90h105zM183 97c27.8037 0 36 25.9609 36 54v584h108v-584c-1 -30 -7 -57 -18 -80c-19.8311 -44.0703 -59.4102 -79 -126 -79c-36 0 -64 9 -84 25c-37.7559 28.3164 -58.0098 74.2812 -60 134v584h108v-584c0 -27.3291 9.04492 -54 36 -54z" />
    <glyph glyph-name="Ucircumflex" unicode="&#xdb;" horiz-adv-x="366" 
d="M237 890l69 -90h-92l-31 35l-30 -35h-92l69 90h107zM183 97c27.8037 0 36 25.9609 36 54v584h108v-584c-1 -30 -7 -57 -18 -80c-19.8311 -44.0703 -59.4102 -79 -126 -79c-36 0 -64 9 -84 25c-37.7559 28.3164 -58.0098 74.2812 -60 134v584h108v-584
c0 -27.3291 9.04492 -54 36 -54z" />
    <glyph glyph-name="Udieresis" unicode="&#xdc;" horiz-adv-x="366" 
d="M66 898h93v-98h-93v98zM207 898h93v-98h-93v98zM183 97c27.8037 0 36 25.9609 36 54v584h108v-584c-1 -30 -7 -57 -18 -80c-19.8311 -44.0703 -59.4102 -79 -126 -79c-36 0 -64 9 -84 25c-37.7559 28.3164 -58.0098 74.2812 -60 134v584h108v-584
c0 -27.3291 9.04492 -54 36 -54z" />
    <glyph glyph-name="Yacute" unicode="&#xdd;" horiz-adv-x="344" 
d="M281 890l-79 -90h-78l52 90h105zM168 500l3 -7h2l3 7l54 235h106l-110 -422v-313h-108v313l-110 422h106z" />
    <glyph glyph-name="Thorn" unicode="&#xde;" horiz-adv-x="354" 
d="M338 397c0 -138.297 -68.709 -221 -190 -221v-176h-108v735h107v-118h1c123.019 0 190 -80.4238 190 -220zM148 507v-221c71.7363 0 81 30.6416 81 107c0 76.1416 -9.02539 114 -81 114z" />
    <glyph glyph-name="germandbls" unicode="&#xdf;" horiz-adv-x="358" 
d="M169 743c182.504 0 142 -251 89 -289c69 -61 136 -454 -89 -454v94c109 2 60 319 0 319v69c46 0 68 171 0 171c-25 0 -36 -23 -36 -50v-603h-101v603c0 82.8496 49.6533 140 137 140z" />
    <glyph glyph-name="agrave" unicode="&#xe0;" horiz-adv-x="333" 
d="M24 127c0 159.809 116 230 169 230v60c0 24.8906 -2.06055 50 -28 50c-25.1475 0 -29 -37.6289 -29 -87l-101 29c0 78.7441 57.3848 146 136 146c68.0234 0 123 -54.6201 123 -124v-336c0 -17 0 -71 12 -95h-104c-9 11 -9 37 -9 44c-36 -81 -169 -64.5156 -169 83z
M120 142c0 -78 73 -38 73 -9v131c-49 0 -73 -70 -73 -122zM155 727l52 -90h-78l-79 90h105z" />
    <glyph glyph-name="aacute" unicode="&#xe1;" horiz-adv-x="333" 
d="M24 127c0 159.809 116 230 169 230v60c0 24.8906 -2.06055 50 -28 50c-25.1475 0 -29 -37.6289 -29 -87l-101 29c0 78.7441 57.3848 146 136 146c68.0234 0 123 -54.6201 123 -124v-336c0 -17 0 -71 12 -95h-104c-9 11 -9 37 -9 44c-36 -81 -169 -64.5156 -169 83z
M120 142c0 -78 73 -38 73 -9v131c-49 0 -73 -70 -73 -122zM286 727l-79 -90h-78l52 90h105z" />
    <glyph glyph-name="acircumflex" unicode="&#xe2;" horiz-adv-x="333" 
d="M24 127c0 159.809 116 230 169 230v60c0 24.8906 -2.06055 50 -28 50c-25.1475 0 -29 -37.6289 -29 -87l-101 29c0 78.7441 57.3848 146 136 146c68.0234 0 123 -54.6201 123 -124v-336c0 -17 0 -71 12 -95h-104c-9 11 -9 37 -9 44c-36 -81 -169 -64.5156 -169 83z
M120 142c0 -78 73 -38 73 -9v131c-49 0 -73 -70 -73 -122zM220 727l69 -90h-92l-31 35l-30 -35h-92l69 90h107z" />
    <glyph glyph-name="atilde" unicode="&#xe3;" horiz-adv-x="333" 
d="M24 127c0 159.809 116 230 169 230v60c0 24.8906 -2.06055 50 -28 50c-25.1475 0 -29 -37.6289 -29 -87l-101 29c0 78.7441 57.3848 146 136 146c68.0234 0 123 -54.6201 123 -124v-336c0 -17 0 -71 12 -95h-104c-9 11 -9 37 -9 44c-36 -81 -169 -64.5156 -169 83z
M120 142c0 -78 73 -38 73 -9v131c-49 0 -73 -70 -73 -122zM123 730c31.9844 0 58.5566 -17.0371 88 -19c21.5703 0 39.3623 7.81738 53 16v-74c-12.5059 -11.1162 -31.7031 -19 -53 -19c-15 0 -30 3 -43 9c-14 6 -29 9 -45 10c-21.5703 0 -39.3623 -7.81738 -53 -16v74
c12.5078 9.72852 31.7021 19 53 19z" />
    <glyph glyph-name="adieresis" unicode="&#xe4;" horiz-adv-x="333" 
d="M24 127c0 159.809 116 230 169 230v60c0 24.8906 -2.06055 50 -28 50c-25.1475 0 -29 -37.6289 -29 -87l-101 29c0 78.7441 57.3848 146 136 146c68.0234 0 123 -54.6201 123 -124v-336c0 -17 0 -71 12 -95h-104c-9 11 -9 37 -9 44c-36 -81 -169 -64.5156 -169 83z
M120 142c0 -78 73 -38 73 -9v131c-49 0 -73 -70 -73 -122zM50 735h93v-98h-93v98zM191 735h93v-98h-93v98z" />
    <glyph glyph-name="aring" unicode="&#xe5;" horiz-adv-x="333" 
d="M24 127c0 159.809 116 230 169 230v60c0 24.8906 -2.06055 50 -28 50c-25.1475 0 -29 -37.6289 -29 -87l-101 29c0 78.7441 57.3848 146 136 146c68.0234 0 123 -54.6201 123 -124v-336c0 -17 0 -71 12 -95h-104c-9 11 -9 37 -9 44c-36 -81 -169 -64.5156 -169 83z
M120 142c0 -78 73 -38 73 -9v131c-49 0 -73 -70 -73 -122zM92 694c0 41 34 70 75 70s74 -29 74 -70s-33 -70 -74 -70s-75 29 -75 70zM130 694c0 -19 18 -35 37 -35s37 16 37 35s-18 35 -37 35s-37 -16 -37 -35z" />
    <glyph glyph-name="ae" unicode="&#xe6;" horiz-adv-x="483" 
d="M165 467c-25.1475 0 -29 -28.6289 -29 -55v-26h-101v23c0 78.7441 57.3848 146 136 146c27 0 52 -8 74 -25c19 15 44 25 79 25c65 0 98 -36 114 -71c9 -21 15 -44 16 -70v-159h-167v-119c1.30078 -27.3135 10.0234 -55 37 -55c28.2256 0 36 26.873 36 55v60h94v-63
c-3 -53 -19 -90 -55 -119c-18 -15 -43 -22 -76 -22c-61 0 -93 31 -110 64c-28 -36 -64 -64 -108 -64c-13 0 -34 5 -50 25c-17 19 -31 53 -31 110c0 108.132 56.4082 163.412 121 197c25 13 44 22 48 33v60c0 24.8906 -2.06055 50 -28 50zM324 467
c-28.46 0 -34.54 -28.9434 -37 -56v-77h73v77c0 28.165 -7.25879 56 -36 56zM151.001 91c23 0 42 14 42 33v140c-49 -21 -70 -70 -70 -122c0 -19.6514 7.04004 -51 28 -51z" />
    <glyph glyph-name="ccedilla" unicode="&#xe7;" horiz-adv-x="315" 
d="M161 -8c-90.7148 0 -129 59.5488 -129 162v239c0 102.391 38.3564 162 129 162c98.2139 0 130 -49.874 130 -157v-43h-101v66c0 33 -6 44 -29 44c-27 0 -28 -24 -28 -44v-295c0 -20 1 -44 28 -44c23 0 29 11 29 44v76h101v-53c0 -107.083 -31.8184 -157 -130 -157z
M200 -123l-22 -65h-51l20 65h-31v69h84v-69z" />
    <glyph glyph-name="egrave" unicode="&#xe8;" horiz-adv-x="322" 
d="M155 727l52 -90h-78l-79 90h105zM163 81c28.2256 0 36 26.873 36 55v60h94v-63c-3 -53 -19 -90 -55 -119c-18 -15 -43 -22 -76 -22c-65 0 -98 36 -114 72c-9 21 -15 45 -16 72v275c3 53 20 92 56 122c17 15 42 22 75 22c65 0 98 -36 114 -71c9 -21 15 -44 16 -70v-159
h-167v-119c1.30078 -27.3135 10.0234 -55 37 -55zM163 467c-28.46 0 -34.54 -28.9434 -37 -56v-77h73v77c0 28.165 -7.25879 56 -36 56z" />
    <glyph glyph-name="eacute" unicode="&#xe9;" horiz-adv-x="322" 
d="M286 727l-79 -90h-78l52 90h105zM163 81c28.2256 0 36 26.873 36 55v60h94v-63c-3 -53 -19 -90 -55 -119c-18 -15 -43 -22 -76 -22c-65 0 -98 36 -114 72c-9 21 -15 45 -16 72v275c3 53 20 92 56 122c17 15 42 22 75 22c65 0 98 -36 114 -71c9 -21 15 -44 16 -70v-159
h-167v-119c1.30078 -27.3135 10.0234 -55 37 -55zM163 467c-28.46 0 -34.54 -28.9434 -37 -56v-77h73v77c0 28.165 -7.25879 56 -36 56z" />
    <glyph glyph-name="ecircumflex" unicode="&#xea;" horiz-adv-x="322" 
d="M215 727l69 -90h-92l-31 35l-30 -35h-92l69 90h107zM163 81c28.2256 0 36 26.873 36 55v60h94v-63c-3 -53 -19 -90 -55 -119c-18 -15 -43 -22 -76 -22c-65 0 -98 36 -114 72c-9 21 -15 45 -16 72v275c3 53 20 92 56 122c17 15 42 22 75 22c65 0 98 -36 114 -71
c9 -21 15 -44 16 -70v-159h-167v-119c1.30078 -27.3135 10.0234 -55 37 -55zM163 467c-28.46 0 -34.54 -28.9434 -37 -56v-77h73v77c0 28.165 -7.25879 56 -36 56z" />
    <glyph glyph-name="edieresis" unicode="&#xeb;" horiz-adv-x="322" 
d="M44 735h93v-98h-93v98zM185 735h93v-98h-93v98zM163 81c28.2256 0 36 26.873 36 55v60h94v-63c-3 -53 -19 -90 -55 -119c-18 -15 -43 -22 -76 -22c-65 0 -98 36 -114 72c-9 21 -15 45 -16 72v275c3 53 20 92 56 122c17 15 42 22 75 22c65 0 98 -36 114 -71
c9 -21 15 -44 16 -70v-159h-167v-119c1.30078 -27.3135 10.0234 -55 37 -55zM163 467c-28.46 0 -34.54 -28.9434 -37 -56v-77h73v77c0 28.165 -7.25879 56 -36 56z" />
    <glyph glyph-name="igrave" unicode="&#xec;" horiz-adv-x="181" 
d="M89 727l52 -90h-78l-79 90h105zM40 0v547h101v-547h-101z" />
    <glyph glyph-name="iacute" unicode="&#xed;" horiz-adv-x="181" 
d="M197 727l-79 -90h-78l52 90h105zM40 0v547h101v-547h-101z" />
    <glyph glyph-name="icircumflex" unicode="&#xee;" horiz-adv-x="181" 
d="M144 727l69 -90h-92l-31 35l-30 -35h-92l69 90h107zM40 0v547h101v-547h-101z" />
    <glyph glyph-name="idieresis" unicode="&#xef;" horiz-adv-x="182" 
d="M-26 735h93v-98h-93v98zM115 735h93v-98h-93v98zM40 0v547h101v-547h-101z" />
    <glyph glyph-name="eth" unicode="&#xf0;" horiz-adv-x="329" 
d="M185 736c3 -3 5 -6 8 -9l9 -9l9 -12l46 40l27 -32l-49 -43c31 -48 61 -118 61 -218v-320c-3 -53 -19 -90 -54 -119c-18 -15 -43 -22 -76 -22c-65 0 -97 36 -113 72c-9 21 -15 45 -16 72v283c0 9 0 44 10 76c10 31 30 60 74 60c23 0 49 -15 76 -38c-5 41 -14 74 -25 99
l-40 -35l-27 31l49 43c-7 11 -12 19 -16 24c-3 3 -5 5 -6 8zM166 467c-26.7285 0 -36.4902 -28.6182 -34.001 -56v-275c-1.3291 -27.916 7.03516 -55 34.001 -55c27.3652 0 37.5508 26.9365 35 55v275c1.34082 28.1523 -6.30859 56 -35 56z" />
    <glyph glyph-name="ntilde" unicode="&#xf1;" 
d="M125 730c31.9844 0 58.5566 -17.0371 88 -19c21.5703 0 39.3623 7.81738 53 16v-74c-12.5059 -11.1162 -31.7031 -19 -53 -19c-15 0 -30 3 -43 9c-14 6 -29 9 -45 10c-21.5703 0 -39.3623 -7.81738 -53 -16v74c12.5078 9.72852 31.7021 19 53 19zM299.001 448v-448h-101
v433c0 21 -12 24 -24 24c-16.1885 0 -26.0938 -14.4893 -33 -26v-431h-101v547h101v-46c2 1 6 5 12 11c14.0059 14.0059 39.3887 43 70 43c51.5068 0 76 -57.6201 76 -107z" />
    <glyph glyph-name="ograve" unicode="&#xf2;" horiz-adv-x="321" 
d="M153 727l52 -90h-78l-79 90h105zM290 133c-3 -53 -19 -90 -54 -119c-18 -15 -43 -22 -76 -22c-65 0 -97 36 -113 72c-9 21 -15 45 -16 72v275c3 53 19 92 54 122c17 15 42 22 75 22c65 0 98 -36 114 -71c9 -21 15 -44 16 -70v-281zM160 467
c-26.7285 0 -36.4902 -28.6182 -34.001 -56v-275c-1.3291 -27.916 7.03516 -55 34.001 -55c27.3652 0 37.5508 26.9365 35 55v275c1.34082 28.1523 -6.30859 56 -35 56z" />
    <glyph glyph-name="oacute" unicode="&#xf3;" horiz-adv-x="321" 
d="M284 727l-79 -90h-78l52 90h105zM290 133c-3 -53 -19 -90 -54 -119c-18 -15 -43 -22 -76 -22c-65 0 -97 36 -113 72c-9 21 -15 45 -16 72v275c3 53 19 92 54 122c17 15 42 22 75 22c65 0 98 -36 114 -71c9 -21 15 -44 16 -70v-281zM160 467
c-26.7285 0 -36.4902 -28.6182 -34.001 -56v-275c-1.3291 -27.916 7.03516 -55 34.001 -55c27.3652 0 37.5508 26.9365 35 55v275c1.34082 28.1523 -6.30859 56 -35 56z" />
    <glyph glyph-name="ocircumflex" unicode="&#xf4;" horiz-adv-x="321" 
d="M214 727l69 -90h-92l-31 35l-30 -35h-92l69 90h107zM290 133c-3 -53 -19 -90 -54 -119c-18 -15 -43 -22 -76 -22c-65 0 -97 36 -113 72c-9 21 -15 45 -16 72v275c3 53 19 92 54 122c17 15 42 22 75 22c65 0 98 -36 114 -71c9 -21 15 -44 16 -70v-281zM160 467
c-26.7285 0 -36.4902 -28.6182 -34.001 -56v-275c-1.3291 -27.916 7.03516 -55 34.001 -55c27.3652 0 37.5508 26.9365 35 55v275c1.34082 28.1523 -6.30859 56 -35 56z" />
    <glyph glyph-name="otilde" unicode="&#xf5;" horiz-adv-x="321" 
d="M117 730c31.9844 0 58.5566 -17.0371 88 -19c21.5703 0 39.3623 7.81738 53 16v-74c-12.5059 -11.1162 -31.7031 -19 -53 -19c-15 0 -30 3 -43 9c-14 6 -29 9 -45 10c-21.5703 0 -39.3623 -7.81738 -53 -16v74c12.5078 9.72852 31.7021 19 53 19zM290.001 133
c-3 -53 -19 -90 -54 -119c-18 -15 -43 -22 -76 -22c-65 0 -97 36 -113 72c-9 21 -15 45 -16 72v275c3 53 19 92 54 122c17 15 42 22 75 22c65 0 98 -36 114 -71c9 -21 15 -44 16 -70v-281zM160.001 467c-26.7285 0 -36.4902 -28.6182 -34.001 -56v-275
c-1.3291 -27.916 7.03516 -55 34.001 -55c27.3652 0 37.5508 26.9365 35 55v275c1.34082 28.1523 -6.30859 56 -35 56z" />
    <glyph glyph-name="odieresis" unicode="&#xf6;" horiz-adv-x="321" 
d="M44 735h93v-98h-93v98zM185 735h93v-98h-93v98zM290 133c-3 -53 -19 -90 -54 -119c-18 -15 -43 -22 -76 -22c-65 0 -97 36 -113 72c-9 21 -15 45 -16 72v275c3 53 19 92 54 122c17 15 42 22 75 22c65 0 98 -36 114 -71c9 -21 15 -44 16 -70v-281zM160 467
c-26.7285 0 -36.4902 -28.6182 -34.001 -56v-275c-1.3291 -27.916 7.03516 -55 34.001 -55c27.3652 0 37.5508 26.9365 35 55v275c1.34082 28.1523 -6.30859 56 -35 56z" />
    <glyph glyph-name="oslash" unicode="&#xf8;" horiz-adv-x="321" 
d="M61 -38l15 59c-23 21 -35 49 -40 73c-3 13 -5 27 -5 42v275c3 53 19 92 54 122c17 15 42 22 75 22c20 0 37 -4 52 -9l10 39h37l-15 -59c23 -21 33 -48 40 -71c3 -13 5 -27 6 -41v-281c-3 -53 -19 -90 -54 -119c-18 -15 -43 -22 -76 -22c-19 0 -35 3 -50 8l-10 -38h-39z
M126 411v-198l61 237c-5 11 -12 17 -27 17c-26.7285 0 -36.4893 -28.6182 -34 -56zM195 136v197l-61 -237c5 -10 14 -15 26 -15c27.3652 0 37.5508 26.9365 35 55z" />
    <glyph glyph-name="ugrave" unicode="&#xf9;" 
d="M160 727l52 -90h-78l-79 90h105zM38 99l0.00195312 448h101v-433c0 -21 12 -24 24 -24c16.3379 0 25.8916 14.1543 32.999 26v431h101v-547h-101v46c-2 -1 -6 -5 -11 -10c-14.8408 -14.8408 -40.4873 -44 -71.001 -44c-50.6738 0 -76 57.3828 -76 107z" />
    <glyph glyph-name="uacute" unicode="&#xfa;" 
d="M291 727l-79 -90h-78l52 90h105zM38 99l0.00195312 448h101v-433c0 -21 12 -24 24 -24c16.3379 0 25.8916 14.1543 32.999 26v431h101v-547h-101v46c-2 -1 -6 -5 -11 -10c-14.8408 -14.8408 -40.4873 -44 -71.001 -44c-50.6738 0 -76 57.3828 -76 107z" />
    <glyph glyph-name="ucircumflex" unicode="&#xfb;" 
d="M222 727l69 -90h-92l-31 35l-30 -35h-92l69 90h107zM38 99l0.00195312 448h101v-433c0 -21 12 -24 24 -24c16.3379 0 25.8916 14.1543 32.999 26v431h101v-547h-101v46c-2 -1 -6 -5 -11 -10c-14.8408 -14.8408 -40.4873 -44 -71.001 -44c-50.6738 0 -76 57.3828 -76 107z
" />
    <glyph glyph-name="udieresis" unicode="&#xfc;" 
d="M52 735h93v-98h-93v98zM193 735h93v-98h-93v98zM38 99l0.00195312 448h101v-433c0 -21 12 -24 24 -24c16.3379 0 25.8916 14.1543 32.999 26v431h101v-547h-101v46c-2 -1 -6 -5 -11 -10c-14.8408 -14.8408 -40.4873 -44 -71.001 -44c-50.6738 0 -76 57.3828 -76 107z" />
    <glyph glyph-name="yacute" unicode="&#xfd;" horiz-adv-x="310" 
d="M270 727l-79 -90h-78l52 90h105zM105 -16l-93 563h99c13.6182 -121.715 30.3525 -240.313 42 -364h4l2 28l40 336h99l-97 -588c-9.45508 -73.752 -58.5635 -155 -140 -155h-12c-9 0 -21 1 -33 2v90c1 -1 3 -1 6 -1c48.791 -9.75781 83 39.8916 83 89z" />
    <glyph glyph-name="thorn" unicode="&#xfe;" horiz-adv-x="335" 
d="M299 448l0.000976562 -349c0 -50.8525 -26.2363 -107 -78 -107c-32.6768 0 -60.291 26.4805 -80.001 44v-224h-101v923h101v-224c17 16 32 28 52 37c9 5 19 7 28 7c52.5908 0 78 -56.3916 78 -107zM141.001 120c0 -16 15 -33 30 -33s27 14 27 33v307c0 19 -12 33 -27 33
s-30 -14 -30 -33v-307z" />
    <glyph glyph-name="ydieresis" unicode="&#xff;" horiz-adv-x="310" 
d="M38 735h93v-98h-93v98zM179 735h93v-98h-93v98zM105 -16l-93 563h99c13.6182 -121.715 30.3525 -240.313 42 -364h4l2 28l40 336h99l-97 -588c-9.45508 -73.752 -58.5635 -155 -140 -155h-12c-9 0 -21 1 -33 2v90c1 -1 3 -1 6 -1c48.791 -9.75781 83 39.8916 83 89z" />
    <glyph glyph-name="Amacron" unicode="&#x100;" horiz-adv-x="374" 
d="M91 909h194v-79h-194v79zM10 0l111 735h132l111 -735h-105l-20 150h-104l-20 -150h-105zM190 515h-6l-3 -19l-31 -232h74c-11.4639 83.5361 -21.8643 168.136 -34 251z" />
    <glyph glyph-name="amacron" unicode="&#x101;" horiz-adv-x="333" 
d="M24 127c0 159.809 116 230 169 230v60c0 24.8906 -2.06055 50 -28 50c-25.1475 0 -29 -37.6289 -29 -87l-101 29c0 78.7441 57.3848 146 136 146c68.0234 0 123 -54.6201 123 -124v-336c0 -17 0 -71 12 -95h-104c-9 11 -9 37 -9 44c-36 -81 -169 -64.5156 -169 83z
M120 142c0 -78 73 -38 73 -9v131c-49 0 -73 -70 -73 -122zM71 721h194v-79h-194v79z" />
    <glyph glyph-name="Abreve" unicode="&#x102;" horiz-adv-x="374" 
d="M78 871l54 46c10.6621 -13.709 30.3457 -23 56 -23c26.5635 0 46.3477 8.43457 58 23l52 -46c-24.8652 -24.8652 -59.2451 -47 -110 -47c-51.7246 0 -86.7344 20.8262 -110 47zM10 0l111 735h132l111 -735h-105l-20 150h-104l-20 -150h-105zM190 515h-6l-3 -19l-31 -232
h74c-11.4639 83.5361 -21.8643 168.136 -34 251z" />
    <glyph glyph-name="abreve" unicode="&#x103;" horiz-adv-x="333" 
d="M24 127c0 159.809 116 230 169 230v60c0 24.8906 -2.06055 50 -28 50c-25.1475 0 -29 -37.6289 -29 -87l-101 29c0 78.7441 57.3848 146 136 146c68.0234 0 123 -54.6201 123 -124v-336c0 -17 0 -71 12 -95h-104c-9 11 -9 37 -9 44c-36 -81 -169 -64.5156 -169 83z
M120 142c0 -78 73 -38 73 -9v131c-49 0 -73 -70 -73 -122zM58 683l54 46c10.6621 -13.709 30.3457 -23 56 -23c26.5635 0 46.3477 8.43457 58 23l52 -46c-24.8652 -24.8652 -59.2451 -47 -110 -47c-51.7246 0 -86.7344 20.8262 -110 47z" />
    <glyph glyph-name="Aogonek" unicode="&#x104;" horiz-adv-x="374" 
d="M364 0h-47c-17 -15 -29 -30 -38 -50c-5 -10 -7 -21 -7 -33c0 -29 27 -38 50 -38c17 0 30 4 42 9l-8 -67c-21 -7 -34 -9 -51 -9c-65 0 -102 40 -102 85c0 28 16 53 33 72c9 11 20 22 33 31h-10l-20 150h-104l-20 -150h-105l111 735h132zM150 264h74l-31 232l-3 19h-6
c-12.1357 -82.8643 -22.5361 -167.464 -34 -251z" />
    <glyph glyph-name="aogonek" unicode="&#x105;" horiz-adv-x="333" 
d="M171 555c68.0166 0 123 -54.6338 123 -124.001v-336c0 -49 3 -71 7 -95h-46c-17 -15 -29 -30 -38 -50c-5 -10 -7 -21 -7 -33c0 -29 27 -38 50 -38c17 0 30 4 42 9l-8 -67c-21 -7 -34 -9 -51 -9c-65 0 -102 40 -102 85c0 28 16 53 33 72c9 11 20 22 33 31h-5
c-9 11 -9 37 -9 44h-7c-12.7207 -22.8984 -43.1973 -52 -81 -52c-13 0 -34 5 -50 25c-17 19 -31 53 -31 110c0 108.183 56.3145 163.364 121 197.001c25 13 44 22 48 33v60c0 24.8369 -2.04297 50 -28 50c-25.1514 0 -29 -28.6348 -29 -55v-26h-101v23
c0 78.75 57.3848 146 136 146zM123 141.999c0 -19.6152 7.0459 -51 28 -51c23 0 42 14 42 33v140c-49 -21 -70 -70 -70 -122z" />
    <glyph glyph-name="Cacute" unicode="&#x106;" horiz-adv-x="346" 
d="M253 915l-79 -90h-78l52 90h105zM179 638c-28.8213 0 -35.4072 -28.0703 -38 -54v-433c1.27148 -26.7051 11.0771 -54 38 -54c31.9893 0 41 23.666 41 54v101h101v-101c-1 -30 -7 -57 -18 -80c-19.8311 -44.0703 -59.4102 -79 -126 -79c-36 0 -64 9 -84 25
c-37.7559 28.3164 -58.0098 74.2812 -60 134v433c1 29 7 56 18 79c20.2285 44.9531 57.8223 80 126 80c36 0 63 -10 83 -25c37.8291 -28.3711 58.9541 -74.668 61 -134v-101h-101v101c0 28.2783 -10.1328 54 -41 54z" />
    <glyph glyph-name="cacute" unicode="&#x107;" horiz-adv-x="315" 
d="M237 727l-79 -90h-78l52 90h105zM161 -8c-90.7148 0 -129 59.5488 -129 162v239c0 102.391 38.3564 162 129 162c98.2139 0 130 -49.874 130 -157v-43h-101v66c0 33 -6 44 -29 44c-27 0 -28 -24 -28 -44v-295c0 -20 1 -44 28 -44c23 0 29 11 29 44v76h101v-53
c0 -107.083 -31.8184 -157 -130 -157z" />
    <glyph glyph-name="Ccircumflex" unicode="&#x108;" horiz-adv-x="346" 
d="M228 915l69 -90h-92l-31 35l-30 -35h-92l69 90h107zM179 638c-28.8213 0 -35.4072 -28.0703 -38 -54v-433c1.27148 -26.7051 11.0771 -54 38 -54c31.9893 0 41 23.666 41 54v101h101v-101c-1 -30 -7 -57 -18 -80c-19.8311 -44.0703 -59.4102 -79 -126 -79
c-36 0 -64 9 -84 25c-37.7559 28.3164 -58.0098 74.2812 -60 134v433c1 29 7 56 18 79c20.2285 44.9531 57.8223 80 126 80c36 0 63 -10 83 -25c37.8291 -28.3711 58.9541 -74.668 61 -134v-101h-101v101c0 28.2783 -10.1328 54 -41 54z" />
    <glyph glyph-name="ccircumflex" unicode="&#x109;" horiz-adv-x="315" 
d="M212 727l69 -90h-92l-31 35l-30 -35h-92l69 90h107zM161 -8c-90.7148 0 -129 59.5488 -129 162v239c0 102.391 38.3564 162 129 162c98.2139 0 130 -49.874 130 -157v-43h-101v66c0 33 -6 44 -29 44c-27 0 -28 -24 -28 -44v-295c0 -20 1 -44 28 -44c23 0 29 11 29 44v76
h101v-53c0 -107.083 -31.8184 -157 -130 -157z" />
    <glyph glyph-name="Cdotaccent" unicode="&#x10a;" horiz-adv-x="346" 
d="M124 923h101v-101h-101v101zM179 638c-28.8213 0 -35.4072 -28.0703 -38 -54v-433c1.27148 -26.7051 11.0771 -54 38 -54c31.9893 0 41 23.666 41 54v101h101v-101c-1 -30 -7 -57 -18 -80c-19.8311 -44.0703 -59.4102 -79 -126 -79c-36 0 -64 9 -84 25
c-37.7559 28.3164 -58.0098 74.2812 -60 134v433c1 29 7 56 18 79c20.2285 44.9531 57.8223 80 126 80c36 0 63 -10 83 -25c37.8291 -28.3711 58.9541 -74.668 61 -134v-101h-101v101c0 28.2783 -10.1328 54 -41 54z" />
    <glyph glyph-name="cdotaccent" unicode="&#x10b;" horiz-adv-x="315" 
d="M108 735h101v-101h-101v101zM161 -8c-90.7148 0 -129 59.5488 -129 162v239c0 102.391 38.3564 162 129 162c98.2139 0 130 -49.874 130 -157v-43h-101v66c0 33 -6 44 -29 44c-27 0 -28 -24 -28 -44v-295c0 -20 1 -44 28 -44c23 0 29 11 29 44v76h101v-53
c0 -107.083 -31.8184 -157 -130 -157z" />
    <glyph glyph-name="Ccaron" unicode="&#x10c;" horiz-adv-x="346" 
d="M121 825l-69 90h92l30 -35l31 35h92l-69 -90h-107zM179 638c-28.8213 0 -35.4072 -28.0703 -38 -54v-433c1.27148 -26.7051 11.0771 -54 38 -54c31.9893 0 41 23.666 41 54v101h101v-101c-1 -30 -7 -57 -18 -80c-19.8311 -44.0703 -59.4102 -79 -126 -79
c-36 0 -64 9 -84 25c-37.7559 28.3164 -58.0098 74.2812 -60 134v433c1 29 7 56 18 79c20.2285 44.9531 57.8223 80 126 80c36 0 63 -10 83 -25c37.8291 -28.3711 58.9541 -74.668 61 -134v-101h-101v101c0 28.2783 -10.1328 54 -41 54z" />
    <glyph glyph-name="ccaron" unicode="&#x10d;" horiz-adv-x="315" 
d="M105 637l-69 90h92l30 -35l31 35h92l-69 -90h-107zM161 -8c-90.7148 0 -129 59.5488 -129 162v239c0 102.391 38.3564 162 129 162c98.2139 0 130 -49.874 130 -157v-43h-101v66c0 33 -6 44 -29 44c-27 0 -28 -24 -28 -44v-295c0 -20 1 -44 28 -44c23 0 29 11 29 44v76
h101v-53c0 -107.083 -31.8184 -157 -130 -157z" />
    <glyph glyph-name="Dcaron" unicode="&#x10e;" horiz-adv-x="372" 
d="M134 825l-69 90h92l30 -35l31 35h92l-69 -90h-107zM40 0v735h85c100 0 154 -20 183 -76c28 -56 32 -148 32 -292s-4 -235 -32 -291c-29 -56 -83 -76 -183 -76h-85zM148 108c37 0 58 4 69 40c5 17 9 43 10 78s1 82 1 142s0 107 -1 142c-1 34 -5 60 -10 78
c-11 35 -32 39 -69 39v-519z" />
    <glyph glyph-name="dcaron" unicode="&#x10f;" horiz-adv-x="486" 
d="M36 99l-0.000976562 349c0 49.3633 25.5781 107 78 107c32.6768 0 60.291 -26.4805 80.001 -44v224h101v-735h-101v36c-17 -16 -32 -28 -51 -37c-10 -5 -20 -7 -29 -7c-51.5547 0 -78 57.4307 -78 107zM461.999 624l-55 -130h-50l35 130h-35v111h105v-111zM193.999 427
c0 16 -15 33 -30 33s-27 -14 -27 -33v-307c0 -19 12 -33 27 -33s30 14 30 33v307z" />
    <glyph glyph-name="Dcroat" unicode="&#x110;" horiz-adv-x="372" 
d="M40 735h85c100 0 154 -20 183 -76c28 -56 32 -148 32 -292s-4 -235 -32 -291c-29 -56 -83 -76 -183 -76h-85v331h-59v79h59v325zM148 331v-223c37 0 58 4 69 40c5 17 9 43 10 78s1 82 1 142s0 107 -1 142c-1 34 -5 60 -10 78c-11 35 -32 39 -69 39v-217h27v-79h-27z" />
    <glyph glyph-name="dcroat" unicode="&#x111;" horiz-adv-x="335" 
d="M114 555c32.6211 0 60.3447 -26.5283 80 -44v86h-21v95h21v43h101v-43h23v-95h-23v-597h-101v36c-17 -16 -32 -28 -51 -37c-10 -5 -20 -7 -29 -7c-51.5811 0 -78 57.416 -78 107v349c0 49.3447 25.6006 107 78 107zM194 120v307c0 16 -15 33 -30 33s-27 -14 -27 -33v-307
c0 -19 12 -33 27 -33s30 14 30 33z" />
    <glyph glyph-name="Emacron" unicode="&#x112;" horiz-adv-x="307" 
d="M58 909h194v-79h-194v79zM40 735h247v-111h-139v-193h100v-118h-100v-202h139v-111h-247v735z" />
    <glyph glyph-name="emacron" unicode="&#x113;" horiz-adv-x="322" 
d="M65 721h194v-79h-194v79zM163 81c28.2256 0 36 26.873 36 55v60h94v-63c-3 -53 -19 -90 -55 -119c-18 -15 -43 -22 -76 -22c-65 0 -98 36 -114 72c-9 21 -15 45 -16 72v275c3 53 20 92 56 122c17 15 42 22 75 22c65 0 98 -36 114 -71c9 -21 15 -44 16 -70v-159h-167v-119
c1.30078 -27.3135 10.0234 -55 37 -55zM163 467c-28.46 0 -34.54 -28.9434 -37 -56v-77h73v77c0 28.165 -7.25879 56 -36 56z" />
    <glyph glyph-name="Ebreve" unicode="&#x114;" horiz-adv-x="307" 
d="M45 871l54 46c10.6621 -13.709 30.3457 -23 56 -23c26.5635 0 46.3477 8.43457 58 23l52 -46c-24.8652 -24.8652 -59.2451 -47 -110 -47c-51.7246 0 -86.7344 20.8262 -110 47zM40 735h247v-111h-139v-193h100v-118h-100v-202h139v-111h-247v735z" />
    <glyph glyph-name="ebreve" unicode="&#x115;" horiz-adv-x="322" 
d="M52 683l54 46c10.6621 -13.709 30.3457 -23 56 -23c26.5635 0 46.3477 8.43457 58 23l52 -46c-24.8652 -24.8652 -59.2451 -47 -110 -47c-51.7246 0 -86.7344 20.8262 -110 47zM163 81c28.2256 0 36 26.873 36 55v60h94v-63c-3 -53 -19 -90 -55 -119
c-18 -15 -43 -22 -76 -22c-65 0 -98 36 -114 72c-9 21 -15 45 -16 72v275c3 53 20 92 56 122c17 15 42 22 75 22c65 0 98 -36 114 -71c9 -21 15 -44 16 -70v-159h-167v-119c1.30078 -27.3135 10.0234 -55 37 -55zM163 467c-28.46 0 -34.54 -28.9434 -37 -56v-77h73v77
c0 28.165 -7.25879 56 -36 56z" />
    <glyph glyph-name="Edotaccent" unicode="&#x116;" horiz-adv-x="307" 
d="M104 923h101v-101h-101v101zM40 735h247v-111h-139v-193h100v-118h-100v-202h139v-111h-247v735z" />
    <glyph glyph-name="edotaccent" unicode="&#x117;" horiz-adv-x="322" 
d="M112 735h101v-101h-101v101zM163 81c28.2256 0 36 26.873 36 55v60h94v-63c-3 -53 -19 -90 -55 -119c-18 -15 -43 -22 -76 -22c-65 0 -98 36 -114 72c-9 21 -15 45 -16 72v275c3 53 20 92 56 122c17 15 42 22 75 22c65 0 98 -36 114 -71c9 -21 15 -44 16 -70v-159h-167
v-119c1.30078 -27.3135 10.0234 -55 37 -55zM163 467c-28.46 0 -34.54 -28.9434 -37 -56v-77h73v77c0 28.165 -7.25879 56 -36 56z" />
    <glyph glyph-name="Eogonek" unicode="&#x118;" horiz-adv-x="307" 
d="M287 0h-46c-17 -15 -29 -30 -38 -50c-5 -10 -7 -21 -7 -33c0 -29 27 -38 50 -38c17 0 30 4 42 9l-8 -67c-21 -7 -34 -9 -51 -9c-65 0 -102 40 -102 85c0 28 16 53 33 72c9 11 20 22 33 31h-153v735h247v-111h-139v-193h100v-118h-100v-202h139v-111z" />
    <glyph glyph-name="eogonek" unicode="&#x119;" horiz-adv-x="322" 
d="M163 81c28.2363 0 36 26.9023 36 55v60h94v-63c-3 -53 -19 -90 -55 -119c-7 -6 -15 -11 -24 -14h34c-17 -15 -29 -30 -38 -50c-5 -10 -7 -21 -7 -33c0 -29 27 -38 50 -38c17 0 30 4 42 9l-8 -67c-21 -7 -34 -9 -51 -9c-65 0 -102 40 -102 85c0 28 16 53 33 72
c7 9 16 18 25 25c-9 -1 -19 -2 -30 -2c-65 0 -98 36 -114 72c-9 21 -15 45 -16 72v275c3 53 20 92 56 122c17 15 42 22 75 22c65 0 98 -36 114 -71c9 -21 15 -44 16 -70v-159h-167v-119c1.30176 -27.3438 10.042 -55 37 -55zM163 467c-28.4668 0 -34.5439 -28.9814 -37 -56
v-77h73v77c0 28.1963 -7.25195 56 -36 56z" />
    <glyph glyph-name="Ecaron" unicode="&#x11a;" horiz-adv-x="307" 
d="M101 825l-69 90h92l30 -35l31 35h92l-69 -90h-107zM40 735h247v-111h-139v-193h100v-118h-100v-202h139v-111h-247v735z" />
    <glyph glyph-name="ecaron" unicode="&#x11b;" horiz-adv-x="322" 
d="M109 637l-69 90h92l30 -35l31 35h92l-69 -90h-107zM163 81c28.2256 0 36 26.873 36 55v60h94v-63c-3 -53 -19 -90 -55 -119c-18 -15 -43 -22 -76 -22c-65 0 -98 36 -114 72c-9 21 -15 45 -16 72v275c3 53 20 92 56 122c17 15 42 22 75 22c65 0 98 -36 114 -71
c9 -21 15 -44 16 -70v-159h-167v-119c1.30078 -27.3135 10.0234 -55 37 -55zM163 467c-28.46 0 -34.54 -28.9434 -37 -56v-77h73v77c0 28.165 -7.25879 56 -36 56z" />
    <glyph glyph-name="Gcircumflex" unicode="&#x11c;" horiz-adv-x="360" 
d="M235 915l69 -90h-92l-31 35l-30 -35h-92l69 90h107zM177 638c-27.8037 0 -36.001 -27.6455 -36.001 -54v-442c0 -27.3291 9.04492 -54 36 -54c27.8037 0 36 25.9609 36 54v133h-43v91h151v-366h-64l-13 35c-20 -25 -49 -43 -84 -43s-59 9 -77 25
c-34.6338 28.8623 -52.0225 73.3066 -49.999 134v433c1 29 7 56 18 79c20.2285 44.9531 57.8223 80 126 80c36 0 63 -10 83 -25c37.8291 -28.3711 58.9541 -74.668 61 -134v-113h-108v113c0 26.9004 -7.86816 54 -36 54z" />
    <glyph glyph-name="gcircumflex" unicode="&#x11d;" horiz-adv-x="342" 
d="M157 462c-23.3877 0 -31.6377 -26.2578 -29 -50v-150c-1.26953 -24.1162 5.3877 -49 29 -49c24.9355 0 31 24.5244 31 49v150c0 24.374 -6.5166 50 -31 50zM282 453c4 -11 5 -27 5 -34v-155c-3 -51 -18.7549 -90.1934 -56 -114c-30.8975 -19.749 -107 -10 -107 -45
c0 -25.8115 51.2383 -29.9326 77 -34c73.3193 -9.16504 140 -38.833 140 -127c0 -99.2461 -79.5938 -140 -173 -140c-87.7295 0 -162 21.0664 -162 106l98 17c0 -21 19 -38 66 -38c29.2041 0 77 9.49805 77 37c0 76.1582 -223 32 -223 140c0 34.8154 38.3799 68.8691 63 82
c-29 19 -43 49 -50 74c-4 15 -7 30 -8 45v149c4 51 20 88 55 117c17 15 42 22 73 22c51 0 82 -23 101 -50c14.5762 14.5762 52.6328 50 83 50v-90c-27 0 -47 -5 -59 -12zM226 727l69 -90h-92l-31 35l-30 -35h-92l69 90h107z" />
    <glyph glyph-name="Gbreve" unicode="&#x11e;" horiz-adv-x="360" 
d="M71 871l54 46c10.6621 -13.709 30.3457 -23 56 -23c26.5635 0 46.3477 8.43457 58 23l52 -46c-24.8652 -24.8652 -59.2451 -47 -110 -47c-51.7246 0 -86.7344 20.8262 -110 47zM177 638c-27.8037 0 -36.001 -27.6455 -36.001 -54v-442c0 -27.3291 9.04492 -54 36 -54
c27.8037 0 36 25.9609 36 54v133h-43v91h151v-366h-64l-13 35c-20 -25 -49 -43 -84 -43s-59 9 -77 25c-34.6338 28.8623 -52.0225 73.3066 -49.999 134v433c1 29 7 56 18 79c20.2285 44.9531 57.8223 80 126 80c36 0 63 -10 83 -25
c37.8291 -28.3711 58.9541 -74.668 61 -134v-113h-108v113c0 26.9004 -7.86816 54 -36 54z" />
    <glyph glyph-name="gbreve" unicode="&#x11f;" horiz-adv-x="342" 
d="M157 462c-23.3877 0 -31.6377 -26.2578 -29 -50v-150c-1.26953 -24.1162 5.3877 -49 29 -49c24.9355 0 31 24.5244 31 49v150c0 24.374 -6.5166 50 -31 50zM282 453c4 -11 5 -27 5 -34v-155c-3 -51 -18.7549 -90.1934 -56 -114c-30.8975 -19.749 -107 -10 -107 -45
c0 -25.8115 51.2383 -29.9326 77 -34c73.3193 -9.16504 140 -38.833 140 -127c0 -99.2461 -79.5938 -140 -173 -140c-87.7295 0 -162 21.0664 -162 106l98 17c0 -21 19 -38 66 -38c29.2041 0 77 9.49805 77 37c0 76.1582 -223 32 -223 140c0 34.8154 38.3799 68.8691 63 82
c-29 19 -43 49 -50 74c-4 15 -7 30 -8 45v149c4 51 20 88 55 117c17 15 42 22 73 22c51 0 82 -23 101 -50c14.5762 14.5762 52.6328 50 83 50v-90c-27 0 -47 -5 -59 -12zM62 683l54 46c10.6621 -13.709 30.3457 -23 56 -23c26.5635 0 46.3477 8.43457 58 23l52 -46
c-24.8652 -24.8652 -59.2451 -47 -110 -47c-51.7246 0 -86.7344 20.8262 -110 47z" />
    <glyph glyph-name="Gdotaccent" unicode="&#x120;" horiz-adv-x="360" 
d="M131 923h101v-101h-101v101zM177 638c-27.8037 0 -36.001 -27.6455 -36.001 -54v-442c0 -27.3291 9.04492 -54 36 -54c27.8037 0 36 25.9609 36 54v133h-43v91h151v-366h-64l-13 35c-20 -25 -49 -43 -84 -43s-59 9 -77 25c-34.6338 28.8623 -52.0225 73.3066 -49.999 134
v433c1 29 7 56 18 79c20.2285 44.9531 57.8223 80 126 80c36 0 63 -10 83 -25c37.8291 -28.3711 58.9541 -74.668 61 -134v-113h-108v113c0 26.9004 -7.86816 54 -36 54z" />
    <glyph glyph-name="gdotaccent" unicode="&#x121;" horiz-adv-x="342" 
d="M157 462c-23.3877 0 -31.6377 -26.2578 -29 -50v-150c-1.26953 -24.1162 5.3877 -49 29 -49c24.9355 0 31 24.5244 31 49v150c0 24.374 -6.5166 50 -31 50zM282 453c4 -11 5 -27 5 -34v-155c-3 -51 -18.7549 -90.1934 -56 -114c-30.8975 -19.749 -107 -10 -107 -45
c0 -25.8115 51.2383 -29.9326 77 -34c73.3193 -9.16504 140 -38.833 140 -127c0 -99.2461 -79.5938 -140 -173 -140c-87.7295 0 -162 21.0664 -162 106l98 17c0 -21 19 -38 66 -38c29.2041 0 77 9.49805 77 37c0 76.1582 -223 32 -223 140c0 34.8154 38.3799 68.8691 63 82
c-29 19 -43 49 -50 74c-4 15 -7 30 -8 45v149c4 51 20 88 55 117c17 15 42 22 73 22c51 0 82 -23 101 -50c14.5762 14.5762 52.6328 50 83 50v-90c-27 0 -47 -5 -59 -12zM122 735h101v-101h-101v101z" />
    <glyph glyph-name="Gcommaaccent" unicode="&#x122;" horiz-adv-x="360" 
d="M177 638c-27.8037 0 -36.001 -27.6455 -36.001 -54v-442c0 -27.3291 9.04492 -54 36 -54c27.8037 0 36 25.9609 36 54v133h-43v91h151v-366h-64l-13 35c-20 -25 -49 -43 -84 -43s-59 9 -77 25c-34.6338 28.8623 -52.0225 73.3066 -49.999 134v433c1 29 7 56 18 79
c20.2285 44.9531 57.8223 80 126 80c36 0 63 -10 83 -25c37.8291 -28.3711 58.9541 -74.668 61 -134v-113h-108v113c0 26.9004 -7.86816 54 -36 54zM214.999 -123l-22 -65h-51l20 65h-31v69h84v-69z" />
    <glyph glyph-name="gcommaaccent" unicode="&#x123;" horiz-adv-x="342" 
d="M157 462c-23.3877 0 -31.6377 -26.2578 -29 -50v-150c-1.26953 -24.1162 5.3877 -49 29 -49c24.9355 0 31 24.5244 31 49v150c0 24.374 -6.5166 50 -31 50zM282 453c4 -11 5 -27 5 -34v-155c-3 -51 -18.7549 -90.1934 -56 -114c-30.8975 -19.749 -107 -10 -107 -45
c0 -25.8115 51.2383 -29.9326 77 -34c73.3193 -9.16504 140 -38.833 140 -127c0 -99.2461 -79.5938 -140 -173 -140c-87.7295 0 -162 21.0664 -162 106l98 17c0 -21 19 -38 66 -38c29.2041 0 77 9.49805 77 37c0 76.1582 -223 32 -223 140c0 34.8154 38.3799 68.8691 63 82
c-29 19 -43 49 -50 74c-4 15 -7 30 -8 45v149c4 51 20 88 55 117c17 15 42 22 73 22c51 0 82 -23 101 -50c14.5762 14.5762 52.6328 50 83 50v-90c-27 0 -47 -5 -59 -12zM118 793l55 130h50l-35 -130h35v-111h-105v111z" />
    <glyph glyph-name="Hcircumflex" unicode="&#x124;" horiz-adv-x="380" 
d="M245 915l69 -90h-92l-31 35l-30 -35h-92l69 90h107zM232 320h-84v-320h-108v735h108v-304h84v304h108v-735h-108v320z" />
    <glyph glyph-name="hcircumflex" unicode="&#x125;" 
d="M174 457c-16.1924 0 -26.1045 -14.5078 -33 -26v-431h-101v735h101v-8h82l69 -90h-92l-31 35l-28 -33v-138c2 1 6 5 12 11c14.0273 14.0273 39.373 43 70 43c51.5186 0 76 -57.6016 76 -107v-448h-101v433c0 21 -12 24 -24 24z" />
    <glyph glyph-name="Hbar" unicode="&#x126;" horiz-adv-x="380" 
d="M380 627v-79h-40v-548h-108v320h-84v-320h-108v548h-39v79h39v108h108v-108h84v108h108v-108h40zM232 431v117h-84v-117h84z" />
    <glyph glyph-name="hbar" unicode="&#x127;" 
d="M174 457c-16.1924 0 -26.1045 -14.5078 -33 -26v-431h-101v612h-38v79h38v44h101v-44h55v-79h-55v-111c2 1 6 5 12 11c14.0273 14.0273 39.373 43 70 43c51.5186 0 76 -57.6016 76 -107v-448h-101v433c0 21 -12 24 -24 24z" />
    <glyph glyph-name="Itilde" unicode="&#x128;" horiz-adv-x="188" 
d="M51 918c31.9844 0 58.5566 -17.0371 88 -19c21.5703 0 39.3623 7.81738 53 16v-74c-12.5059 -11.1162 -31.7031 -19 -53 -19c-15 0 -30 3 -43 9c-14 6 -29 9 -45 10c-21.5703 0 -39.3623 -7.81738 -53 -16v74c12.5078 9.72852 31.7021 19 53 19zM40.001 735h108v-735
h-108v735z" />
    <glyph glyph-name="itilde" unicode="&#x129;" horiz-adv-x="181" 
d="M48 730c31.9844 0 58.5566 -17.0371 88 -19c21.5703 0 39.3623 7.81738 53 16v-74c-12.5059 -11.1162 -31.7031 -19 -53 -19c-15 0 -30 3 -43 9c-14 6 -29 9 -45 10c-21.5703 0 -39.3623 -7.81738 -53 -16v74c12.5078 9.72852 31.7021 19 53 19zM40.001 0v547h101v-547
h-101z" />
    <glyph glyph-name="Imacron" unicode="&#x12a;" horiz-adv-x="188" 
d="M-2 909h194v-79h-194v79zM40 735h108v-735h-108v735z" />
    <glyph glyph-name="imacron" unicode="&#x12b;" horiz-adv-x="181" 
d="M-5 721h194v-79h-194v79zM40 0v547h101v-547h-101z" />
    <glyph glyph-name="Ibreve" unicode="&#x12c;" horiz-adv-x="188" 
d="M-15 871l54 46c10.6621 -13.709 30.3457 -23 56 -23c26.5635 0 46.3477 8.43457 58 23l52 -46c-24.8652 -24.8652 -59.2451 -47 -110 -47c-51.7246 0 -86.7344 20.8262 -110 47zM40 735h108v-735h-108v735z" />
    <glyph glyph-name="ibreve" unicode="&#x12d;" horiz-adv-x="181" 
d="M-18 683l54 46c10.6621 -13.709 30.3457 -23 56 -23c26.5635 0 46.3477 8.43457 58 23l52 -46c-24.8652 -24.8652 -59.2451 -47 -110 -47c-51.7246 0 -86.7344 20.8262 -110 47zM40 0v547h101v-547h-101z" />
    <glyph glyph-name="Iogonek" unicode="&#x12e;" horiz-adv-x="188" 
d="M148 0h-46c-17 -15 -29 -30 -38 -50c-5 -10 -7 -21 -7 -33c0 -29 27 -38 50 -38c17 0 30 4 42 9l-8 -67c-21 -7 -34 -9 -51 -9c-65 0 -102 40 -102 85c0 28 16 53 33 72c9 11 20 22 33 31h-14v735h108v-735z" />
    <glyph glyph-name="iogonek" unicode="&#x12f;" horiz-adv-x="181" 
d="M141 735v-101h-101v101h101zM141 0h-16c-17 -15 -29 -30 -38 -50c-5 -10 -7 -21 -7 -33c0 -29 27 -38 50 -38c17 0 30 4 42 9l-8 -67c-21 -7 -34 -9 -51 -9c-65 0 -102 40 -102 85c0 28 16 53 33 72c9 11 20 22 33 31h-37v547h101v-547z" />
    <glyph glyph-name="Idotaccent" unicode="&#x130;" horiz-adv-x="188" 
d="M45 923h101v-101h-101v101zM40 735h108v-735h-108v735z" />
    <glyph glyph-name="dotlessi" unicode="&#x131;" horiz-adv-x="181" 
d="M40 0v547h101v-547h-101z" />
    <glyph glyph-name="IJ" unicode="&#x132;" horiz-adv-x="395" 
d="M40 735h108v-735h-108v735zM252 153v582h108v-599c0 -97.5781 -55.832 -149.886 -166 -143v106c34.8574 -4.97949 58 14.041 58 54z" />
    <glyph glyph-name="ij" unicode="&#x133;" horiz-adv-x="359" 
d="M40 735h101v-101h-101v101zM218 735h101v-101h-101v101zM40 0v547h101v-547h-101zM159 -182l0.000976562 93c7.58691 -2.5293 19.6836 -4 28 -4c24.9268 0 31 29.332 31 57v583h101v-561c0 -28 0 -72 -14 -108c-14 -37 -45 -66 -102 -66
c-22.7178 0 -31.0947 1.69824 -44.001 6z" />
    <glyph glyph-name="Jcircumflex" unicode="&#x134;" horiz-adv-x="207" 
d="M158 915l69 -90h-92l-31 35l-30 -35h-92l69 90h107zM64 153v582h108v-599c0 -97.5781 -55.832 -149.886 -166 -143v106c34.8574 -4.97949 58 14.041 58 54z" />
    <glyph glyph-name="jcircumflex" unicode="&#x135;" horiz-adv-x="178" 
d="M213 645h-75v-11h-101v11h-69l69 90h107zM6 -93c24.9258 0 31 29.3389 31 57v583h101v-561c0 -28 0 -72 -14 -108c-14 -37 -45 -66 -102 -66c-22.7178 0 -31.0791 1.69336 -44 6v93c7.59668 -2.53223 19.6855 -4 28 -4z" />
    <glyph glyph-name="Kcommaaccent" unicode="&#x136;" horiz-adv-x="375" 
d="M148 735l-0.000976562 -257h4l5 12l90 245h105l-99 -242l112 -493h-105c-25.8477 111.819 -52.8496 222.484 -78 335h-3c-10.0469 -25.2861 -20.6777 -49.9883 -30.999 -75v-260h-108v735h108zM214.999 -123l-22 -65h-51l20 65h-31v69h84v-69z" />
    <glyph glyph-name="kcommaaccent" unicode="&#x137;" horiz-adv-x="313" 
d="M141 735v-349.001h5c18.1045 53.8955 36.6924 107.308 55 161h91l-73 -178l92 -369h-97c-17.3906 76.2764 -34.3506 152.983 -52 229.001h-5l-3 -8l-13 -32v-189h-101v735h101zM215 -123.001l-22 -65h-51l20 65h-31v69h84v-69z" />
    <glyph glyph-name="kgreenlandic" unicode="&#x138;" horiz-adv-x="313" 
d="M141 735v-349.001h5c18.1045 53.8955 36.6924 107.308 55 161h91l-73 -178l92 -369h-97c-17.3906 76.2764 -34.3506 152.983 -52 229.001h-5l-3 -8l-13 -32v-189h-101v735h101z" />
    <glyph glyph-name="Lacute" unicode="&#x139;" horiz-adv-x="295" 
d="M227 915l-79 -90h-78l52 90h105zM40 735h108v-635h143v-100h-251v735z" />
    <glyph glyph-name="lacute" unicode="&#x13a;" horiz-adv-x="181" 
d="M145 153c0 -39.959 23.1426 -58.9795 58 -54v-106c-110.168 -6.88574 -166 45.4219 -166 143v599h108v-582zM170 838l-79 -90h-78l52 90h105z" />
    <glyph glyph-name="Lcommaaccent" unicode="&#x13b;" horiz-adv-x="295" 
d="M40 735h108v-635h143v-100h-251v735zM215 -123l-22 -65h-51l20 65h-31v69h84v-69z" />
    <glyph glyph-name="lcommaaccent" unicode="&#x13c;" horiz-adv-x="181" 
d="M145 153c0 -39.959 23.1426 -58.9795 58 -54v-106c-110.168 -6.88574 -166 45.4219 -166 143v599h108v-582zM135 -116l-22 -65h-51l20 65h-31v69h84v-69z" />
    <glyph glyph-name="Lcaron" unicode="&#x13d;" horiz-adv-x="295" 
d="M289 737l-55 -130h-50l35 130h-35v111h105v-111zM40 735h108v-635h143v-100h-251v735z" />
    <glyph glyph-name="lcaron" unicode="&#x13e;" horiz-adv-x="332" 
d="M145 153c0 -39.959 23.1426 -58.9795 58 -54v-106c-110.168 -6.88574 -166 45.4219 -166 143v599h108v-582zM308 624l-55 -130h-50l35 130h-35v111h105v-111z" />
    <glyph glyph-name="Ldot" unicode="&#x13f;" horiz-adv-x="295" 
d="M40 735h108v-635h143v-100h-251v735zM186 440h105v-111h-105v111z" />
    <glyph glyph-name="ldot" unicode="&#x140;" horiz-adv-x="286" 
d="M145 153c0 -39.959 23.1426 -58.9795 58 -54v-106c-110.168 -6.88574 -166 45.4219 -166 143v599h108v-582zM181 428h105v-111h-105v111z" />
    <glyph glyph-name="Lslash" unicode="&#x141;" horiz-adv-x="307" 
d="M20 382l32 25v328h108v-244l59 46v-108l-59 -46v-283h143v-100h-251v299l-32 -25v108z" />
    <glyph glyph-name="lslash" unicode="&#x142;" horiz-adv-x="229" 
d="M-8 274v108l45 35.0498v317.95h108v-233.829l46 35.8291v-108l-46 -35.8291v-240.171c0 -39.959 23.1426 -58.9795 58 -54v-106c-110.168 -6.88574 -166 45.4219 -166 143v173.05z" />
    <glyph glyph-name="Nacute" unicode="&#x143;" horiz-adv-x="395" 
d="M277 915l-79 -90h-78l52 90h105zM145 417h-6v-417h-99v735h96c37.9209 -139.079 76.4941 -277.506 113.999 -417.001h6v417h99v-735h-96c-37.9209 139.079 -76.4941 277.506 -113.999 417.001z" />
    <glyph glyph-name="nacute" unicode="&#x144;" 
d="M248 727l-79 -90h-78l52 90h105zM299 448v-448h-101v433c0 21 -12 24 -24 24c-16.1885 0 -26.0938 -14.4893 -33 -26v-431h-101v547h101v-46c2 1 6 5 12 11c14.0059 14.0059 39.3887 43 70 43c51.5068 0 76 -57.6201 76 -107z" />
    <glyph glyph-name="Ncommaaccent" unicode="&#x145;" horiz-adv-x="395" 
d="M145 417h-6v-417h-99v735h96c37.9209 -139.079 76.4941 -277.506 113.999 -417.001h6v417h99v-735h-96c-37.9209 139.079 -76.4941 277.506 -113.999 417.001zM215 -123l-22 -65h-51l20 65h-31v69h84v-69z" />
    <glyph glyph-name="ncommaaccent" unicode="&#x146;" 
d="M299 448v-448h-101v433c0 21 -12 24 -24 24c-16.1885 0 -26.0938 -14.4893 -33 -26v-431h-101v547h101v-46c2 1 6 5 12 11c14.0059 14.0059 39.3887 43 70 43c51.5068 0 76 -57.6201 76 -107zM215 -123l-22 -65h-51l20 65h-31v69h84v-69z" />
    <glyph glyph-name="Ncaron" unicode="&#x147;" horiz-adv-x="395" 
d="M145 825l-69 90h92l30 -35l31 35h92l-69 -90h-107zM145 417h-6v-417h-99v735h96c37.9209 -139.079 76.4941 -277.506 113.999 -417.001h6v417h99v-735h-96c-37.9209 139.079 -76.4941 277.506 -113.999 417.001z" />
    <glyph glyph-name="ncaron" unicode="&#x148;" 
d="M116 637l-69 90h92l30 -35l31 35h92l-69 -90h-107zM299 448v-448h-101v433c0 21 -12 24 -24 24c-16.1885 0 -26.0938 -14.4893 -33 -26v-431h-101v547h101v-46c2 1 6 5 12 11c14.0059 14.0059 39.3887 43 70 43c51.5068 0 76 -57.6201 76 -107z" />
    <glyph glyph-name="napostrophe" unicode="&#x149;" 
d="M86 635l-22 -65h-51l20 65h-31v69h84v-69zM299 448v-448h-101v433c0 21 -12 24 -24 24c-16.1885 0 -26.0938 -14.4893 -33 -26v-431h-101v547h101v-46c2 1 6 5 12 11c14.0059 14.0059 39.3887 43 70 43c51.5068 0 76 -57.6201 76 -107z" />
    <glyph glyph-name="Eng" unicode="&#x14a;" horiz-adv-x="395" 
d="M256 735l98.999 -0.000976562v-735c-4.92969 -78.8818 -47.9219 -127.873 -138.999 -120.999v101c17 -3 32 2 42 17c1 1 1 2 2 3h-1c-37.9316 139.068 -76.4834 277.517 -114 417h-6v-417h-99v735h96c37.9316 -139.068 76.4834 -277.517 114 -417h6v417z" />
    <glyph glyph-name="eng" unicode="&#x14b;" 
d="M223 555c51.0664 0 73.8242 -55.1367 76 -103.001v-471c0 -81.042 -59.7578 -117.792 -154 -113v84c30.1436 -6.02832 53 8.9248 53 42.001v439c0 21 -12 24 -24 24c-16.1924 0 -26.1045 -14.5078 -33 -26v-431h-101v547h101v-46c2 1 6 5 12 11
c14.0273 14.0273 39.373 43 70 43z" />
    <glyph glyph-name="Omacron" unicode="&#x14c;" horiz-adv-x="354" 
d="M81 909h194v-79h-194v79zM321 151c-1 -30 -7 -57 -18 -80c-19.8311 -44.0703 -59.4102 -79 -126 -79c-36 0 -64 9 -84 25c-37.7559 28.3164 -58.0098 74.2812 -60 134v433c1 29 7 56 18 79c20.2285 44.9531 57.8223 80 126 80c36 0 63 -10 83 -25
c37.8291 -28.3711 58.9541 -74.668 61 -134v-433zM177 638c-27.8037 0 -36 -27.6455 -36 -54v-433c0 -27.3291 9.04492 -54 36 -54c27.8037 0 36 25.9609 36 54v433c0 26.9004 -7.86816 54 -36 54z" />
    <glyph glyph-name="omacron" unicode="&#x14d;" horiz-adv-x="321" 
d="M65 721h194v-79h-194v79zM290 133c-3 -53 -19 -90 -54 -119c-18 -15 -43 -22 -76 -22c-65 0 -97 36 -113 72c-9 21 -15 45 -16 72v275c3 53 19 92 54 122c17 15 42 22 75 22c65 0 98 -36 114 -71c9 -21 15 -44 16 -70v-281zM160 467
c-26.7285 0 -36.4902 -28.6182 -34.001 -56v-275c-1.3291 -27.916 7.03516 -55 34.001 -55c27.3652 0 37.5508 26.9365 35 55v275c1.34082 28.1523 -6.30859 56 -35 56z" />
    <glyph glyph-name="Obreve" unicode="&#x14e;" horiz-adv-x="354" 
d="M68 871l54 46c10.6621 -13.709 30.3457 -23 56 -23c26.5635 0 46.3477 8.43457 58 23l52 -46c-24.8652 -24.8652 -59.2451 -47 -110 -47c-51.7246 0 -86.7344 20.8262 -110 47zM321 151c-1 -30 -7 -57 -18 -80c-19.8311 -44.0703 -59.4102 -79 -126 -79
c-36 0 -64 9 -84 25c-37.7559 28.3164 -58.0098 74.2812 -60 134v433c1 29 7 56 18 79c20.2285 44.9531 57.8223 80 126 80c36 0 63 -10 83 -25c37.8291 -28.3711 58.9541 -74.668 61 -134v-433zM177 638c-27.8037 0 -36 -27.6455 -36 -54v-433
c0 -27.3291 9.04492 -54 36 -54c27.8037 0 36 25.9609 36 54v433c0 26.9004 -7.86816 54 -36 54z" />
    <glyph glyph-name="obreve" unicode="&#x14f;" horiz-adv-x="321" 
d="M52 683l54 46c10.6621 -13.709 30.3457 -23 56 -23c26.5635 0 46.3477 8.43457 58 23l52 -46c-24.8652 -24.8652 -59.2451 -47 -110 -47c-51.7246 0 -86.7344 20.8262 -110 47zM290 133c-3 -53 -19 -90 -54 -119c-18 -15 -43 -22 -76 -22c-65 0 -97 36 -113 72
c-9 21 -15 45 -16 72v275c3 53 19 92 54 122c17 15 42 22 75 22c65 0 98 -36 114 -71c9 -21 15 -44 16 -70v-281zM160 467c-26.7285 0 -36.4902 -28.6182 -34.001 -56v-275c-1.3291 -27.916 7.03516 -55 34.001 -55c27.3652 0 37.5508 26.9365 35 55v275
c1.34082 28.1523 -6.30859 56 -35 56z" />
    <glyph glyph-name="Ohungarumlaut" unicode="&#x150;" horiz-adv-x="354" 
d="M183 915l-79 -90h-78l52 90h105zM331 915l-79 -90h-78l52 90h105zM321 151c-1 -30 -7 -57 -18 -80c-19.8311 -44.0703 -59.4102 -79 -126 -79c-36 0 -64 9 -84 25c-37.7559 28.3164 -58.0098 74.2812 -60 134v433c1 29 7 56 18 79c20.2285 44.9531 57.8223 80 126 80
c36 0 63 -10 83 -25c37.8291 -28.3711 58.9541 -74.668 61 -134v-433zM177 638c-27.8037 0 -36 -27.6455 -36 -54v-433c0 -27.3291 9.04492 -54 36 -54c27.8037 0 36 25.9609 36 54v433c0 26.9004 -7.86816 54 -36 54z" />
    <glyph glyph-name="ohungarumlaut" unicode="&#x151;" horiz-adv-x="321" 
d="M166 727l-79 -90h-78l52 90h105zM314 727l-79 -90h-78l52 90h105zM290 133c-3 -53 -19 -90 -54 -119c-18 -15 -43 -22 -76 -22c-65 0 -97 36 -113 72c-9 21 -15 45 -16 72v275c3 53 19 92 54 122c17 15 42 22 75 22c65 0 98 -36 114 -71c9 -21 15 -44 16 -70v-281z
M160 467c-26.7285 0 -36.4902 -28.6182 -34.001 -56v-275c-1.3291 -27.916 7.03516 -55 34.001 -55c27.3652 0 37.5508 26.9365 35 55v275c1.34082 28.1523 -6.30859 56 -35 56z" />
    <glyph glyph-name="OE" unicode="&#x152;" horiz-adv-x="480" 
d="M177 0c-36 0 -64.001 10 -84.001 24c-37.4297 26.2012 -58.0244 69.7256 -59.999 127v433c1 28 7 53 18 75c20.9297 44.1846 57.4434 76 126 76h283v-111h-139v-193h100v-118h-100v-202h139v-111h-283zM176.999 638c-27.8037 0 -36 -27.6455 -36 -54v-433
c0 -27.3291 9.04492 -54 36 -54c27.8037 0 36 25.9609 36 54v440c0 21.7129 -10.9023 47 -36 47z" />
    <glyph glyph-name="oe" unicode="&#x153;" horiz-adv-x="486" 
d="M327 81c28.2256 0 36 26.873 36 55v60h94v-63c-3 -53 -19 -90 -55 -119c-18 -15 -43 -22 -76 -22c-37 0 -64 11 -83 28c-19 -16 -46 -28 -83 -28c-65 0 -97 36 -113 72c-9 21 -15 45 -16 72v275c3 53 19 92 54 122c17 15 42 22 75 22c39 0 65 -12 84 -29
c19 17 44 29 83 29c65 0 98 -36 114 -71c9 -21 15 -44 16 -70v-159h-167v-122c0 -21.6348 11.3555 -52 37 -52zM160 467c-26.7285 0 -36.4902 -28.6182 -34.001 -56v-275c-1.3291 -27.916 7.03516 -55 34.001 -55c27.3652 0 37.5508 26.9365 35 55v275
c1.34082 28.1523 -6.30859 56 -35 56zM326.999 467c-26.0859 0 -37 -30.6992 -37 -53v-80h73v77c0 28.165 -7.25879 56 -36 56z" />
    <glyph glyph-name="Racute" unicode="&#x154;" horiz-adv-x="361" 
d="M260 915l-79 -90h-78l52 90h105zM233 0l-56 310h-29v-310h-108v735h108c129 0 184 -73 184 -212c0 -73 -19 -139 -60 -167l69 -356h-108zM148 628v-218c56.5596 0 80 34.209 80 109c0 75.4541 -22.583 109 -80 109z" />
    <glyph glyph-name="racute" unicode="&#x155;" horiz-adv-x="246" 
d="M242 443c-46 0 -99.3418 -10.2734 -101 -63v-380h-101v547h101v-61c0.842773 58.0879 63 68 101 69v-112zM203 727l-79 -90h-78l52 90h105z" />
    <glyph glyph-name="Rcommaaccent" unicode="&#x156;" horiz-adv-x="361" 
d="M233 0l-56 310h-29v-310h-108v735h108c129 0 184 -73 184 -212c0 -73 -19 -139 -60 -167l69 -356h-108zM148 628v-218c56.5596 0 80 34.209 80 109c0 75.4541 -22.583 109 -80 109zM215 -123l-22 -65h-51l20 65h-31v69h84v-69z" />
    <glyph glyph-name="rcommaaccent" unicode="&#x157;" horiz-adv-x="246" 
d="M242 443c-46 0 -99.3418 -10.2734 -101 -63v-380h-101v547h101v-61c0.842773 58.0879 63 68 101 69v-112zM133 -117l-22 -65h-51l20 65h-31v69h84v-69z" />
    <glyph glyph-name="Rcaron" unicode="&#x158;" horiz-adv-x="361" 
d="M128 825l-69 90h92l30 -35l31 35h92l-69 -90h-107zM233 0l-56 310h-29v-310h-108v735h108c129 0 184 -73 184 -212c0 -73 -19 -139 -60 -167l69 -356h-108zM148 628v-218c56.5596 0 80 34.209 80 109c0 75.4541 -22.583 109 -80 109z" />
    <glyph glyph-name="rcaron" unicode="&#x159;" horiz-adv-x="246" 
d="M242 443c-46 0 -99.3418 -10.2734 -101 -63v-380h-101v547h101v-61c0.842773 58.0879 63 68 101 69v-112zM71 637l-69 90h92l30 -35l31 35h92l-69 -90h-107z" />
    <glyph glyph-name="Sacute" unicode="&#x15a;" horiz-adv-x="343" 
d="M251 915l-79 -90h-78l52 90h105zM176 644c-28 -1 -37 -30 -37 -73c0 -25 11 -51 27 -79s37 -57 58 -88c25 -37 50 -75 69 -112s32 -75 32 -115c0 -106.384 -39.1602 -185 -150 -185c-129.015 0 -157 91.4385 -157 214l106 10c0 -52.0625 2.78125 -125 51 -125
c32 0 44 34 44 81c0 40.7559 -34.6738 93.0117 -56 125c-40.8252 58.3213 -99.2324 137.824 -121 215c-6 19 -9 39 -9 59c0 91.2168 46.3857 170.145 141 172c65 1 103 -26 124 -65c21 -40 27 -89 27 -130l-106 -10c0 41.0938 -4.46484 106 -43 106z" />
    <glyph glyph-name="sacute" unicode="&#x15b;" horiz-adv-x="308" 
d="M234 727l-79 -90h-78l52 90h105zM160 471c-26.2754 0 -31 -38.0225 -31 -63.999c0 -17 9 -35 22 -51c46.0986 -61.4648 137 -108.129 137 -214c0 -81.6709 -43.1045 -150 -129 -150c-101.729 0 -141 78.1807 -141 167h94c0 -36.3174 9.10742 -83 47 -83c29 0 35 34 35 66
c0 33 -32 66 -63 97c-43.5156 41.7031 -96 86.2725 -96 168c0 80.0391 37.2832 146.214 123 148c100.501 1.70312 129 -60.3057 129 -148.001h-94c0 29.8066 -2.20508 64 -33 64z" />
    <glyph glyph-name="Scircumflex" unicode="&#x15c;" horiz-adv-x="343" 
d="M226 915l69 -90h-92l-31 35l-30 -35h-92l69 90h107zM176 644c-28 -1 -37 -30 -37 -73c0 -25 11 -51 27 -79s37 -57 58 -88c25 -37 50 -75 69 -112s32 -75 32 -115c0 -106.384 -39.1602 -185 -150 -185c-129.015 0 -157 91.4385 -157 214l106 10
c0 -52.0625 2.78125 -125 51 -125c32 0 44 34 44 81c0 40.7559 -34.6738 93.0117 -56 125c-40.8252 58.3213 -99.2324 137.824 -121 215c-6 19 -9 39 -9 59c0 91.2168 46.3857 170.145 141 172c65 1 103 -26 124 -65c21 -40 27 -89 27 -130l-106 -10
c0 41.0938 -4.46484 106 -43 106z" />
    <glyph glyph-name="scircumflex" unicode="&#x15d;" horiz-adv-x="308" 
d="M209 727l69 -90h-92l-31 35l-30 -35h-92l69 90h107zM160 471c-26.2754 0 -31 -38.0225 -31 -63.999c0 -17 9 -35 22 -51c46.0986 -61.4648 137 -108.129 137 -214c0 -81.6709 -43.1045 -150 -129 -150c-101.729 0 -141 78.1807 -141 167h94
c0 -36.3174 9.10742 -83 47 -83c29 0 35 34 35 66c0 33 -32 66 -63 97c-43.5156 41.7031 -96 86.2725 -96 168c0 80.0391 37.2832 146.214 123 148c100.501 1.70312 129 -60.3057 129 -148.001h-94c0 29.8066 -2.20508 64 -33 64z" />
    <glyph glyph-name="Scedilla" unicode="&#x15e;" horiz-adv-x="343" 
d="M176 644c-28 -1 -37 -30 -37 -73c0 -25 11 -51 27 -79s37 -57 58 -88c25 -37 50 -75 69 -112s32 -75 32 -115c0 -106.384 -39.1602 -185 -150 -185c-129.015 0 -157 91.4385 -157 214l106 10c0 -52.0625 2.78125 -125 51 -125c32 0 44 34 44 81
c0 40.7559 -34.6738 93.0117 -56 125c-40.8252 58.3213 -99.2324 137.824 -121 215c-6 19 -9 39 -9 59c0 91.2168 46.3857 170.145 141 172c65 1 103 -26 124 -65c21 -40 27 -89 27 -130l-106 -10c0 41.0938 -4.46484 106 -43 106zM215 -123l-22 -65h-51l20 65h-31v69h84
v-69z" />
    <glyph glyph-name="scedilla" unicode="&#x15f;" horiz-adv-x="308" 
d="M160 471c-26.2754 0 -31 -38.0225 -31 -63.999c0 -17 9 -35 22 -51c46.0986 -61.4648 137 -108.129 137 -214c0 -81.6709 -43.1045 -150 -129 -150c-101.729 0 -141 78.1807 -141 167h94c0 -36.3174 9.10742 -83 47 -83c29 0 35 34 35 66c0 33 -32 66 -63 97
c-43.5156 41.7031 -96 86.2725 -96 168c0 80.0391 37.2832 146.214 123 148c100.501 1.70312 129 -60.3057 129 -148.001h-94c0 29.8066 -2.20508 64 -33 64zM197 -122.999l-22 -65h-51l20 65h-31v69h84v-69z" />
    <glyph glyph-name="Scaron" unicode="&#x160;" horiz-adv-x="343" 
d="M118 800l-69 90h92l30 -35l31 35h92l-69 -90h-107zM176 644c-28 -1 -37 -30 -37 -73c0 -25 11 -51 27 -79s37 -57 58 -88c25 -37 50 -75 69 -112s32 -75 32 -115c0 -106.384 -39.1602 -185 -150 -185c-129.015 0 -157 91.4385 -157 214l106 10
c0 -52.0625 2.78125 -125 51 -125c32 0 44 34 44 81c0 40.7559 -34.6738 93.0117 -56 125c-40.8252 58.3213 -99.2324 137.824 -121 215c-6 19 -9 39 -9 59c0 91.2168 46.3857 170.145 141 172c65 1 103 -26 124 -65c21 -40 27 -89 27 -130l-106 -10
c0 41.0938 -4.46484 106 -43 106z" />
    <glyph glyph-name="scaron" unicode="&#x161;" horiz-adv-x="308" 
d="M101 637l-69 90h92l30 -35l31 35h92l-69 -90h-107zM160 471c-26.2754 0 -31 -38.0225 -31 -63.999c0 -17 9 -35 22 -51c46.0986 -61.4648 137 -108.129 137 -214c0 -81.6709 -43.1045 -150 -129 -150c-101.729 0 -141 78.1807 -141 167h94c0 -36.3174 9.10742 -83 47 -83
c29 0 35 34 35 66c0 33 -32 66 -63 97c-43.5156 41.7031 -96 86.2725 -96 168c0 80.0391 37.2832 146.214 123 148c100.501 1.70312 129 -60.3057 129 -148.001h-94c0 29.8066 -2.20508 64 -33 64z" />
    <glyph glyph-name="Tcaron" unicode="&#x164;" horiz-adv-x="316" 
d="M106 825l-69 90h92l30 -35l31 35h92l-69 -90h-107zM2 624v111h312v-111h-102v-624h-108v624h-102z" />
    <glyph glyph-name="tcaron" unicode="&#x165;" horiz-adv-x="396" 
d="M372 624l-55 -130h-50l35 130h-35v111h105v-111zM194 94c12.9893 0 26.1914 1.29785 37 4v-99c-17.0342 -3.40723 -29.3125 -7 -54 -7c-102.419 0 -116 93.5029 -116 184v280h-51v91h51v135h101v-135h69v-91h-69v-272c0 -32.6426 0 -90 32 -90z" />
    <glyph glyph-name="Tbar" unicode="&#x166;" horiz-adv-x="316" 
d="M314 624h-102v-74h47v-79h-47v-471h-108v471h-39v79h39v74h-102v111h312v-111z" />
    <glyph glyph-name="tbar" unicode="&#x167;" horiz-adv-x="245" 
d="M177 -8c-102.442 0 -116.001 93.3467 -116.001 184v280h-51v91h51v95h-34v79h194v-79h-59v-95h69v-91h-69v-272c0 -32.6562 0 -90 32 -90c12.9609 0 26.2197 1.30469 37.001 4v-99c-17.0361 -3.40723 -29.2979 -7 -54 -7z" />
    <glyph glyph-name="Utilde" unicode="&#x168;" horiz-adv-x="366" 
d="M140 918c31.9844 0 58.5566 -17.0371 88 -19c21.5703 0 39.3623 7.81738 53 16v-74c-12.5059 -11.1162 -31.7031 -19 -53 -19c-15 0 -30 3 -43 9c-14 6 -29 9 -45 10c-21.5703 0 -39.3623 -7.81738 -53 -16v74c12.5078 9.72852 31.7021 19 53 19zM183.001 97
c27.8037 0 36.001 25.9609 36.001 54v584h108v-584c-1 -30 -7 -57 -18 -80c-19.832 -44.0703 -59.4111 -79 -126.001 -79c-36 0 -64 9 -84 25c-37.7559 28.3164 -58.0098 74.2812 -60 134v584h108v-584c0 -27.3291 9.04492 -54 36 -54z" />
    <glyph glyph-name="utilde" unicode="&#x169;" 
d="M126 730c31.9844 0 58.5566 -17.0371 88 -19c21.5703 0 39.3623 7.81738 53 16v-74c-12.5059 -11.1162 -31.7031 -19 -53 -19c-15 0 -30 3 -43 9c-14 6 -29 9 -45 10c-21.5703 0 -39.3623 -7.81738 -53 -16v74c12.5078 9.72852 31.7021 19 53 19zM38.001 99
l0.000976562 448h101v-433c0 -21 12 -24 24 -24c16.3379 0 25.8926 14.1543 33 26v431h101v-547h-101v46c-2 -1 -6 -5 -11 -10c-14.8408 -14.8408 -40.4873 -44 -71.001 -44c-50.6738 0 -76 57.3828 -76 107z" />
    <glyph glyph-name="Umacron" unicode="&#x16a;" horiz-adv-x="366" 
d="M87 909h194v-79h-194v79zM183 97c27.8037 0 36 25.9609 36 54v584h108v-584c-1 -30 -7 -57 -18 -80c-19.8311 -44.0703 -59.4102 -79 -126 -79c-36 0 -64 9 -84 25c-37.7559 28.3164 -58.0098 74.2812 -60 134v584h108v-584c0 -27.3291 9.04492 -54 36 -54z" />
    <glyph glyph-name="umacron" unicode="&#x16b;" 
d="M73 721h194v-79h-194v79zM38 99l0.00195312 448h101v-433c0 -21 12 -24 24 -24c16.3379 0 25.8916 14.1543 32.999 26v431h101v-547h-101v46c-2 -1 -6 -5 -11 -10c-14.8408 -14.8408 -40.4873 -44 -71.001 -44c-50.6738 0 -76 57.3828 -76 107z" />
    <glyph glyph-name="Ubreve" unicode="&#x16c;" horiz-adv-x="366" 
d="M74 871l54 46c10.6621 -13.709 30.3457 -23 56 -23c26.5635 0 46.3477 8.43457 58 23l52 -46c-24.8652 -24.8652 -59.2451 -47 -110 -47c-51.7246 0 -86.7344 20.8262 -110 47zM183 97c27.8037 0 36 25.9609 36 54v584h108v-584c-1 -30 -7 -57 -18 -80
c-19.8311 -44.0703 -59.4102 -79 -126 -79c-36 0 -64 9 -84 25c-37.7559 28.3164 -58.0098 74.2812 -60 134v584h108v-584c0 -27.3291 9.04492 -54 36 -54z" />
    <glyph glyph-name="ubreve" unicode="&#x16d;" 
d="M60 683l54 46c10.6621 -13.709 30.3457 -23 56 -23c26.5635 0 46.3477 8.43457 58 23l52 -46c-24.8652 -24.8652 -59.2451 -47 -110 -47c-51.7246 0 -86.7344 20.8262 -110 47zM38 99l0.00195312 448h101v-433c0 -21 12 -24 24 -24c16.3379 0 25.8916 14.1543 32.999 26
v431h101v-547h-101v46c-2 -1 -6 -5 -11 -10c-14.8408 -14.8408 -40.4873 -44 -71.001 -44c-50.6738 0 -76 57.3828 -76 107z" />
    <glyph glyph-name="Uring" unicode="&#x16e;" horiz-adv-x="366" 
d="M110 882c0 41 34 70 75 70s74 -29 74 -70s-33 -70 -74 -70s-75 29 -75 70zM148 882c0 -19 18 -35 37 -35s37 16 37 35s-18 35 -37 35s-37 -16 -37 -35zM183 97c27.8037 0 36 25.9609 36 54v584h108v-584c-1 -30 -7 -57 -18 -80c-19.8311 -44.0703 -59.4102 -79 -126 -79
c-36 0 -64 9 -84 25c-37.7559 28.3164 -58.0098 74.2812 -60 134v584h108v-584c0 -27.3291 9.04492 -54 36 -54z" />
    <glyph glyph-name="uring" unicode="&#x16f;" 
d="M95 694c0 41 34 70 75 70s74 -29 74 -70s-33 -70 -74 -70s-75 29 -75 70zM133 694c0 -19 18 -35 37 -35s37 16 37 35s-18 35 -37 35s-37 -16 -37 -35zM38 99l0.00195312 448h101v-433c0 -21 12 -24 24 -24c16.3379 0 25.8916 14.1543 32.999 26v431h101v-547h-101v46
c-2 -1 -6 -5 -11 -10c-14.8408 -14.8408 -40.4873 -44 -71.001 -44c-50.6738 0 -76 57.3828 -76 107z" />
    <glyph glyph-name="Uhungarumlaut" unicode="&#x170;" horiz-adv-x="366" 
d="M189 915l-79 -90h-78l52 90h105zM337 915l-79 -90h-78l52 90h105zM183 97c27.8037 0 36 25.9609 36 54v584h108v-584c-1 -30 -7 -57 -18 -80c-19.8311 -44.0703 -59.4102 -79 -126 -79c-36 0 -64 9 -84 25c-37.7559 28.3164 -58.0098 74.2812 -60 134v584h108v-584
c0 -27.3291 9.04492 -54 36 -54z" />
    <glyph glyph-name="uhungarumlaut" unicode="&#x171;" 
d="M174 727l-79 -90h-78l52 90h105zM322 727l-79 -90h-78l52 90h105zM38 99l0.00195312 448h101v-433c0 -21 12 -24 24 -24c16.3379 0 25.8916 14.1543 32.999 26v431h101v-547h-101v46c-2 -1 -6 -5 -11 -10c-14.8408 -14.8408 -40.4873 -44 -71.001 -44
c-50.6738 0 -76 57.3828 -76 107z" />
    <glyph glyph-name="Uogonek" unicode="&#x172;" horiz-adv-x="366" 
d="M183 97c27.8154 0 36 25.9971 36 53.999v584h108v-584c-2.02246 -60.6719 -22.709 -105.281 -61 -133.999c-9 -7 -19 -13 -31 -17h47c-17 -15 -29 -30 -38 -50c-5 -10 -7 -21 -7 -33c0 -29 27 -38 50 -38c17 0 30 4 42 9l-8 -67c-21 -7 -34 -9 -51 -9
c-65 0 -102 40 -102 85c0 28 16 53 33 72c9 11 19 21 32 30c-14 -4 -31 -7 -50 -7c-67.4873 0 -105.886 34.3018 -126 79c-11 23 -17 50 -18 80v584h108v-584c0 -27.3613 9.05762 -54 36 -54z" />
    <glyph glyph-name="uogonek" unicode="&#x173;" 
d="M163 90c16.3408 0 25.9033 14.1729 33 26v431h101v-547h-46c-17 -15 -29 -30 -38 -50c-5 -10 -7 -21 -7 -33c0 -29 27 -38 50 -38c17 0 30 4 42 9l-8 -67c-21 -7 -34 -9 -51 -9c-65 0 -102 40 -102 85c0 28 16 53 33 72c9 11 20 22 33 31h-7v46c-2 -1 -6 -5 -11 -10
c-14.877 -14.877 -40.4521 -44 -71 -44c-50.6885 0 -76 57.3682 -76 107v448h101v-433c0 -21 12 -24 24 -24z" />
    <glyph glyph-name="Wcircumflex" unicode="&#x174;" horiz-adv-x="506" 
d="M306 915l69 -90h-92l-31 35l-30 -35h-92l69 90h107zM195 0h-84l-99 735h100c14.7803 -135.553 31.2686 -269.397 45 -405.999h8c16.5264 135.141 32.6367 270.697 49 406h78c16.3672 -135.3 32.4697 -270.864 49 -406.001h8l2 24l43 382h100l-99 -735h-84
c-18.6279 130.372 -37.625 260.375 -56 391h-4c-18.3809 -130.619 -37.3662 -260.634 -56 -391z" />
    <glyph glyph-name="wcircumflex" unicode="&#x175;" horiz-adv-x="442" 
d="M276 727l69 -90h-92l-31 35l-30 -35h-92l69 90h107zM267 0c-14.748 97.252 -28.7295 195.269 -43.999 291.999h-4l-5 -31l-39 -261h-84l-81 547h92c12.1299 -105.536 23.0869 -212.245 35.999 -316.999h6l5 31l42 286h60c15.7734 -105.56 30.5879 -212.078 47 -317h6
l4 31l32 286h92l-81 -547h-84z" />
    <glyph glyph-name="Ycircumflex" unicode="&#x176;" horiz-adv-x="342" 
d="M226 915l69 -90h-92l-31 35l-30 -35h-92l69 90h107zM167 500l3 -7h2l3 7l54 235h106l-110 -422v-313h-108v313l-110 422h106z" />
    <glyph glyph-name="ycircumflex" unicode="&#x177;" horiz-adv-x="310" 
d="M210 727l69 -90h-92l-31 35l-30 -35h-92l69 90h107zM105 -16l-93 563h99c13.6182 -121.715 30.3525 -240.313 42 -364h4l2 28l40 336h99l-97 -588c-9.45508 -73.752 -58.5635 -155 -140 -155h-12c-9 0 -21 1 -33 2v90c1 -1 3 -1 6 -1c48.791 -9.75781 83 39.8916 83 89z
" />
    <glyph glyph-name="Ydieresis" unicode="&#x178;" horiz-adv-x="344" 
d="M55 898h93v-98h-93v98zM196 898h93v-98h-93v98zM168 500l3 -7h2l3 7l54 235h106l-110 -422v-313h-108v313l-110 422h106z" />
    <glyph glyph-name="Zacute" unicode="&#x179;" horiz-adv-x="306" 
d="M233 915l-79 -90h-78l52 90h105zM10 116l169 512h-145v107h262v-107l-172 -521h172v-107h-286v116z" />
    <glyph glyph-name="zacute" unicode="&#x17a;" horiz-adv-x="260" 
d="M210 727l-79 -90h-78l52 90h105zM6 82l139 373h-117v92h224v-82l-139 -373h139v-92h-246v82z" />
    <glyph glyph-name="Zdotaccent" unicode="&#x17b;" horiz-adv-x="306" 
d="M104 923h101v-101h-101v101zM10 116l169 512h-145v107h262v-107l-172 -521h172v-107h-286v116z" />
    <glyph glyph-name="zdotaccent" unicode="&#x17c;" horiz-adv-x="260" 
d="M81 735h101v-101h-101v101zM6 82l139 373h-117v92h224v-82l-139 -373h139v-92h-246v82z" />
    <glyph glyph-name="Zcaron" unicode="&#x17d;" horiz-adv-x="306" 
d="M112 800l-69 90h92l30 -35l31 35h92l-69 -90h-107zM10 116l169 512h-145v107h262v-107l-172 -521h172v-107h-286v116z" />
    <glyph glyph-name="zcaron" unicode="&#x17e;" horiz-adv-x="260" 
d="M81 637l-69 90h92l30 -35l31 35h92l-69 -90h-107zM6 82l139 373h-117v92h224v-82l-139 -373h139v-92h-246v82z" />
    <glyph glyph-name="longs" unicode="&#x17f;" horiz-adv-x="232" 
d="M18 0v573c0 121 52 154 127 154c21 0 45 -3 71 -8l-12 -78c-14 3 -28 4 -43 4c-48 0 -66 -17 -66 -80v-565h-77z" />
    <glyph glyph-name="uni021A" unicode="&#x21a;" horiz-adv-x="316" 
d="M2 624v111h312v-111h-102v-624h-108v624h-102zM215 -123l-22 -65h-51l20 65h-31v69h84v-69z" />
    <glyph glyph-name="uni021B" unicode="&#x21b;" horiz-adv-x="245" 
d="M194 94c12.9893 0 26.1914 1.29785 37 4v-99c-17.0342 -3.40723 -29.3125 -7 -54 -7c-102.419 0 -116 93.5029 -116 184v280h-51v91h51v135h101v-135h69v-91h-69v-272c0 -32.6426 0 -90 32 -90zM215 -123l-22 -65h-51l20 65h-31v69h84v-69z" />
    <glyph glyph-name="circumflex" unicode="&#x2c6;" horiz-adv-x="499" 
d="M303 727l69 -90h-92l-31 35l-30 -35h-92l69 90h107z" />
    <glyph glyph-name="caron" unicode="&#x2c7;" horiz-adv-x="499" 
d="M196 637l-69 90h92l30 -35l31 35h92l-69 -90h-107z" />
    <glyph glyph-name="breve" unicode="&#x2d8;" horiz-adv-x="500" 
d="M140 683l54 46c10.6621 -13.709 30.3457 -23 56 -23c26.5635 0 46.3477 8.43457 58 23l52 -46c-24.8652 -24.8652 -59.2451 -47 -110 -47c-51.7246 0 -86.7344 20.8262 -110 47z" />
    <glyph glyph-name="dotaccent" unicode="&#x2d9;" horiz-adv-x="499" 
d="M199 735h101v-101h-101v101z" />
    <glyph glyph-name="ring" unicode="&#x2da;" horiz-adv-x="499" 
d="M175 694c0 41 34 70 75 70s74 -29 74 -70s-33 -70 -74 -70s-75 29 -75 70zM213 694c0 -19 18 -35 37 -35s37 16 37 35s-18 35 -37 35s-37 -16 -37 -35z" />
    <glyph glyph-name="ogonek" unicode="&#x2db;" horiz-adv-x="500" 
d="M284 0c-17 -15 -29 -30 -38 -50c-5 -10 -7 -21 -7 -33c0 -29 27 -38 50 -38c17 0 30 4 42 9l-8 -67c-21 -7 -34 -9 -51 -9c-65 0 -102 40 -102 85c0 28 16 53 33 72c9 11 20 22 33 31h48z" />
    <glyph glyph-name="tilde" unicode="&#x2dc;" horiz-adv-x="500" 
d="M206 730c31.9844 0 58.5566 -17.0371 88 -19c21.5703 0 39.3623 7.81738 53 16v-74c-12.5059 -11.1162 -31.7031 -19 -53 -19c-15 0 -30 3 -43 9c-14 6 -29 9 -45 10c-21.5703 0 -39.3623 -7.81738 -53 -16v74c12.5078 9.72852 31.7021 19 53 19z" />
    <glyph glyph-name="hungarumlaut" unicode="&#x2dd;" horiz-adv-x="500" 
d="M262 727l-79 -90h-78l52 90h105zM410 727l-79 -90h-78l52 90h105z" />
    <glyph glyph-name="endash" unicode="&#x2013;" horiz-adv-x="394" 
d="M36 412h322v-95h-322v95z" />
    <glyph glyph-name="emdash" unicode="&#x2014;" horiz-adv-x="475" 
d="M36 412h403v-95h-403v95z" />
    <glyph glyph-name="quoteleft" unicode="&#x2018;" horiz-adv-x="151" 
d="M24 605l55 130h50l-35 -130h35v-111h-105v111z" />
    <glyph glyph-name="quoteright" unicode="&#x2019;" horiz-adv-x="151" 
d="M127 624l-55 -130h-50l35 130h-35v111h105v-111z" />
    <glyph glyph-name="quotesinglbase" unicode="&#x201a;" horiz-adv-x="151" 
d="M127 0l-55 -130h-50l35 130h-35v111h105v-111z" />
    <glyph glyph-name="quotereversed" unicode="&#x201b;" horiz-adv-x="151" 
d="M22 624l55 -130h50l-35 130h35v111h-105v-111z" />
    <glyph glyph-name="quotedblleft" unicode="&#x201c;" horiz-adv-x="305" 
d="M26 605l55 130h50l-35 -130h35v-111h-105v111zM174 605l55 130h50l-35 -130h35v-111h-105v111z" />
    <glyph glyph-name="quotedblright" unicode="&#x201d;" horiz-adv-x="305" 
d="M131 624l-55 -130h-50l35 130h-35v111h105v-111zM279 624l-55 -130h-50l35 130h-35v111h105v-111z" />
    <glyph glyph-name="quotedblbase" unicode="&#x201e;" horiz-adv-x="305" 
d="M131 0l-55 -130h-50l35 130h-35v111h105v-111zM279 0l-55 -130h-50l35 130h-35v111h105v-111z" />
    <glyph glyph-name="uni201F" unicode="&#x201f;" horiz-adv-x="305" 
d="M131 735v-111h-35l35 -130h-50l-55 130v111h105zM279 735v-111h-35l35 -130h-50l-55 130v111h105z" />
    <glyph glyph-name="bullet" unicode="&#x2022;" horiz-adv-x="324" 
d="M163 520c67.4355 0 121 -53.5781 121 -121c0 -68.5645 -53.5781 -123 -121 -123c-68.5645 0 -123 54.4219 -123 123c0 67.4355 54.4219 121 123 121z" />
    <glyph glyph-name="onedotenleader" unicode="&#x2024;" horiz-adv-x="140" 
d="M18 111h105v-111h-105v111z" />
    <glyph glyph-name="twodotenleader" unicode="&#x2025;" horiz-adv-x="297" 
d="M18 111h105v-111h-105v111zM175 111h105v-111h-105v111z" />
    <glyph glyph-name="ellipsis" unicode="&#x2026;" horiz-adv-x="471" 
d="M26 111h105v-111h-105v111zM183 111h105v-111h-105v111zM340 111h105v-111h-105v111z" />
    <glyph glyph-name="Euro" unicode="&#x20ac;" horiz-adv-x="397" 
d="M224 638c-28.8213 0 -35.4072 -28.0703 -38 -54v-116h114v-67h-114v-67h114v-67h-114v-116c1.27148 -26.7051 11.0771 -54 38 -54c31.9893 0 41 23.666 41 54v41h101v-41c-1 -30 -7 -57 -18 -80c-19.8311 -44.0703 -59.4102 -79 -126 -79c-36 0 -64 9 -84 25
c-37.7559 28.3164 -58.0098 74.2812 -60 134v116h-52v67h52v67h-52v67h52v116c1 29 7 56 18 79c20.2285 44.9531 57.8223 80 126 80c36 0 63 -10 83 -25c37.8291 -28.3711 58.9541 -74.668 61 -134v-41h-101v41c0 28.2783 -10.1328 54 -41 54z" />
    <glyph glyph-name="trademark" unicode="&#x2122;" horiz-adv-x="458" 
d="M36 684v51h157v-51h-51v-283h-55v283h-51zM304 401l-39 219v-219h-50v334h67l33 -156h3l33 156h67v-334h-51v219l-38 -219h-25z" />
    <glyph glyph-name="minus" unicode="&#x2212;" horiz-adv-x="379" 
d="M36 401h307v-84h-307v84z" />
    <glyph glyph-name="fi" unicode="&#xfb01;" horiz-adv-x="377" 
d="M257 735v-90c-16.1494 4.03711 -29.1279 6 -54 6c-31.6582 0 -41 -33.6826 -41 -65v-39h175v-547h-101v456h-74v-456h-101v456h-51v91h51v15c0 28 -1 74 15 112c15 38 46 68 109 68c29.6787 0 48.124 -3.58887 72 -7z" />
    <glyph glyph-name="fl" unicode="&#xfb02;" horiz-adv-x="377" 
d="M162 586v-39h51v-91h-51v-456h-101v456h-51v91h51v15c0 28 -1 74 15 112c15 38 46 68 109 68c29.6787 0 48.124 -3.58887 72 -7h80v-735h-101v649c-9 1 -18 2 -33 2c-31.6582 0 -41 -33.6826 -41 -65z" />
    <glyph glyph-name="uni0093" horiz-adv-x="305" 
d="M26 605l55 130h50l-35 -130h35v-111h-105v111zM174 605l55 130h50l-35 -130h35v-111h-105v111z" />
    <glyph glyph-name="uni0094" horiz-adv-x="305" 
d="M131 624l-55 -130h-50l35 130h-35v111h105v-111zM279 624l-55 -130h-50l35 130h-35v111h105v-111z" />
    <glyph glyph-name="section" horiz-adv-x="343" 
d="M176 644c-28 -1 -37 -30 -37 -73c0 -25 11 -51 27 -79s37 -57 58 -88c25 -37 50 -75 69 -112s32 -75 32 -115c0 -106.384 -39.1602 -185 -150 -185c-129.015 0 -157 91.4385 -157 214l106 10c0 -52.0625 2.78125 -125 51 -125c32 0 44 34 44 81
c0 40.7559 -34.6738 93.0117 -56 125c-40.8252 58.3213 -99.2324 137.824 -121 215c-6 19 -9 39 -9 59c0 91.2168 46.3857 170.145 141 172c65 1 103 -26 124 -65c21 -40 27 -89 27 -130l-106 -10c0 41.0938 -4.46484 106 -43 106z" />
    </font>
</defs>
</svg>
